<svg width="355" height="47" viewBox="0 0 355 47" fill="none" xmlns="http://www.w3.org/2000/svg">
<path d="M0 47L0 0L355 0V46.9956H329.614V46.9558C329.598 36.511 321.679 28.056 311.913 28.056C302.148 28.056 294.212 36.511 294.212 46.9558V46.9956L284.167 46.9956V46.9558C284.151 36.511 276.216 28.056 266.45 28.056C256.684 28.056 248.749 36.511 248.749 46.9558V46.9956H238.696V46.9558C238.672 36.511 230.744 28.056 220.979 28.056C211.213 28.056 203.27 36.511 203.27 46.9558V46.9956H193.216V46.9558C193.201 36.511 185.265 28.056 175.5 28.056C165.734 28.056 157.799 36.511 157.799 46.9558V46.9956H147.753V46.9558C147.737 38.365 142.375 31.1166 135.039 28.8231C133.428 28.3007 131.746 28.0311 130.052 28.024C120.327 28.024 112.335 36.479 112.335 46.9238V46.9636H102.282V46.9238C102.258 36.479 94.2987 28.024 84.5732 28.024C74.8476 28.024 66.8561 36.479 66.8561 46.9238V46.9636L56.803 46.9636V46.9238C56.787 36.479 48.8674 28.024 39.1019 28.024C29.3364 28.024 21.385 36.479 21.385 46.9238L21.345 46.9636L0 47Z" fill="url(#paint0_linear_318_5223)"/>
<defs>
<linearGradient id="paint0_linear_318_5223" x1="20.8688" y1="-2.09764" x2="24.2225" y2="137.207" gradientUnits="userSpaceOnUse">
<stop stop-color="#92DCC6"/>
<stop offset="1" stop-color="#92DCC6"/>
</linearGradient>
</defs>
</svg>
