<svg width="1440" height="2335" viewBox="0 0 1440 2335" fill="none" xmlns="http://www.w3.org/2000/svg">
<g clip-path="url(#clip0_301_4900)">
<path d="M1038.3 553.156C1029.93 567.79 731.896 573.24 723.408 883.474M723.408 883.474C700.771 670.963 976.412 654.982 1121.98 648.041M723.408 883.474C711.78 672.182 1018.76 729.215 1166.44 754.337M723.408 883.474C712.239 680.511 832.107 523.94 891.971 486.285" stroke="white" stroke-width="10"/>
<path d="M402.228 553.156C410.601 567.79 708.634 573.24 717.123 883.474M717.123 883.474C739.76 670.963 464.118 654.982 318.553 648.041M717.123 883.474C728.75 672.182 421.766 729.215 274.088 754.337M717.123 883.474C728.292 680.511 608.423 523.94 548.559 486.285" stroke="white" stroke-width="10"/>
<path d="M710.305 453.762L721.282 883.474" stroke="white" stroke-width="10"/>
<path d="M1062.21 534.482C1053.84 550.454 755.808 556.402 747.32 895M747.32 895C724.683 663.059 1000.32 645.617 1145.89 638.042M747.32 895C735.692 664.39 1042.68 726.638 1190.35 754.056M747.32 895C736.151 673.481 856.019 502.595 915.883 461.497" stroke="white" stroke-opacity="0.2" stroke-width="10"/>
<path d="M426.141 534.482C434.513 550.454 732.546 556.402 741.035 895M741.035 895C763.672 663.059 488.03 645.617 342.465 638.042M741.035 895C752.662 664.39 445.678 726.638 298 754.056M741.035 895C752.204 673.481 632.336 502.595 572.471 461.497" stroke="white" stroke-opacity="0.2" stroke-width="10"/>
<path d="M734.217 426L745.194 895" stroke="white" stroke-opacity="0.2" stroke-width="10"/>
<circle cx="3" cy="3" r="3" transform="matrix(1 0 0 -1 553 650.038)" fill="#FFF7CB"/>
<circle cx="9.5" cy="9.5" r="9.5" transform="matrix(1 0 0 -1 1289 459.038)" fill="#FFF7CB"/>
<path fill-rule="evenodd" clip-rule="evenodd" d="M-24.5214 591.674C-25.0228 591.009 -24.8899 590.063 -24.2243 589.561C-23.5588 589.06 -22.6128 589.193 -22.1113 589.858C-19.7261 593.024 -15.5069 596.142 -10.3105 598.042C-3.56307 600.509 4.34134 600.83 13.2206 598.44C20.3744 596.514 28.2172 590.901 33.4581 583.675C39.4208 575.454 41.53 566.067 38.7479 556.832C35.8918 547.353 31.1525 540.522 24.0454 533.822L23.3853 533.208C23.172 533.015 22.7881 532.672 22.3063 532.241C20.535 530.658 17.4401 527.893 16.6343 527.057C14.4771 524.818 13.619 522.978 14.344 520.953C14.625 520.168 15.4887 519.76 16.2732 520.041C17.0087 520.304 17.4135 521.08 17.2298 521.822L17.1851 521.97C16.9712 522.568 17.3326 523.391 18.6172 524.763L18.8071 524.963C19.5176 525.7 22.3831 528.261 24.1697 529.859L24.17 529.859C24.8623 530.478 25.3925 530.952 25.5725 531.119C33.3332 538.312 38.5363 545.669 41.6373 555.962C44.7102 566.161 42.3859 576.505 35.9009 585.446C30.265 593.217 21.8456 599.243 14.0051 601.354C4.5284 603.905 -4.01194 603.558 -11.3468 600.877C-17.0884 598.777 -21.7852 595.306 -24.5214 591.674ZM-22.6847 579.269C-23.2 578.614 -23.0869 577.666 -22.432 577.15C-21.7772 576.635 -20.8285 576.748 -20.3132 577.403C-12.6072 587.196 0.189377 591.692 12.4864 588.599C16.6482 587.552 19.5412 585.743 20.264 584.308L20.3514 584.122L20.367 584.103L20.3468 584.094C19.9197 583.931 19.0429 583.935 17.8236 584.214L17.5572 584.278C4.91001 587.459 -8.26044 583.319 -16.8407 573.811C-17.399 573.193 -17.3501 572.239 -16.7314 571.68C-16.1128 571.122 -15.1587 571.171 -14.6004 571.79C-6.87006 580.356 4.93448 584.151 16.3395 581.468L16.8211 581.351C21.2816 580.229 24.5398 581.898 23.1118 585.333C22.0673 587.846 18.3455 590.237 13.2224 591.526C-0.239377 594.911 -14.2491 589.989 -22.6847 579.269ZM-16.2158 555.568C-16.9286 556 -17.1565 556.927 -16.7248 557.64C-9.09847 570.234 5.26165 577.349 20.1276 575.493C25.7685 574.788 30.0497 572.726 31.4804 570.205C33.3995 566.823 30.2278 564.674 25.369 565.28L24.8687 565.339C12.1988 566.736 -0.0476748 561.078 -7.2582 550.805C-7.73693 550.123 -8.67795 549.958 -9.36002 550.437C-10.0421 550.915 -10.2069 551.857 -9.7282 552.539C-1.78734 563.852 11.7766 570.019 25.7429 568.275L26.0429 568.24C27.5121 568.089 28.518 568.233 28.9371 568.517L28.9579 568.529C28.9684 568.533 28.9744 568.534 28.9753 568.537C28.976 568.539 28.9731 568.542 28.966 568.551C28.9504 568.569 28.9149 568.611 28.8559 568.715L28.7754 568.846C27.7928 570.334 24.4072 571.917 19.7536 572.498C6.07957 574.206 -7.12835 567.661 -14.1436 556.077C-14.5752 555.364 -15.503 555.136 -16.2158 555.568ZM-6.15556 543.033C-6.58722 542.32 -6.35931 541.392 -5.64652 540.961C-4.93372 540.529 -4.00596 540.757 -3.5743 541.47C1.34428 549.592 10.6045 554.18 20.1917 552.983C23.0337 552.628 25.1648 551.741 26.0422 550.898L26.1385 550.801L26.0223 550.785C25.718 550.751 25.3049 550.75 24.7965 550.801L24.5728 550.827C14.4461 552.091 4.61084 547.62 -1.1468 539.417C-1.62553 538.735 -1.46069 537.794 -0.778618 537.315C-0.096542 536.836 0.844472 537.001 1.3232 537.683C6.36001 544.859 14.9009 548.823 23.7488 547.884L24.1989 547.832C27.9542 547.363 30.5975 549.154 28.9894 551.988C27.8874 553.93 24.7129 555.459 20.5657 555.977C9.7866 557.323 -0.625831 552.164 -6.15556 543.033ZM1.04046 530.413C0.32766 530.845 0.0997577 531.773 0.531417 532.485C4.23467 538.601 11.2081 542.056 18.4269 541.154C21.2729 540.799 23.4834 539.734 24.299 538.297C25.6362 535.941 23.4532 534.461 20.6592 534.81L20.2901 534.852C14.7586 535.408 9.42872 532.918 6.27846 528.43C5.79973 527.748 4.85871 527.583 4.17664 528.062C3.49457 528.54 3.32973 529.481 3.80846 530.163L4.03392 530.478C7.53686 535.252 13.139 538.05 19.0845 537.944L19.2954 537.938L19.077 537.987C18.7582 538.056 18.4158 538.115 18.053 538.16C12.026 538.913 6.20478 536.028 3.11267 530.922C2.68101 530.21 1.75325 529.982 1.04046 530.413Z" fill="#FFF7CB" fill-opacity="0.5"/>
<path d="M1443.14 398.91C1444.14 399.458 1444.51 400.7 1443.97 401.686C1443.43 402.672 1442.19 403.027 1441.19 402.48C1434.05 398.561 1427 397.719 1420.45 402.652C1420.06 402.948 1419.7 403.248 1419.37 403.543L1419.15 403.746L1419.39 403.599C1426.29 399.48 1434.79 399.003 1442.18 402.257L1442.66 402.474C1443.69 402.954 1444.15 404.169 1443.68 405.19C1443.21 406.21 1441.99 406.649 1440.96 406.169C1434.17 403.014 1426.21 403.671 1420.11 408.039L1419.7 408.336C1416.67 410.622 1413.09 410.352 1413.03 406.686C1413 404.451 1414.86 401.715 1417.95 399.386C1425.8 393.479 1434.59 394.217 1443.14 398.91Z" fill="white" fill-opacity="0.8"/>
<path d="M1443.46 381.093C1444.46 381.64 1444.83 382.883 1444.29 383.869C1443.75 384.854 1442.51 385.21 1441.51 384.663C1430.15 378.429 1416.13 379.261 1405.72 387.106C1402.63 389.432 1400.74 391.905 1400.29 393.484L1400.24 393.663L1400.39 393.604C1400.77 393.439 1401.26 393.163 1401.82 392.761L1402.06 392.581C1413.07 384.294 1427.68 382.938 1440.08 388.704C1441.11 389.184 1441.56 390.4 1441.09 391.42C1440.62 392.44 1439.41 392.879 1438.38 392.399C1427.53 387.355 1414.78 388.437 1405.05 395.483L1404.56 395.847C1400.48 398.92 1396.15 398.592 1396.08 394.184C1396.04 391.163 1398.71 387.235 1403.22 383.841C1414.93 375.02 1430.69 374.085 1443.46 381.093Z" fill="white" fill-opacity="0.8"/>
<path d="M1443.78 357.265C1444.77 357.812 1445.14 359.055 1444.6 360.04C1444.07 361.026 1442.82 361.382 1441.82 360.834C1425.62 351.943 1405.63 353.129 1390.77 364.32C1385.71 368.128 1382.83 372.261 1382.7 374.668L1382.7 374.876C1382.7 375.195 1382.65 375.17 1382.71 375.164L1382.74 375.163C1383.43 375.215 1384.71 374.708 1386.33 373.544L1386.65 373.302C1401.83 361.873 1421.98 360.003 1439.08 367.956C1440.11 368.435 1440.57 369.651 1440.1 370.671C1439.63 371.691 1438.41 372.13 1437.38 371.651C1421.85 364.43 1403.6 366.011 1389.7 376.162L1389.15 376.568C1383.87 380.544 1378.67 380.15 1378.6 374.89C1378.54 370.968 1382.14 365.67 1388.27 361.054C1404.42 348.889 1426.16 347.599 1443.78 357.265Z" fill="white" fill-opacity="0.8"/>
<path d="M1435.09 329.084C1436.14 329.507 1436.66 330.697 1436.25 331.742C1435.84 332.787 1434.65 333.291 1433.59 332.868C1417.81 326.544 1399.71 329.86 1387.42 341.752C1383.26 345.776 1381.11 349.845 1381.25 352.015L1381.28 352.292L1381.27 352.325L1381.3 352.323C1381.92 352.226 1382.94 351.633 1384.18 350.487L1384.45 350.233C1397.09 338.002 1415.38 334.016 1431.99 339.418C1433.07 339.77 1433.67 340.923 1433.33 341.994C1432.99 343.065 1431.84 343.649 1430.76 343.297C1415.79 338.43 1399.34 341.903 1387.81 352.714L1387.33 353.175C1382.87 357.488 1377.9 357.717 1377.21 352.724C1376.7 349.072 1379.42 343.764 1384.54 338.809C1398 325.791 1417.82 322.161 1435.09 329.084Z" fill="white" fill-opacity="0.8"/>
<path d="M1430.72 312.859C1431.77 313.303 1432.27 314.504 1431.83 315.54C1431.39 316.575 1430.19 317.055 1429.15 316.61C1424.17 314.495 1417.93 314.263 1410.53 315.522C1400.92 317.158 1392 322.227 1383.23 330.999C1376.17 338.065 1371.2 349.379 1370.03 361.385C1368.7 375.045 1376.4 383.594 1386.02 392.569C1395.89 401.783 1399.78 402.528 1412.73 405.622L1413.93 405.9C1415.72 406.289 1424.14 408.028 1426.08 408.589C1430.15 409.768 1432.42 411.353 1432.97 414.218C1433.18 415.328 1432.45 416.388 1431.33 416.585C1430.29 416.77 1429.28 416.131 1428.98 415.135L1428.94 414.932C1428.77 414.087 1427.78 413.362 1425.33 412.614L1424.97 412.507C1423.11 411.968 1413.97 410.091 1412.8 409.822C1398.75 406.587 1393.95 405.537 1383.23 395.533C1372.6 385.619 1364.49 375.801 1365.94 360.945C1367.2 348.034 1372.56 335.849 1380.31 328.104C1389.66 318.742 1399.34 313.276 1409.79 311.498C1417.97 310.107 1425.01 310.432 1430.72 312.859Z" fill="white" fill-opacity="0.8"/>
<path d="M743 1063.05L743 1626" stroke="white" stroke-opacity="0.2" stroke-width="10"/>
<path d="M751.557 1070.25C751.557 1177.82 697.035 1278.41 1032.67 1278.41C1230.25 1278.41 1292.94 1341.95 1301.28 1371.24" stroke="white" stroke-opacity="0.2" stroke-width="10"/>
<path d="M749.279 1064.08V1232.04C757.612 1271.6 708.779 1348.87 982.779 1348.87C1108.28 1348.87 1146.28 1375.76 1188.28 1443.89" stroke="white" stroke-opacity="0.2" stroke-width="10"/>
<path d="M744 1067.44C775.779 1304.46 679 1441.09 883 1441.09C982 1441.09 1018.1 1465.73 1044.5 1517.11" stroke="white" stroke-opacity="0.2" stroke-width="10"/>
<path d="M746.235 1067.16C746.235 1511.97 751.152 1502.73 816.5 1502.73C898.185 1502.73 889.821 1540.76 898.5 1580.29" stroke="white" stroke-opacity="0.2" stroke-width="10"/>
<path d="M735.721 1067.16C735.721 1174.74 790.244 1275.33 454.608 1275.33C257.029 1275.33 194.337 1338.87 186 1368.15" stroke="white" stroke-opacity="0.2" stroke-width="10"/>
<path d="M738 1061V1228.96C729.667 1268.52 778.5 1345.79 504.5 1345.79C379 1345.79 341 1372.68 299 1440.81" stroke="white" stroke-opacity="0.2" stroke-width="10"/>
<path d="M743.279 1064.35C711.5 1301.38 808.279 1438.01 604.279 1438.01C505.279 1438.01 469.179 1462.65 442.779 1514.03" stroke="white" stroke-opacity="0.2" stroke-width="10"/>
<path d="M741.044 1064.08C741.044 1508.89 736.127 1499.65 670.779 1499.65C589.094 1499.65 597.458 1537.67 588.779 1577.2" stroke="white" stroke-opacity="0.2" stroke-width="10"/>
<path d="M719 1063L719 1611" stroke="white" stroke-width="10"/>
<path d="M727.557 1070C727.557 1174.72 673.035 1272.64 1008.67 1272.64C1206.25 1272.64 1268.94 1334.49 1277.28 1363" stroke="white" stroke-width="10"/>
<path d="M725.279 1064V1227.5C733.612 1266.01 684.779 1341.23 958.779 1341.23C1084.28 1341.23 1122.28 1367.4 1164.28 1433.73" stroke="white" stroke-width="10"/>
<path d="M720 1067.27C751.779 1298 655 1431 859 1431C958 1431 994.1 1454.99 1020.5 1505" stroke="white" stroke-width="10"/>
<path d="M722.235 1067C722.235 1500 727.152 1491 792.5 1491C874.185 1491 865.821 1528.02 874.5 1566.5" stroke="white" stroke-width="10"/>
<path d="M711.721 1067C711.721 1171.72 766.244 1269.64 430.608 1269.64C233.029 1269.64 170.337 1331.49 162 1360" stroke="white" stroke-width="10"/>
<path d="M714 1061V1224.5C705.667 1263.01 754.5 1338.23 480.5 1338.23C355 1338.23 317 1364.4 275 1430.73" stroke="white" stroke-width="10"/>
<path d="M719.279 1064.27C687.5 1295 784.279 1428 580.279 1428C481.279 1428 445.179 1451.99 418.779 1502" stroke="white" stroke-width="10"/>
<path d="M717.044 1064C717.044 1497 712.127 1488 646.779 1488C565.094 1488 573.458 1525.02 564.779 1563.5" stroke="white" stroke-width="10"/>
<circle cx="721" cy="975.038" r="99" fill="white"/>
<path fill-rule="evenodd" clip-rule="evenodd" d="M560.529 1045.94C548.968 1042.53 536.327 1034.21 537.028 1022.18C537.514 1013.84 544.366 1007.41 551.067 1002.42C560.271 995.57 570.15 989.625 580.513 984.7C587.552 981.355 595.784 977.315 597.145 969.641C605.101 924.779 639.222 885.641 682.466 871.294C725.71 856.947 776.264 867.813 810.042 898.39C816.74 904.453 824.996 911.789 833.539 908.853C850.712 902.95 869.907 898.944 886.729 905.781C892.94 908.306 899.211 913.462 898.9 920.159C898.752 923.332 897.121 926.229 895.414 928.908C884.805 945.553 869.475 959.153 851.684 967.702C842.88 971.933 837.104 980.742 833.599 989.859C830.094 998.977 828.432 1008.7 825.28 1017.94C812.76 1054.68 776.288 1080.61 737.756 1085.21C699.224 1089.81 659.843 1074.92 630.337 1049.71C626.97 1046.84 622.783 1043.61 618.578 1045C599.919 1051.17 579.378 1051.5 560.529 1045.94M619.276 1011.99C621.2 1012.92 623.422 1012.95 625.56 1012.93C671.836 1012.39 716.168 995.523 759.355 978.889C778.086 971.675 796.817 964.46 815.549 957.245C819.373 955.772 823.607 953.902 825.053 950.068C826.002 947.549 825.496 944.734 824.841 942.123C819.114 919.3 802.697 899.866 782.224 888.266C761.752 876.666 737.553 872.526 714.081 874.179C682.021 876.436 650.059 889.978 629.354 914.559C608.649 939.14 600.903 975.244 613.615 1004.76C614.853 1007.64 616.458 1010.63 619.276 1011.99M819.032 985.92C765.054 1011.51 707.426 1029.39 648.44 1038.84C644.329 1039.5 642.56 1044.97 644.174 1048.81C645.787 1052.65 649.53 1055.1 653.13 1057.19C674.879 1069.83 699.485 1078.22 724.638 1078.59C749.79 1078.95 775.47 1070.81 794.043 1053.84C812.616 1036.88 823.205 1010.73 819.032 985.92M546.689 1026.88C548.119 1031.23 552.57 1033.8 556.848 1035.44C573.615 1041.88 592.292 1040.22 610.09 1037.81C681.921 1028.06 752.258 1007.37 817.931 976.682C844.243 964.386 870.954 949.465 886.532 924.954C887.882 922.829 889.185 920.451 888.929 917.946C888.392 912.672 881.828 910.593 876.533 910.345C863.414 909.731 850.416 912.653 837.608 915.557C833.141 916.57 827.569 918.999 827.984 923.56C828.439 928.566 835.458 929.505 840.315 928.212C845.172 926.919 851.185 925.143 854.56 928.868C859.175 933.962 852.817 941.518 846.983 945.154C802.892 972.631 753.013 989.144 703.673 1005.41C692.032 1009.25 680.36 1013.09 668.354 1015.56C658.047 1017.67 647.561 1018.76 637.095 1019.84C627.304 1020.85 617.513 1021.86 607.722 1022.87C602.761 1023.38 597.599 1023.87 592.91 1022.17C588.222 1020.47 584.179 1015.88 584.828 1010.94C585.547 1005.46 591.138 1002.29 595.316 998.683C599.493 995.074 602.336 987.772 597.836 984.575C582.525 990.803 568.152 999.332 555.349 1009.79C550.074 1014.09 544.564 1020.41 546.689 1026.88M834.929 945.026C838.999 942.455 843.069 939.883 847.139 937.311C848.384 936.524 849.812 935.244 849.289 933.867C848.831 932.662 847.243 932.455 845.954 932.444C842.235 932.413 838.106 932.535 835.42 935.107C832.783 937.631 832.555 942.254 834.929 945.026M593.613 1010.11C593.312 1010.44 593.005 1010.78 592.874 1011.2C592.308 1013.02 595.125 1013.99 596.931 1013.38C598.737 1012.78 600.777 1011.62 602.365 1012.66C604.655 1014.18 607.864 1011.04 607.026 1008.43C606.187 1005.82 602.868 1004.7 600.214 1005.39C597.561 1006.09 595.473 1008.09 593.613 1010.11H593.613Z" fill="#B0FFE7"/>
</g>
<defs>
<clipPath id="clip0_301_4900">
<rect width="1440" height="2335" fill="white"/>
</clipPath>
</defs>
</svg>
