<svg width="1073" height="586" viewBox="0 0 1073 586" fill="none" xmlns="http://www.w3.org/2000/svg">
<path fill-rule="evenodd" clip-rule="evenodd" d="M626.063 222.678C625.557 222.331 625.005 221.996 624.423 222.048C623.9 222.095 623.418 222.453 622.894 222.466C622.369 222.479 621.786 221.815 622.078 221.296C627.111 218.11 629.154 210.923 630.757 204.405C631.02 203.824 631.824 203.985 632.138 204.528C632.453 205.071 632.434 205.783 632.437 206.443C632.45 209.305 633.154 212.217 634.681 214.426C636.207 216.634 638.608 218.05 641 217.799C637.372 220.779 633.414 224.379 632.87 229.591C630.982 226.816 628.662 224.459 626.063 222.678H626.063Z" fill="#FFF9DC"/>
<path fill-rule="evenodd" clip-rule="evenodd" d="M1065.71 403.135C1065.85 404.311 1066.14 405.958 1065 406.284C1063.94 406.588 1063.26 405.223 1062.82 404.212C1061.62 401.492 1058.77 399.581 1055.8 399.502C1054.63 399.471 1054.43 397.613 1055.25 396.775C1056.08 395.938 1057.34 395.738 1058.38 395.2C1060.01 394.36 1061.09 392.691 1061.62 390.936C1062.15 389.181 1062.2 387.322 1062.25 385.49C1062.26 385.026 1062.79 384.708 1063.25 384.768C1063.71 384.828 1064.09 385.156 1064.39 385.508C1066.46 387.92 1066.2 391.854 1068.57 393.971C1069.67 394.955 1071.23 395.419 1072.08 396.626C1071.42 397.422 1070.24 397.464 1069.25 397.762C1067.01 398.43 1065.44 400.822 1065.71 403.135H1065.71Z" fill="#DFFFCB"/>
<path fill-rule="evenodd" clip-rule="evenodd" d="M283.576 7.95732C285.716 6.19631 287.161 3.61209 287.54 0.866666C287.683 -0.168243 289.351 -0.213759 289.982 0.61868C290.614 1.45112 290.528 2.59945 290.496 3.64369C290.454 5.00403 290.569 6.42624 291.262 7.59753C291.955 8.76882 293.36 9.60754 294.68 9.27342C295.199 9.14205 295.684 9.71956 295.646 10.2533C295.608 10.7871 295.219 11.229 294.806 11.5682C293.192 12.8909 290.775 13.4787 290.013 15.4211C289.745 16.1063 289.737 16.8619 289.599 17.5848C289.46 18.3076 289.134 19.0657 288.474 19.3924C287.815 19.7191 286.817 19.3171 286.815 18.5811C286.807 16.0168 285.527 13.4872 283.466 11.9612C282.87 11.5192 282.154 11.0734 282.022 10.3426C281.843 9.3588 282.804 8.59263 283.576 7.95732L283.576 7.95732Z" fill="#DFFFCB"/>
<path fill-rule="evenodd" clip-rule="evenodd" d="M347.086 561C349.704 562.965 352.907 564.14 356.175 564.336C356.92 564.38 356.868 565.503 356.574 566.189C355.734 568.149 354.894 570.109 354.054 572.069C354.524 572.753 355.017 573.546 354.833 574.355C354.65 575.164 353.357 575.6 353.001 574.851C351.623 571.951 348.145 570.22 345 570.868C345.158 569.759 345.769 568.776 346.225 567.753C347.163 565.651 347.467 563.27 347.086 561Z" fill="#FFF7CB"/>
<path fill-rule="evenodd" clip-rule="evenodd" d="M6.95845 285.814C5.85413 283.106 3.04457 281.184 0.120186 281.138C-0.679365 278.291 2.76075 275.94 3.0676 273C3.13128 272.39 3.05598 271.762 3.21294 271.169C3.36989 270.576 3.86745 269.999 4.4796 270.04C5.33212 272.118 6.86681 273.909 8.78919 275.07C9.28866 275.372 9.83209 275.648 10.1674 276.126C10.5026 276.603 10.5284 277.363 10.0486 277.695C7.57931 279.403 7.15595 282.818 6.95845 285.814Z" fill="#DFFFCB"/>
<path fill-rule="evenodd" clip-rule="evenodd" d="M740.327 570.668C740.73 570.472 741.199 570.412 741.639 570.499C741.984 573.485 744.235 576.163 747.117 577.016C745.826 579.615 745.106 582.497 745.021 585.398C744.732 585.631 744.316 585.378 744.038 585.132C741.826 583.176 739.614 581.22 737.402 579.263C739.54 576.99 740.634 573.773 740.327 570.668Z" fill="#DFFFCB"/>
<path fill-rule="evenodd" clip-rule="evenodd" d="M1035.65 544.622C1035.29 544.412 1034.89 544.209 1034.47 544.241C1034.09 544.269 1033.75 544.486 1033.37 544.493C1032.99 544.501 1032.57 544.1 1032.78 543.786C1036.41 541.86 1037.88 537.516 1039.04 533.576C1039.22 533.225 1039.8 533.322 1040.03 533.651C1040.26 533.979 1040.24 534.409 1040.24 534.808C1040.25 536.538 1040.76 538.298 1041.86 539.634C1042.96 540.969 1044.69 541.824 1046.41 541.672C1043.8 543.474 1040.95 545.65 1040.56 548.8C1039.2 547.123 1037.53 545.698 1035.65 544.622H1035.65Z" fill="#DFFFCB"/>
</svg>
