<svg width="1229" height="1100" viewBox="0 0 1229 1100" fill="none" xmlns="http://www.w3.org/2000/svg">
<path fill-rule="evenodd" clip-rule="evenodd" d="M859.594 641.549C860.22 641.522 860.879 641.531 861.344 641.896C861.761 642.224 861.966 642.802 862.404 643.101C862.842 643.399 863.713 643.137 863.759 642.521C861.296 636.965 863.637 629.536 865.973 622.936C866.08 622.282 865.306 621.983 864.731 622.287C864.156 622.592 863.769 623.227 863.392 623.805C861.758 626.31 859.509 628.48 856.961 629.582C854.413 630.684 851.573 630.611 849.687 629.079C851.075 633.684 852.392 639.014 849.899 643.887C853.074 642.486 856.379 641.689 859.594 641.549L859.594 641.549Z" fill="#FFF9DC"/>
<path fill-rule="evenodd" clip-rule="evenodd" d="M198.44 300.134C198.873 301.293 199.392 302.96 200.572 302.742C201.672 302.539 201.634 300.958 201.556 299.812C201.347 296.731 203.005 293.648 205.643 292.215C206.687 291.647 205.986 289.826 204.845 289.424C203.705 289.021 202.477 289.411 201.28 289.388C199.415 289.352 197.655 288.29 196.347 286.897C195.039 285.504 194.113 283.796 193.203 282.111C192.972 281.684 192.345 281.63 191.96 281.896C191.574 282.163 191.388 282.642 191.282 283.108C190.558 286.304 192.662 289.846 191.528 292.904C191.002 294.326 189.815 295.473 189.618 296.987C190.594 297.424 191.676 296.923 192.713 296.746C195.038 296.347 197.588 297.856 198.44 300.134L198.44 300.134Z" fill="#DFFFCB"/>
<path fill-rule="evenodd" clip-rule="evenodd" d="M983.136 425.437C982.319 422.718 982.558 419.657 983.793 417.039C984.259 416.052 982.87 415.098 981.862 415.483C980.854 415.868 980.275 416.923 979.711 417.857C978.975 419.074 978.071 420.26 976.819 420.908C975.566 421.556 973.898 421.522 972.968 420.506C972.602 420.106 971.863 420.347 971.593 420.836C971.323 421.326 971.401 421.926 971.56 422.451C972.179 424.497 973.897 426.337 973.442 428.46C973.281 429.209 972.859 429.876 972.567 430.587C972.274 431.297 972.121 432.141 972.496 432.79C972.87 433.438 973.945 433.632 974.364 432.987C975.825 430.741 978.345 429.221 980.959 429.011C981.716 428.95 982.576 428.951 983.103 428.382C983.812 427.617 983.431 426.417 983.136 425.437L983.136 425.437Z" fill="#DFFFCB"/>
<path fill-rule="evenodd" clip-rule="evenodd" d="M741.173 987.101C737.837 987.391 734.453 986.667 731.569 985.047C730.912 984.678 730.32 985.692 730.18 986.456C729.781 988.637 729.383 990.818 728.984 992.999C728.198 993.342 727.33 993.767 727.027 994.578C726.723 995.389 727.573 996.48 728.3 996.018C731.114 994.228 735.047 994.614 737.348 996.907C737.842 995.846 737.882 994.649 738.074 993.501C738.47 991.141 739.563 988.885 741.173 987.101Z" fill="#FFF7CB"/>
<path fill-rule="evenodd" clip-rule="evenodd" d="M1060.3 820.971C1062.77 819.199 1066.25 819.052 1068.75 820.614C1071.05 818.554 1069.46 814.604 1070.87 811.855C1071.16 811.284 1071.58 810.774 1071.78 810.168C1071.99 809.561 1071.89 808.782 1071.35 808.483C1069.45 809.839 1067.13 810.57 1064.84 810.536C1064.24 810.527 1063.63 810.472 1063.07 810.707C1062.52 810.943 1062.06 811.595 1062.28 812.149C1063.41 815.002 1061.83 818.232 1060.3 820.971Z" fill="#DFFFCB"/>
<path fill-rule="evenodd" clip-rule="evenodd" d="M276.48 669.049C276.248 668.655 275.885 668.346 275.461 668.181C273.476 670.613 270.047 671.73 267.118 670.899C266.74 673.889 265.717 676.813 264.144 679.406C264.257 679.769 264.754 679.775 265.129 679.711C268.115 679.207 271.101 678.702 274.087 678.197C273.562 675.03 274.458 671.606 276.48 669.049Z" fill="#DFFFCB"/>
<path fill-rule="evenodd" clip-rule="evenodd" d="M40.652 484.308C41.0801 484.324 41.5329 484.364 41.8707 484.622C42.1743 484.853 42.346 485.233 42.6621 485.447C42.9783 485.661 43.5624 485.54 43.5616 485.149C41.5772 481.47 42.7917 476.85 44.0458 472.758C44.0845 472.346 43.5375 472.114 43.1591 472.279C42.7807 472.443 42.5486 472.828 42.3205 473.177C41.3315 474.69 39.9029 475.957 38.2125 476.527C36.5221 477.096 34.5692 476.899 33.1933 475.821C34.3895 478.835 35.5751 482.308 34.1214 485.289C36.2268 484.562 38.4528 484.227 40.652 484.308L40.652 484.308Z" fill="#DFFFCB"/>
</svg>
