<svg width="107" height="107" viewBox="0 0 107 107" fill="none" xmlns="http://www.w3.org/2000/svg">
<path d="M57.2477 93.2426C57 93.146 56.6376 93.1053 56.6371 92.7655L55.2411 93.7224C55.2411 93.7224 55.2496 93.7307 55.2522 93.7346C55.347 93.8397 55.4367 93.9539 55.5083 94.0749C55.6263 94.2717 55.8164 94.4787 55.6178 94.714C55.4837 94.8739 55.2783 94.839 55.0922 94.7908C54.8287 94.7249 54.689 94.5542 54.6926 94.2825C54.6956 94.2125 54.7018 94.143 54.7139 94.078C53.124 95.1366 51.3548 95.822 49.5091 96.1065C49.5294 96.1776 49.5427 96.2507 49.5527 96.3232C49.5374 96.6398 49.1936 96.8783 48.834 96.8045C48.6455 96.7693 48.4857 96.6521 48.4932 96.4315C48.4968 96.3582 48.5134 96.2873 48.5404 96.215C47.3931 96.307 46.2232 96.2502 45.0563 96.0325C44.4583 95.9209 43.8713 95.7677 43.3047 95.578C43.1357 95.7986 42.8578 95.9183 42.5285 95.8804C42.4727 95.8734 42.3728 95.7236 42.3868 95.7027C42.4701 95.5803 42.5567 95.4586 42.6427 95.3402C40.2194 94.3938 38.1404 92.7551 36.6439 90.5727L25.5624 74.4128C25.3268 74.9909 24.9487 75.4853 24.5201 75.9434C24.5074 75.9578 24.486 75.9639 24.4615 75.9694L29.9374 83.9549C29.9921 83.77 30.126 83.6471 30.3402 83.6164C30.5856 83.5815 30.7319 83.861 30.6725 84.2333C30.6445 84.4197 30.5246 84.5755 30.3975 84.6258L35.1701 91.5856C36.1431 93.0046 37.32 94.1959 38.6335 95.1605C38.6685 95.1166 38.7089 95.0805 38.7638 95.0571C39.2317 94.8384 39.7129 94.6389 40.1975 94.457C40.5163 94.3349 40.8871 94.5284 41.0016 94.8524C41.0944 95.1119 40.9856 95.3168 40.7879 95.475C40.503 95.7043 40.145 95.8561 39.7763 95.9218C41.3102 96.8401 42.9876 97.4759 44.7233 97.7997C48.4741 98.4993 52.4878 97.7719 55.877 95.4517L57.9942 94.0006C57.7939 93.7043 57.6173 93.3889 57.2438 93.2453L57.2477 93.2426ZM32.4356 85.6718C32.3784 85.9066 32.2793 86.1134 32.0611 86.2375C31.9857 86.2806 31.8785 86.3144 31.805 86.294C31.6287 86.2476 31.6373 86.1113 31.7186 85.9819C31.906 85.6806 31.8123 85.2092 32.2742 85.0768C32.5193 85.2234 32.4878 85.4462 32.4383 85.6757L32.4356 85.6718ZM35.3505 90.2036C35.2487 90.1544 35.2466 90.0935 35.3486 90.0519C35.3743 90.0399 35.4266 90.0665 35.4522 90.0914C35.4693 90.1081 35.4575 90.153 35.4586 90.1834C35.4236 90.1904 35.3792 90.2123 35.3511 90.2004L35.3505 90.2036ZM38.0782 93.5572C38.0518 93.5187 38.0105 93.4874 38.0016 93.4454C37.982 93.3342 38.0361 93.2602 38.1509 93.2581C38.1781 93.2564 38.2056 93.3254 38.232 93.364C38.1797 93.4282 38.1306 93.493 38.0782 93.5572Z" fill="white"/>
<path d="M73.9798 83.0409L90.4045 71.7834C90.4077 71.7302 90.4233 71.6827 90.446 71.6331C90.5569 71.4352 90.7113 71.2387 90.9949 71.3051C91.0176 71.3093 91.0392 71.3201 91.0607 71.3308L91.5967 70.9634C93.2704 69.8162 94.6607 68.3674 95.722 66.6991C95.7183 66.6648 95.7211 66.6317 95.7396 66.6049C95.7795 66.535 95.8294 66.4838 95.8846 66.4402C96.8115 64.915 97.4639 63.2209 97.8015 61.4109C98.5332 57.4887 97.7009 53.5303 95.4613 50.2644L91.3127 44.2146C91.3127 44.2146 91.2873 44.2065 91.2756 44.1976C91.201 44.1467 91.1644 44.0726 91.1594 43.991L87.2144 38.238C86.9836 38.195 86.7672 38.0571 86.6374 37.8513C86.5751 37.7523 86.5897 37.6743 86.6808 37.6005C86.7007 37.584 86.7232 37.5714 86.7464 37.5555L82.2488 30.9967C82.2137 31.0406 82.1812 31.0884 82.1402 31.1278C82.0098 31.2682 81.826 31.3516 81.6464 31.2509C81.4216 31.1215 81.3582 30.8844 81.4057 30.6478C81.4393 30.4859 81.5842 30.3583 81.7558 30.286L70.9678 14.5541C68.7923 11.3775 65.5924 9.31113 62.1098 8.48998C62.1196 8.54561 62.114 8.61181 62.0834 8.70362C62.0219 8.76276 61.9024 8.89852 61.7585 9.00282C61.3852 9.27281 61.111 9.2822 61.0645 9.04486C61 8.72346 61.1822 8.52207 61.4175 8.36083C61.4252 8.35554 61.4323 8.35351 61.44 8.34822C60.2894 8.13359 59.1107 8.05158 57.9364 8.10826C57.9682 8.26215 57.9135 8.39317 57.7897 8.49786C57.6864 8.58283 57.5549 8.639 57.4251 8.68541C57.2521 8.74729 57.0722 8.77425 56.8911 8.66313C56.8463 8.50681 56.8514 8.35309 56.8767 8.19975C56.0473 8.3006 55.222 8.46947 54.41 8.71142C54.3596 8.8197 54.2652 8.89289 54.1124 8.86439C54.0832 8.85893 54.0629 8.84169 54.0348 8.82974C52.8667 9.21374 51.7317 9.74514 50.6538 10.4385C50.7462 11.2056 50.6409 11.9325 50.2424 12.608C50.2173 12.6706 50.1792 12.7307 50.1313 12.789C50.1025 12.8711 50.0587 12.9436 50.0031 13.0072C50.0007 13.0202 49.9989 13.03 49.9965 13.043L51.2729 12.1681C53.8953 10.3707 57.0279 9.60665 60.1811 9.97628C60.2578 9.94352 60.3393 9.92171 60.4286 9.91148C60.5937 9.89184 60.7138 9.95123 60.797 10.0643C60.8945 10.0825 60.99 10.0935 61.0842 10.1111C62.5924 10.3925 64.0142 10.92 65.2975 11.6671C65.4058 11.4654 65.5631 11.3434 65.8578 11.5127C66.0949 11.6477 66.1249 11.8114 65.9599 12.0832C67.3336 12.9952 68.5336 14.1707 69.494 15.5671L86.4454 40.287C86.5644 40.1175 86.8361 40.0135 87.0352 40.1179C87.2462 40.2313 87.4092 40.4029 87.3607 40.6629C87.3099 40.8451 87.1106 40.976 86.9193 40.9739L93.987 51.2806C95.9568 54.1533 96.6889 57.639 96.0452 61.09C95.4014 64.541 93.4618 67.5284 90.5887 69.4976L57.4033 92.2458C58.3471 92.0183 58.9032 92.4449 58.9102 93.381L73.6419 83.2839C73.6882 83.1076 73.8173 83.0106 73.9851 83.0486L73.9798 83.0409ZM94.1813 50.1669C94.2374 49.9924 94.4146 49.9078 94.6062 49.9267C94.7652 49.9395 94.825 50.0516 94.8237 50.2027C94.7789 50.4431 94.5339 50.6025 94.341 50.4825C94.2502 50.4286 94.1525 50.2489 94.1813 50.1669ZM94.5092 51.5462C94.3674 51.513 94.2696 51.4242 94.2553 51.2668C94.2738 51.0954 94.3929 51.0336 94.5408 51.0342C94.6887 51.0349 94.8153 51.0955 94.8684 51.2433C94.9269 51.3988 94.703 51.5891 94.5125 51.5468L94.5092 51.5462ZM96.8543 56.2475C96.8078 56.2085 96.7847 56.0798 96.8157 56.0217C96.8796 55.8957 97.0155 55.8706 97.123 55.9613C97.1695 56.0003 97.1587 56.1126 97.1713 56.1889C97.0827 56.3035 96.9651 56.3387 96.8576 56.2481L96.8543 56.2475ZM92.4991 68.3979C92.6978 68.4148 92.8591 68.5054 92.8575 68.7304C92.7988 68.9549 92.6584 69.0766 92.45 69.0579C92.2552 69.0384 92.0735 68.9305 92.0997 68.7C92.1228 68.4858 92.2874 68.3786 92.4991 68.3979ZM87.71 71.9298C87.8397 71.9741 87.9119 72.0918 87.8449 72.3248C87.809 72.4089 87.7381 72.5907 87.5075 72.5107C87.3714 72.4651 87.3016 72.3344 87.3374 72.1965C87.3837 72.0202 87.4853 71.8542 87.71 71.9298Z" fill="white"/>
<path d="M78.1371 35.6565L68.4965 21.2671C68.4502 21.2638 68.409 21.2498 68.3661 21.2296C68.195 21.1313 68.0255 20.9952 68.0858 20.7492C68.0897 20.7294 68.0993 20.7108 68.1088 20.6922L67.7942 20.2226C66.8118 18.7563 65.5643 17.5336 64.1228 16.5949C64.0929 16.5978 64.0641 16.5951 64.041 16.5788C63.9806 16.5434 63.9365 16.4995 63.8991 16.451C62.5809 15.6306 61.1131 15.0473 59.5416 14.7365C56.1363 14.0632 52.6848 14.7495 49.8227 16.6661L44.5209 20.2165C44.5209 20.2165 44.5136 20.2385 44.5058 20.2487C44.4608 20.3131 44.396 20.3442 44.3249 20.3477L39.2833 23.7239C39.2437 23.9242 39.1217 24.1111 38.9415 24.222C38.8547 24.2752 38.787 24.2618 38.7237 24.1819C38.7095 24.1644 38.6988 24.1447 38.6852 24.1244L32.9373 27.9735C32.9752 28.0044 33.0164 28.0331 33.0504 28.0691C33.1713 28.1839 33.2422 28.3445 33.1528 28.4997C33.0382 28.694 32.8313 28.7468 32.6259 28.7033C32.4854 28.6726 32.3757 28.5454 32.3145 28.3955L18.5277 37.6279C15.7439 39.4897 13.9164 42.2527 13.1696 45.2735C13.2181 45.2655 13.2756 45.271 13.3552 45.2984C13.4061 45.3525 13.5231 45.4577 13.6124 45.5838C13.8439 45.9109 13.8495 46.1494 13.6426 46.1877C13.3624 46.2407 13.1888 46.0804 13.0508 45.8743C13.0462 45.8675 13.0445 45.8613 13.04 45.8546C12.8426 46.8531 12.7602 47.8773 12.7986 48.899C12.9328 48.8728 13.0463 48.9216 13.1362 49.0303C13.2091 49.1209 13.2568 49.2358 13.2959 49.3491C13.3482 49.5001 13.3699 49.6568 13.2716 49.8132C13.1352 49.8507 13.0015 49.8448 12.8683 49.8214C12.9483 50.5436 13.0876 51.2628 13.2905 51.9712C13.3842 52.0161 13.447 52.0989 13.4208 52.2315C13.4158 52.2569 13.4006 52.2744 13.3899 52.2986C13.7131 53.3181 14.1648 54.3101 14.758 55.254C15.4262 55.1809 16.0576 55.2794 16.6416 55.6323C16.6958 55.6547 16.7477 55.6884 16.798 55.7306C16.8692 55.7564 16.9318 55.7952 16.9867 55.8441C16.9979 55.8463 17.0064 55.848 17.0177 55.8503L16.2685 54.7319C14.7292 52.4345 14.0937 49.7032 14.4446 46.9647C14.4168 46.8977 14.3986 46.8266 14.3906 46.7488C14.375 46.6051 14.4278 46.5012 14.5269 46.4299C14.5436 46.3453 14.5542 46.2624 14.5704 46.1806C14.8292 44.8718 15.3013 43.6403 15.9633 42.5314C15.7888 42.4354 15.6841 42.2975 15.8342 42.0428C15.9538 41.8379 16.0965 41.8133 16.3314 41.9594C17.1376 40.7735 18.1714 39.741 19.3952 38.9191L41.0587 24.412C40.9124 24.3069 40.8244 24.0697 40.9171 23.8975C41.0177 23.7151 41.1685 23.5749 41.3942 23.6196C41.5522 23.6655 41.6643 23.8401 41.6607 24.0064L50.6931 17.9579C53.2105 16.272 56.2498 15.6684 59.2461 16.2608C62.2424 16.8533 64.8232 18.5682 66.5096 21.0853L85.9906 50.1585C85.8016 49.3356 86.1778 48.856 86.9923 48.8588L78.3453 35.9526C78.1924 35.9107 78.1092 35.7975 78.1439 35.6519L78.1371 35.6565ZM49.7259 17.7783C49.5747 17.7279 49.5027 17.573 49.5209 17.4066C49.5336 17.2684 49.6316 17.2175 49.763 17.22C49.9718 17.2613 50.1082 17.4758 50.002 17.6424C49.9542 17.7209 49.7971 17.8041 49.7259 17.7783ZM50.929 17.5062C50.8988 17.6292 50.8206 17.7134 50.6835 17.7244C50.5346 17.7067 50.4819 17.6025 50.4839 17.4739C50.4858 17.3453 50.5397 17.2358 50.6688 17.191C50.8046 17.1416 50.9681 17.3381 50.9295 17.5034L50.929 17.5062ZM55.0408 15.5114C55.0064 15.5515 54.8942 15.5703 54.844 15.5428C54.735 15.4861 54.7144 15.3677 54.7943 15.275C54.8286 15.2349 54.9262 15.2454 54.9928 15.2352C55.0916 15.3133 55.1212 15.4159 55.0413 15.5085L55.0408 15.5114ZM65.5707 19.4136C65.5872 19.241 65.6676 19.1016 65.8633 19.1051C66.058 19.1582 66.1626 19.2815 66.1444 19.4626C66.1256 19.6318 66.0301 19.7887 65.8298 19.7638C65.6436 19.7416 65.5519 19.5975 65.5707 19.4136ZM68.5987 23.6116C68.6385 23.4993 68.7416 23.4376 68.9436 23.4981C69.0164 23.5301 69.1739 23.5934 69.1022 23.7932C69.0613 23.9112 68.9469 23.9706 68.8273 23.9382C68.6743 23.8962 68.5309 23.8063 68.5987 23.6116Z" fill="white"/>
<path d="M25.1955 73.8732L23.5852 71.525C23.4594 71.4242 23.3589 71.2776 23.3102 71.124L12.1627 54.8677C8.07493 48.9065 9.59946 40.7339 15.5615 36.6475L22.588 31.8315C22.4609 31.6834 22.3345 31.5321 22.2183 31.3793C22.1781 31.3247 22.1879 31.1819 22.2325 31.123C22.2733 31.0667 22.3923 31.0418 22.4715 31.0499C22.6072 31.0617 22.7427 31.1105 23.096 31.2C23.1155 31.2036 23.2104 31.218 23.3067 31.2426C23.3424 31.2493 23.3737 31.2619 23.4088 31.2718L24.2496 30.6956C24.1526 30.6203 24.0595 30.5424 23.9863 30.4481C23.8966 30.3338 23.8942 30.1484 24.0938 30.142C24.2157 30.1378 24.3404 30.1543 24.4613 30.1735L24.5843 29.5139C24.8736 29.5678 25.1237 29.4531 25.3771 29.3389C25.4358 29.3129 25.5113 29.2866 25.5769 29.2955C25.5956 29.2855 25.611 29.275 25.6297 29.265L25.6309 29.2585L25.6341 29.2591C25.9436 28.9167 26.359 28.9975 26.7459 28.9789L30.3787 26.489C30.4065 26.2857 30.5105 26.1067 30.7668 26.0133C30.8275 26.0481 30.8818 26.0818 30.9301 26.111L48.9822 13.7381C48.939 13.609 48.9068 13.4752 48.8894 13.3341C48.7325 13.0392 48.472 12.8493 48.2088 12.6556C48.0726 12.5562 47.9821 12.4284 47.9497 12.2777L43.0095 15.6637C43.0727 15.6318 43.1366 15.6135 43.1969 15.6146C43.4441 15.6237 43.6492 15.9848 43.6362 16.3792C43.6233 16.6828 43.3999 16.9067 43.108 16.9027C42.8298 16.8979 42.5456 16.6364 42.5508 16.3919C42.5563 16.1643 42.6848 15.926 42.8514 15.7721L39.9932 17.734C40.0101 17.7876 40.0085 17.868 40.0177 17.9269C39.9304 17.9442 39.8437 17.9583 39.7564 17.9756C39.7535 17.9549 39.7448 17.9297 39.7392 17.9052L33.4802 22.1951C33.3836 22.2982 33.2682 22.3943 33.1448 22.4789C33.0676 22.5318 32.9909 22.5645 32.9172 22.581L24.9883 28.0155C24.9883 28.0155 24.9859 28.0285 24.984 28.0383C24.9224 28.1882 24.8003 28.2662 24.6181 28.2693L15.5014 34.5178C15.6181 34.6674 15.6122 34.8613 15.5706 35.0486C15.5069 35.336 15.334 35.5593 15.0799 35.7136C15.0358 35.8601 14.9337 35.9386 14.7801 35.9503C14.7079 36.2832 14.4618 36.5029 14.2614 36.748C14.2179 36.8004 14.1109 36.7972 13.9791 36.8365C14.1155 36.5022 13.9122 36.1314 14.201 35.8456C14.239 35.6778 14.2732 35.5127 14.3112 35.3449C7.74423 40.0415 6.10648 49.1816 10.694 55.8715L19.2741 68.3838C19.3365 68.392 19.4047 68.4048 19.4854 68.4232C19.6662 68.4636 19.8391 68.5463 20.0157 68.6095C20.0642 68.6017 20.114 68.5875 20.1631 68.5765C20.2051 68.5675 20.2504 68.5591 20.29 68.5632C20.6232 68.5984 20.762 68.7555 20.6649 68.9694C20.6354 69.0378 20.6031 69.1024 20.5676 69.1664C20.4594 69.3682 20.3288 69.5456 20.1831 69.7134L24.0778 75.3931C24.193 74.7757 24.6772 74.1094 25.1993 73.8705L25.1955 73.8732ZM28.0594 27.0584C28.1085 27.1012 28.1022 27.2076 28.1207 27.2884C28.0558 27.3839 27.9723 27.3986 27.9056 27.3055C27.8607 27.2399 27.8543 27.1479 27.8319 27.0698C27.9103 27.0642 28.0154 27.0233 28.0594 27.0584ZM11.6834 38.4696C11.7686 38.1391 12.1619 37.8695 12.3978 37.9572C12.6585 38.0563 12.8587 38.6417 12.7268 38.9164C12.6049 39.1728 12.1144 39.3503 11.8927 39.2047C11.6205 39.0228 11.6117 38.7454 11.684 38.4663L11.6834 38.4696ZM9.48854 45.1149C9.35732 45.0972 9.20675 45.0388 9.25028 44.8956C9.27822 44.7999 9.43066 44.704 9.54255 44.6811C9.67576 44.6522 9.79326 44.7615 9.77899 44.9102C9.7635 45.0653 9.64169 45.1233 9.48854 45.1149ZM10.6159 41.1993C10.4364 41.1154 10.3534 40.9654 10.3831 40.7523C10.4817 40.458 10.8732 40.1981 11.1179 40.311C11.3814 40.4308 11.3348 40.681 11.2616 40.8927C11.1585 41.1929 10.8723 41.3211 10.6159 41.1993Z" fill="white"/>
<path d="M23.6987 39.995C24.0617 40.2309 24.5361 40.3563 24.8485 40.6466L24.1211 39.9662C24.0803 39.9687 24.0369 39.9673 24.0029 39.9509C23.9312 39.9207 23.8509 39.8284 23.8409 39.7559C23.838 39.7352 23.8378 39.7183 23.8382 39.6982L23.7607 39.6266L23.1899 40.0178L23.3619 40.1777C23.3619 40.1777 23.3638 40.1679 23.3644 40.1647C23.418 40.0032 23.6058 39.934 23.6987 39.995Z" fill="white"/>
<path d="M38.6533 30.3802C38.6533 30.3802 38.6539 30.3768 38.658 30.374C38.658 30.374 38.6573 30.3774 38.6533 30.3802Z" fill="white"/>
<path d="M38.759 30.2819C38.9553 30.1672 39.112 30.1023 39.2408 30.0793L38.99 29.6928L38.4395 30.0475L38.6539 30.3766C38.6539 30.3766 38.6571 30.3773 38.661 30.3746C38.6936 30.3437 38.7216 30.3019 38.7596 30.2787L38.759 30.2819Z" fill="white"/>
<path d="M30.0675 65.9545C30.0618 65.945 30.0561 65.9354 30.0504 65.9259L26.5563 68.8426L26.9393 69.5245L30.4708 66.5748C30.3527 66.4786 30.2322 66.2826 30.0675 65.9545Z" fill="white"/>
<path d="M33.7143 76.7981C33.7174 76.763 33.7168 76.7304 33.7262 76.6965L33.4294 76.2405C32.7122 76.7071 32.1295 76.5755 31.7658 76.023C31.2933 75.3017 31.5579 74.6297 32.5628 73.972L32.8647 73.7738C33.8696 73.1161 34.5913 73.1432 35.0639 73.8646C35.4198 74.4059 35.2939 74.9928 34.5724 75.4651L34.9252 76.0059C35.9778 75.3179 36.1013 74.3868 35.5502 73.5441C34.8491 72.4732 33.7825 72.3803 32.3507 73.3173C30.9188 74.2543 30.5758 75.2688 31.2769 76.3398C31.8177 77.1676 32.6754 77.4464 33.7149 76.7949L33.7143 76.7981Z" fill="white"/>
<path d="M47.6805 29.7673C47.3558 29.6327 47.1344 29.4132 47.0322 29.0781C47.0098 29.0537 46.9868 29.0326 46.9645 29.0083L47.0304 30.2412L47.1846 30.4785L50.0572 28.6201L49.7336 28.1193L48.2764 29.0613C48.2921 29.1214 48.3039 29.1842 48.3092 29.2457C48.3414 29.7763 48.1271 29.9515 47.6838 29.7679L47.6805 29.7673Z" fill="white"/>
<path d="M49.5639 23.4035L49.4241 23.3774L49.2862 23.3416C49.2797 23.3404 49.2764 23.3398 49.2699 23.3386L49.6862 24.4788C49.6862 24.4788 49.6977 24.4709 49.7054 24.4656C49.9401 24.3614 50.1654 24.3799 50.3826 24.4776L50.0134 23.4638C49.8627 23.4424 49.7152 23.4216 49.5639 23.4035Z" fill="white"/>
<path d="M23.6608 65.3679C24.1506 66.2714 24.8975 66.7408 25.9454 66.1731C26.9533 65.6294 26.6354 64.6172 26.4991 63.778C26.3028 63.7907 26.1001 63.7283 25.9173 63.5822C25.7853 63.4772 25.7941 63.3186 25.8953 63.2064C26.07 63.0124 26.2771 62.9263 26.5059 62.9289C26.5614 62.7801 26.6618 62.6533 26.8273 62.562C27.2768 62.3197 27.6822 62.5832 27.9485 63.0727C28.2016 63.5411 28.1306 64.0457 27.6576 64.3038L27.556 64.3602L27.8899 64.9799L27.9704 64.9368C28.9024 64.4311 28.9306 63.5736 28.4918 62.7623C28.0479 61.9464 27.2946 61.4944 26.4382 61.9573C24.7515 62.8695 26.6804 64.9675 25.4999 65.6053C24.996 65.8772 24.5329 65.6727 24.1936 65.0435C23.9055 64.5113 23.9673 63.9706 24.5374 63.6613C24.5801 63.6396 24.6774 63.5932 24.6845 63.5904L24.3506 62.9706C24.3317 62.9813 24.2579 63.0119 24.2106 63.0387C23.1816 63.5957 23.2005 64.5188 23.6608 65.3679Z" fill="white"/>
<path d="M28.2357 72.2126L28.6365 72.7146L32.158 70.044L33.0061 71.1103L33.4715 70.7581L31.3742 68.1266L30.9088 68.4788L31.7572 69.542L28.2357 72.2126Z" fill="white"/>
<path d="M38.8562 82.8228L37.0972 84.2455L37.4604 84.6955L39.9556 82.6776C40.116 82.5498 40.4579 82.2338 40.4579 82.2338L40.4766 82.2451C40.4766 82.2451 40.2422 82.6904 40.1553 82.922L38.8481 86.4057L39.1846 86.8209L43.1003 83.6542L42.7371 83.2042L40.2769 85.1922C40.1513 85.2933 39.7719 85.6292 39.7719 85.6292L39.7532 85.618C39.7532 85.618 40.0051 85.1576 40.0832 84.9547L41.3676 81.5118L41.0162 81.079L39.2085 82.5403C39.1776 82.724 39.0453 82.8279 38.8594 82.8231L38.8562 82.8228Z" fill="white"/>
<path d="M34.5987 76.8346L34.1972 77.328L34.6238 77.9624L35.1508 77.3008C35.14 77.2685 35.133 77.2336 35.13 77.196C34.9081 77.1412 34.7277 77.0268 34.5987 76.8346Z" fill="white"/>
<path d="M47.0182 88.2372L47.7265 88.2449L48.0972 87.0867C47.8861 87.0104 47.6894 86.893 47.5192 86.7234L47.0182 88.2372Z" fill="white"/>
<path d="M49.7463 82.7538L48.837 82.7422L47.7999 85.8677C47.8726 86.0729 47.9332 86.2893 47.9744 86.5189C48.3502 86.5958 48.7254 86.6759 49.1045 86.7533C49.2296 86.6959 49.3572 86.6424 49.4797 86.5812C49.6898 86.4825 49.906 86.3513 50.0807 86.6227C50.1826 86.7796 50.1799 86.9203 50.0998 87.0432L50.3047 87.0444L50.6664 88.2788L51.4317 88.287L49.7469 82.7506L49.7463 82.7538ZM48.3169 86.3777L49.1022 83.935C49.1621 83.7579 49.2395 83.3251 49.2395 83.3251L49.2732 83.3246C49.2732 83.3246 49.3417 83.751 49.3947 83.9358L50.1128 86.3966L48.3207 86.3751L48.3169 86.3777Z" fill="white"/>
<path d="M52.5432 82.2031L51.8703 82.4206L52.0838 83.0791C52.0838 83.0791 52.0903 83.0803 52.0935 83.0809C52.1713 83.0786 52.2971 83.1256 52.3225 83.1876C52.4021 83.3739 52.367 83.5624 52.2973 83.7377L52.8426 85.4299C53.1027 85.5322 53.2945 85.8202 53.2446 86.0698C53.2179 86.159 53.172 86.2244 53.1176 86.2815L53.5528 87.627C53.752 87.4423 53.9322 87.2338 54.0938 86.9983L52.5458 82.207L52.5432 82.2031Z" fill="white"/>
<path d="M57.6417 80.9248C57.1491 80.194 56.3708 79.9849 55.5031 80.5258C55.5023 80.7644 55.5539 80.9927 55.6197 81.2168L55.7585 81.1216C56.2586 80.7845 56.7216 80.8809 57.0271 81.3347C57.3326 81.7885 57.2277 82.2969 56.759 82.6096L55.5248 83.4386L54.9243 82.5464C54.8512 82.5059 54.7798 82.4556 54.713 82.3994C54.4873 82.2026 54.4338 81.9304 54.3822 81.6484C54.3599 81.5332 54.3513 81.4173 54.34 81.2975L53.575 81.8105L56.6494 86.3889L57.2376 85.9942L55.8793 83.9721L57.1058 83.1484L59.3134 84.6026L59.9672 84.163L57.6156 82.6517C58.0115 82.1337 58.0168 81.4924 57.6352 80.9236L57.6417 80.9248Z" fill="white"/>
<path d="M60.5433 81.0389L61.5892 80.3362C62.4385 79.7683 62.5889 78.8716 62.0472 78.0611C61.5129 77.2653 60.6838 77.04 59.7806 77.645L58.1464 78.7423L60.623 82.4324C60.78 82.3844 60.9417 82.4011 61.1171 82.5246C61.3435 82.6812 61.4623 82.8916 61.4857 83.1448L61.8084 82.9293L60.5394 81.0415L60.5433 81.0389ZM59.0957 78.8824L60.1223 78.1929C60.6225 77.8558 61.1039 77.9793 61.4353 78.4748C61.7666 78.9704 61.6808 79.5025 61.2121 79.8153L60.1855 80.5047L59.0957 78.8824Z" fill="white"/>
<path d="M64.0265 74.6808C62.904 75.4331 62.747 76.6715 63.8162 78.2598C64.8823 79.8474 66.0894 80.1734 67.2119 79.4211C68.3343 78.6688 68.4913 77.4304 67.4221 75.8422C66.3561 74.2545 65.1489 73.9285 64.0297 74.6814L64.0265 74.6808ZM66.8456 78.8787C66.1114 79.3705 65.2886 79.1296 64.5413 78.015L64.3178 77.6808C63.5705 76.5662 63.6554 75.7145 64.3901 75.2194C65.1243 74.7276 65.9471 74.9685 66.6944 76.083L66.9179 76.4173C67.6652 77.5318 67.5803 78.3835 66.8456 78.8787Z" fill="white"/>
<path d="M38.8674 77.7925C38.0898 76.7813 36.9134 76.7091 35.4824 77.8132C34.0519 78.9141 33.8186 80.071 34.5962 81.0821C35.3738 82.0933 36.5503 82.1655 37.9812 81.0614C39.4117 79.9605 39.645 78.8036 38.8671 77.7956L38.8674 77.7925ZM35.0849 80.704C34.5765 80.0426 34.7531 79.253 35.7574 78.4811L36.0587 78.2501C37.063 77.4782 37.8707 77.5061 38.3822 78.1679C38.8906 78.8293 38.714 79.6189 37.7097 80.3908L37.4084 80.6217C36.4041 81.3936 35.5964 81.3657 35.0849 80.704Z" fill="white"/>
<path d="M71.352 71.7233C70.8468 70.9699 70.0336 70.7678 69.1303 71.3727L67.2885 72.6096L70.3629 77.1879L70.9511 76.7933L69.5928 74.7712L70.8194 73.9475L73.0269 75.4017L73.6807 74.9621L71.3291 73.4507C71.7251 72.9328 71.731 72.2883 71.3488 71.7227L71.352 71.7233ZM70.4693 73.408L69.235 74.237L68.2345 72.749L69.4688 71.9201C69.9689 71.583 70.4319 71.6794 70.7374 72.1332C71.0429 72.587 70.9348 73.0947 70.4693 73.408Z" fill="white"/>
<path d="M75.9654 72.8294C76.0073 72.8574 76.0941 72.8971 76.181 72.9537L73.6172 69.1363L74.8669 68.2968L74.5091 67.7626L71.4253 69.8337L71.7831 70.3679L73.0322 69.5316L75.3561 72.9948C75.3561 72.9948 75.3617 72.9824 75.3668 72.9733C75.4871 72.7973 75.6646 72.7833 75.9654 72.8294Z" fill="white"/>
<path d="M40.9891 49.4108L39.9555 49.218L39.8803 49.621L40.9139 49.8138L40.9891 49.4108Z" fill="white"/>
<path d="M44.9504 55.0761C44.9504 55.0761 44.9701 55.0966 44.9819 55.1056C45.1273 54.867 45.315 54.744 45.5588 54.7895C45.8968 54.8525 46.0125 55.17 46.0069 55.633C46.0648 55.6472 46.1188 55.664 46.1767 55.6782L46.2037 55.6597C46.2395 55.4679 46.2817 55.2774 46.3208 55.0863C46.3247 54.9929 46.3254 54.8989 46.3294 54.8055C46.3233 54.7841 46.3139 54.7622 46.3078 54.7409C46.1557 54.5108 45.9291 54.3912 45.6431 54.3378C45.1718 54.2499 44.7864 54.3865 44.4878 54.9596C44.6439 54.8979 44.803 54.9646 44.953 55.08L44.9504 55.0761Z" fill="white"/>
<path d="M54.5932 60.4494C54.6807 60.449 54.7757 60.4263 54.8558 60.448C54.9098 60.4648 54.9574 60.4804 55.0043 60.4992L55.0934 60.0216L54.1248 59.8409C54.2824 60.0418 54.4362 60.2453 54.5938 60.4462L54.5932 60.4494Z" fill="white"/>
<path d="M55.0473 56.428C55.1806 56.4529 55.3183 56.4718 55.4522 56.4934C55.2913 56.2381 55.011 56.0816 54.6763 56.0192C54.8127 56.1354 54.9223 56.287 55.0447 56.4242C55.0447 56.4242 55.0479 56.4248 55.0512 56.4254L55.0473 56.428Z" fill="white"/>
<path d="M53.0055 59.7833C52.9508 59.7159 52.9059 59.6504 52.8686 59.5796C52.7952 59.7206 52.7401 59.8717 52.7104 60.0309L52.6953 60.1122L53.1601 60.1989C53.1601 60.1989 53.1619 60.1891 53.1599 60.182C53.1108 60.0484 53.0578 59.9175 53.0088 59.7839L53.0055 59.7833Z" fill="white"/>
<path d="M62.8358 62.0777C62.8302 61.9994 62.8324 61.9157 62.8402 61.8196C62.8477 61.7437 62.8506 61.6736 62.8536 61.6036C62.611 61.4978 62.5153 61.2176 62.5547 60.808C62.4366 60.7019 62.2817 60.6125 62.0824 60.5451C62.0759 60.5439 62.0739 60.5367 62.068 60.5323C61.932 61.2971 62.127 61.9287 62.8326 62.0771L62.8358 62.0777Z" fill="white"/>
<path d="M20.9187 52.5804L21.7139 52.6799C21.7454 52.6857 21.7641 52.6729 21.7729 52.6258L23.1391 45.2146L22.2327 45.013C22.3148 44.5726 22.4029 44.1007 22.4978 43.679C23.3786 43.8433 24.6055 44.0721 25.5177 44.2423C26.3933 46.1797 27.796 49.5664 28.7427 51.9077L28.8371 51.9253C29.1401 50.1264 29.4834 48.2861 29.808 46.4587L28.6657 46.213C28.7449 45.7883 28.8546 45.288 28.9466 44.8819C29.56 44.9964 30.2992 45.1343 30.9913 45.2634C31.5418 45.3661 32.1896 45.4706 32.6615 45.5587C32.5822 45.9833 32.4942 46.4552 32.3963 46.8927L31.6955 46.8108C31.664 46.8049 31.6296 46.8147 31.6179 46.8777L29.9471 55.4852C29.5904 55.5652 28.7746 55.5758 27.9725 55.4261C27.1662 53.9899 25.83 51.3806 24.5259 48.3379L24.4128 48.3331C24.1135 49.9374 23.8132 51.4601 23.507 53.0144L24.6651 53.2629C24.5829 53.7033 24.492 54.1909 24.397 54.6127C23.7364 54.4894 22.8871 54.331 22.1478 54.1931C21.6288 54.0963 21.091 54.0122 20.6506 53.9301C20.7328 53.4897 20.8208 53.0178 20.9187 52.5804ZM34.1082 55.0408L35.1865 55.1931C35.218 55.199 35.2396 55.1704 35.2455 55.139L36.6186 47.778C36.0209 47.6665 35.7447 47.6638 35.5187 47.6541C35.2896 47.6603 35.2219 47.7616 35.1611 47.913L34.5963 49.3701C34.0517 49.236 33.4471 49.0743 32.9555 48.9175C33.2179 47.8597 33.4804 46.8019 33.7556 45.7628C34.0859 45.8244 34.6807 45.9516 35.2312 46.0543C35.6401 46.1306 37.732 46.5208 38.314 46.6294C38.8016 46.7203 40.8306 47.0988 41.2552 47.178C41.8873 47.2797 42.4378 47.3824 42.7524 47.4411C42.6187 48.5066 42.4821 49.5879 42.317 50.6476C41.7862 50.6137 41.1797 50.5494 40.6047 50.4909L40.6347 48.934C40.6355 48.7551 40.5873 48.6648 40.3916 48.5794C40.1959 48.4941 40.0131 48.4274 39.321 48.2983L37.8948 55.682L39.0155 55.9562C38.9363 56.3809 38.8483 56.8527 38.7475 57.3059C38.0869 57.1827 37.1461 56.9909 36.3125 56.8354C35.5575 56.6946 34.6266 56.5372 33.8401 56.3905C33.9252 55.9344 34.026 55.4812 34.1082 55.0408ZM42.58 56.6211L43.391 56.7236C43.4411 56.7166 43.4598 56.7038 43.4686 56.6567L44.8447 49.2799L43.9884 49.0714C44.0676 48.6467 44.1586 48.1591 44.2535 47.7373C44.8827 47.8547 45.8107 48.0278 46.5184 48.1599C47.2734 48.3007 48.1542 48.465 48.7676 48.5794C48.6884 49.0041 48.5975 49.4917 48.5025 49.9134L47.5815 49.7904C47.5657 49.7875 47.5628 49.8032 47.5511 49.8661L47.0219 52.6157C47.016 52.6472 47.0288 52.6659 47.0445 52.6688L50.2502 53.2831L50.8058 50.3919L49.8552 50.1658C49.9373 49.7254 50.0254 49.2535 50.1203 48.8318C50.7652 48.9521 51.6775 49.1222 52.4796 49.2719C53.1559 49.398 53.9896 49.5535 54.603 49.668C54.5267 50.0769 54.4299 50.596 54.3379 51.002L53.5584 50.9054C53.5269 50.8995 53.5082 50.9123 53.4994 50.9595L52.0762 58.3274L52.9295 58.5517C52.8503 58.9764 52.7436 59.4611 52.6457 59.8985C52.0323 59.7841 51.1544 59.6041 50.5096 59.4838C49.6759 59.3283 48.7765 59.1768 48.0687 59.0447C48.1508 58.6043 48.2418 58.1167 48.3367 57.695L49.3522 57.8356C49.3836 57.8414 49.418 57.8316 49.4268 57.7844L49.9686 54.793C49.9744 54.7616 49.9646 54.7272 49.9331 54.7213L46.7186 54.1542L46.1307 57.2184L47.0942 57.4632C47.0149 57.8879 46.9427 58.3627 46.8418 58.8159C46.2127 58.6985 45.3034 58.5126 44.5327 58.3688C43.8563 58.2427 42.9883 58.097 42.3277 57.9738C42.4099 57.5334 42.4979 57.0615 42.58 56.6211ZM59.1574 51.9336L58.2241 56.6748C58.0011 57.8702 58.1058 58.4431 58.3884 58.9353C58.6384 59.34 59.018 59.5736 59.5528 59.6733C60.1347 59.7819 60.5248 59.6105 60.8508 59.3458C61.2889 59.0043 61.6262 58.1558 61.8199 57.1177C62.0575 55.8437 62.4155 53.9248 62.6246 52.6292C62.6305 52.5977 62.602 52.5761 62.5705 52.5703L61.4783 52.3177C61.5575 51.893 61.6613 51.4241 61.7405 50.9994C62.3224 51.108 63.1403 51.2605 63.8324 51.3896C64.493 51.5129 65.1379 51.6332 65.7041 51.7388C65.6249 52.1635 65.5398 52.6196 65.4419 53.0571L64.6939 52.9664L63.8457 57.2515C63.4936 59.1389 62.7073 60.213 62.0011 60.6834C61.3047 61.1883 60.4331 61.4977 58.9704 61.2248C57.5863 60.9666 56.661 60.5173 56.0066 59.6628C55.2626 58.6777 55.2771 57.3783 55.4942 56.2144L56.3745 51.4958C56.3833 51.4486 56.3763 51.3985 56.3134 51.3868L55.6272 51.2262C55.7094 50.7858 55.7945 50.3297 55.8894 49.9079C56.5028 50.0224 57.3836 50.1867 58.06 50.3128C58.8936 50.4683 59.7901 50.6356 60.4979 50.7676C60.4216 51.1766 60.3307 51.6642 60.2328 52.1016L59.1574 51.9336ZM67.1476 61.204L68.226 61.3563C68.2574 61.3622 68.279 61.3337 68.2849 61.3022L69.658 53.9412C69.0603 53.8297 68.7842 53.827 68.5581 53.8174C68.3291 53.8235 68.2614 53.9248 68.2006 54.0762L67.6358 55.5334C67.0911 55.3992 66.4865 55.2376 65.9949 55.0808C66.2574 54.023 66.5198 52.9652 66.795 51.926C67.1253 51.9876 67.7201 52.1149 68.2706 52.2176C68.6795 52.2938 70.7715 52.6841 71.3534 52.7926C71.841 52.8836 73.87 53.2621 74.2947 53.3413C74.9268 53.4429 75.4773 53.5456 75.7918 53.6043C75.6582 54.6699 75.5216 55.7512 75.3564 56.8108C74.8257 56.7769 74.2192 56.7126 73.6441 56.6542L73.6741 55.0973C73.675 54.9184 73.6267 54.828 73.431 54.7427C73.2354 54.6574 73.0525 54.5907 72.3604 54.4616L70.9342 61.8453L72.055 62.1194C71.9757 62.5441 71.8877 63.016 71.7869 63.4692C71.1263 63.3459 70.1855 63.1542 69.3519 62.9987C68.5969 62.8578 67.666 62.7005 66.8796 62.5538C66.9646 62.0976 67.0655 61.6444 67.1476 61.204ZM77.2285 60.9849L77.3784 62.6242C77.3853 62.6743 77.4021 62.7589 77.4464 62.7834C77.6914 63.0407 78.0355 63.2025 78.4287 63.2759C78.8062 63.3463 79.28 63.337 79.5884 63.1667C79.8596 63.022 80.0539 62.7652 80.1244 62.3878C80.2711 61.6013 79.9072 61.3707 78.7654 60.6857C77.2883 59.7917 76.2405 58.6034 76.528 57.0619C76.7099 56.0868 77.3186 55.354 78.0347 54.9179C78.8442 54.4178 80.0628 54.2545 81.5727 54.5362C82.4693 54.7035 83.2794 54.9848 83.6118 55.2096C83.5272 56.1866 83.4269 57.1607 83.3108 58.1319C82.8086 58.1196 82.2149 58.074 81.6526 58.0342L81.5637 56.5039C81.5568 56.4538 81.5469 56.4194 81.5214 56.3821C81.362 56.1896 81.0807 56.0395 80.7819 55.9837C80.4044 55.9133 80.0722 55.949 79.7853 56.0908C79.5515 56.2099 79.2756 56.4677 79.1934 56.9081C79.0467 57.6946 79.3634 57.9164 80.7166 58.6896C82.3509 59.613 83.0861 60.6453 82.8074 62.1396C82.6225 63.1305 82.0405 63.9822 81.174 64.439C80.3075 64.8959 79.2137 65.0011 77.688 64.7165C77.0274 64.5932 75.9253 64.3063 75.3245 63.9501C75.3835 62.9357 75.4553 61.94 75.5242 60.96C76.048 60.9438 76.682 60.9481 77.2285 60.9849Z" fill="white"/>
</svg>
