<svg width="210" height="210" viewBox="0 0 210 210" fill="none" xmlns="http://www.w3.org/2000/svg">
<path d="M137.184 130.742C136.93 130.878 136.641 131.148 136.36 130.91L136.169 132.729C136.169 132.729 136.182 132.728 136.187 132.728C136.341 132.724 136.498 132.73 136.648 132.756C136.894 132.797 137.199 132.786 137.254 133.114C137.292 133.336 137.118 133.481 136.948 133.6C136.708 133.77 136.468 133.766 136.246 133.572C136.191 133.521 136.138 133.467 136.092 133.412C135.849 135.461 135.172 137.397 134.109 139.114C134.182 139.147 134.251 139.187 134.318 139.23C134.569 139.464 134.525 139.914 134.211 140.158C134.049 140.289 133.84 140.338 133.663 140.177C133.605 140.123 133.558 140.06 133.517 139.987C132.786 140.995 131.917 141.917 130.916 142.725C130.403 143.138 129.864 143.514 129.308 143.847C129.372 144.141 129.275 144.453 129.013 144.697C128.967 144.738 128.773 144.715 128.766 144.689C128.724 144.535 128.684 144.378 128.646 144.225C126.16 145.555 123.343 146.117 120.487 145.818L99.3368 143.609C99.6489 144.208 99.7916 144.866 99.8689 145.539C99.8719 145.56 99.8619 145.582 99.8492 145.606L110.301 146.697C110.186 146.523 110.179 146.326 110.304 146.129C110.448 145.903 110.782 145.978 111.048 146.288C111.182 146.441 111.227 146.649 111.179 146.789L120.288 147.74C122.145 147.934 123.957 147.801 125.678 147.397C125.667 147.337 125.665 147.278 125.684 147.217C125.833 146.679 126.006 146.143 126.197 145.617C126.32 145.269 126.741 145.1 127.089 145.233C127.369 145.338 127.462 145.571 127.453 145.845C127.443 146.24 127.316 146.641 127.111 146.99C128.949 146.372 130.654 145.438 132.142 144.237C135.359 141.642 137.58 137.831 138.046 133.417L138.335 130.659C137.95 130.616 137.565 130.541 137.183 130.747L137.184 130.742ZM113.477 145.846C113.63 146.057 113.732 146.284 113.681 146.55C113.663 146.642 113.616 146.754 113.547 146.8C113.385 146.913 113.279 146.81 113.229 146.653C113.111 146.287 112.656 146.034 112.871 145.561C113.165 145.462 113.327 145.644 113.482 145.846L113.477 145.846ZM119.272 146.623C119.16 146.673 119.108 146.632 119.146 146.519C119.154 146.489 119.213 146.465 119.251 146.461C119.277 146.459 119.306 146.5 119.332 146.52C119.313 146.554 119.3 146.606 119.27 146.621L119.272 146.623ZM123.963 146.73C123.912 146.725 123.857 146.737 123.816 146.715C123.711 146.653 123.688 146.556 123.766 146.46C123.784 146.437 123.861 146.463 123.911 146.468C123.927 146.556 123.946 146.642 123.963 146.73Z" fill="white" stroke="white" stroke-width="0.903345"/>
<path d="M140.588 109.833L142.832 88.4586C142.79 88.4187 142.762 88.3726 142.737 88.3193C142.652 88.0896 142.598 87.8253 142.852 87.6387C142.871 87.623 142.895 87.6128 142.919 87.6026L142.993 86.905C143.221 84.7269 143.002 82.5705 142.37 80.5309C142.339 80.5099 142.314 80.4844 142.305 80.4505C142.275 80.3687 142.268 80.2919 142.271 80.216C141.662 78.3869 140.722 76.6652 139.465 75.1209C136.74 71.7745 132.887 69.6878 128.617 69.242L120.707 68.4163C120.707 68.4163 120.682 68.4315 120.667 68.4349C120.572 68.4606 120.485 68.4388 120.415 68.3858L112.893 67.6006C112.695 67.76 112.429 67.8414 112.168 67.804C112.042 67.7858 111.988 67.7193 111.991 67.5927C111.992 67.5649 111.997 67.5375 112 67.5074L103.425 66.6122C103.436 66.6718 103.453 66.7319 103.457 66.7931C103.481 66.9986 103.421 67.208 103.211 67.285C102.947 67.3792 102.706 67.2653 102.544 67.0606C102.434 66.9198 102.431 66.7114 102.492 66.5199L81.9225 64.3726C77.7711 63.9367 73.8168 65.1196 70.6919 67.4064C70.7447 67.4372 70.7954 67.4882 70.8498 67.5776C70.8554 67.6695 70.8835 67.8627 70.8686 68.0539C70.8292 68.5496 70.6443 68.7814 70.4157 68.6536C70.105 68.4816 70.0667 68.1909 70.0989 67.8848C70.0999 67.8748 70.1032 67.8675 70.1043 67.8575C69.1187 68.6526 68.2228 69.5637 67.4446 70.5682C67.594 70.6498 67.6638 70.7864 67.6632 70.9614C67.6608 71.1058 67.6148 71.2532 67.5619 71.3923C67.4915 71.5777 67.3873 71.7444 67.1683 71.8154C67.0078 71.7429 66.8845 71.631 66.7756 71.503C66.2761 72.255 65.8358 73.0513 65.4651 73.8878C65.519 74.0051 65.5131 74.1338 65.3823 74.2394C65.3572 74.2596 65.3287 74.2642 65.2991 74.2789C64.7955 75.5074 64.4368 76.812 64.2521 78.1829C64.9503 78.6439 65.4765 79.2392 65.7543 80.0394C65.7884 80.1039 65.8112 80.1773 65.8257 80.2574C65.8733 80.3385 65.9024 80.4253 65.9159 80.5155C65.9249 80.5265 65.9317 80.5349 65.9407 80.546L66.1151 78.8848C66.4735 75.4721 68.0435 72.3634 70.5641 70.0313C70.5909 69.9454 70.6301 69.8632 70.6845 69.7826C70.7843 69.6332 70.9177 69.5761 71.0694 69.5869C71.153 69.5195 71.2292 69.4488 71.3099 69.3837C72.6018 68.3414 74.0364 67.5424 75.5549 67.0109C75.4644 66.7807 75.4742 66.5661 75.821 66.4425C76.0991 66.3422 76.2554 66.432 76.3638 66.7579C78.082 66.2676 79.8957 66.1043 81.7235 66.2926L114.044 69.6665C113.988 69.4501 114.093 69.1541 114.319 69.0636C114.561 68.9696 114.817 68.9557 114.998 69.1775C115.112 69.3468 115.08 69.6022 114.944 69.758L128.42 71.1647C132.176 71.5568 135.569 73.395 137.966 76.3394C140.363 79.2838 141.467 82.9684 141.074 86.7073L136.542 129.896C137.017 128.961 137.76 128.803 138.538 129.452L140.551 110.281C140.438 110.119 140.448 109.945 140.598 109.834L140.588 109.833ZM127.637 70.2255C127.532 70.0573 127.587 69.8525 127.737 69.7083C127.86 69.5866 127.994 69.6159 128.118 69.7227C128.285 69.9278 128.244 70.2407 128.01 70.3152C127.902 70.3521 127.685 70.3066 127.637 70.2255ZM129.006 70.9215C128.879 71.0148 128.737 71.0329 128.597 70.9346C128.469 70.7994 128.501 70.6582 128.606 70.5372C128.71 70.4162 128.849 70.3546 129.009 70.4144C129.178 70.4752 129.178 70.7923 129.009 70.9192L129.006 70.9215ZM134.536 72.2851C134.471 72.2961 134.348 72.225 134.322 72.1588C134.263 72.0182 134.338 71.889 134.488 71.8641C134.553 71.8531 134.638 71.9407 134.71 71.9837C134.742 72.1367 134.689 72.258 134.539 72.2829L134.536 72.2851ZM141.508 84.368C141.662 84.2166 141.85 84.1474 142.035 84.3062C142.179 84.5115 142.181 84.7121 142.019 84.8703C141.866 85.0167 141.649 85.0904 141.477 84.9076C141.317 84.7386 141.344 84.5284 141.508 84.368ZM141.06 90.7749C141.188 90.6994 141.335 90.7225 141.481 90.9406C141.525 91.0289 141.625 91.2144 141.397 91.3479C141.264 91.4279 141.107 91.3937 141.018 91.2678C140.905 91.1063 140.84 90.9066 141.06 90.7749Z" fill="white" stroke="white" stroke-width="0.903345"/>
<path d="M69.6655 121.121C70.1158 120.988 70.5532 120.686 71.0129 120.632L69.9388 120.754C69.9122 120.789 69.8804 120.824 69.843 120.84C69.7676 120.878 69.6348 120.879 69.5678 120.837C69.5487 120.825 69.5346 120.813 69.5182 120.799L69.4046 120.812L69.3265 121.556L69.5797 121.526C69.5797 121.526 69.5729 121.518 69.5706 121.515C69.4749 121.358 69.5497 121.155 69.6655 121.121Z" fill="white" stroke="white" stroke-width="0.903345"/>
<path d="M72.2688 102.085C72.2688 102.085 72.2659 102.082 72.2665 102.075C72.2665 102.075 72.2694 102.079 72.2688 102.085Z" fill="white" stroke="white" stroke-width="0.903345"/>
<path d="M72.2617 101.929C72.3049 101.687 72.3615 101.513 72.4329 101.391L71.9374 101.326L71.8434 102.027L72.266 102.081C72.266 102.081 72.2688 102.079 72.2694 102.074C72.2668 102.026 72.2519 101.973 72.2594 101.926L72.2617 101.929Z" fill="white" stroke="white" stroke-width="0.903345"/>
<path d="M74.1969 88.2202L74.0771 88.3168L73.9505 88.4051C73.9449 88.4096 73.9422 88.4119 73.9366 88.4164L75.1713 88.8727C75.1713 88.8727 75.1729 88.8576 75.174 88.8476C75.2529 88.5817 75.4265 88.4094 75.66 88.2992L74.5628 87.8928C74.4391 88.0018 74.3183 88.1084 74.1969 88.2202Z" fill="white" stroke="white" stroke-width="0.903345"/>
<path d="M125.857 135.639L126.361 135.063L125.665 133.947C125.454 134.067 125.219 134.147 124.959 134.168L125.857 135.639Z" fill="white" stroke="white" stroke-width="0.903345"/>
<path d="M152.092 136.972C151.76 137.15 151.382 137.502 151.015 137.192L150.764 139.57C150.764 139.57 150.781 139.569 150.788 139.569C150.988 139.564 151.194 139.572 151.391 139.605C151.712 139.659 152.11 139.644 152.182 140.073C152.231 140.363 152.004 140.552 151.781 140.709C151.468 140.932 151.155 140.926 150.865 140.673C150.792 140.606 150.722 140.535 150.663 140.463C150.344 143.143 149.457 145.674 148.066 147.921C148.162 147.964 148.253 148.016 148.34 148.072C148.668 148.378 148.609 148.967 148.199 149.286C147.988 149.457 147.714 149.521 147.483 149.311C147.407 149.24 147.346 149.157 147.292 149.062C146.336 150.381 145.199 151.588 143.89 152.644C143.219 153.185 142.514 153.676 141.788 154.112C141.871 154.496 141.744 154.905 141.4 155.224C141.341 155.278 141.088 155.248 141.078 155.214C141.023 155.013 140.971 154.808 140.922 154.607C137.671 156.348 133.988 157.084 130.255 156.696L102.608 153.823C103.015 154.606 103.201 155.465 103.302 156.346C103.306 156.373 103.293 156.401 103.276 156.433L116.938 157.853C116.788 157.625 116.779 157.368 116.943 157.109C117.131 156.813 117.567 156.912 117.915 157.316C118.09 157.517 118.148 157.789 118.086 157.972L129.993 159.209C132.42 159.462 134.79 159.286 137.04 158.756C137.025 158.678 137.023 158.602 137.048 158.521C137.242 157.818 137.469 157.117 137.719 156.429C137.88 155.974 138.43 155.753 138.886 155.926C139.251 156.064 139.372 156.369 139.361 156.726C139.347 157.243 139.182 157.767 138.913 158.224C141.316 157.414 143.546 156.191 145.492 154.62C149.698 151.225 152.605 146.24 153.217 140.469L153.597 136.862C153.093 136.807 152.59 136.708 152.091 136.978L152.092 136.972ZM121.09 156.737C121.291 157.013 121.423 157.309 121.357 157.658C121.334 157.778 121.272 157.924 121.182 157.985C120.97 158.132 120.831 157.998 120.766 157.792C120.613 157.315 120.017 156.984 120.299 156.365C120.683 156.236 120.895 156.474 121.097 156.737L121.09 156.737ZM128.666 157.75C128.519 157.814 128.452 157.761 128.501 157.613C128.511 157.574 128.588 157.542 128.639 157.538C128.672 157.535 128.71 157.588 128.744 157.615C128.719 157.659 128.702 157.727 128.663 157.746L128.666 157.75ZM134.797 157.886C134.731 157.879 134.66 157.895 134.606 157.866C134.468 157.785 134.438 157.659 134.541 157.534C134.564 157.503 134.664 157.536 134.73 157.543C134.751 157.658 134.776 157.771 134.797 157.886Z" fill="white" stroke="white" stroke-width="0.903345"/>
<path d="M156.53 109.629L159.48 81.6703C159.425 81.6182 159.388 81.558 159.356 81.4882C159.244 81.1879 159.174 80.8422 159.506 80.5979C159.532 80.5774 159.563 80.564 159.595 80.5507L159.691 79.6382C159.991 76.7892 159.706 73.9688 158.881 71.3014C158.84 71.274 158.807 71.2407 158.795 71.1963C158.757 71.0894 158.747 70.9889 158.751 70.8897C157.957 68.4977 156.729 66.2463 155.086 64.2273C151.525 59.8522 146.488 57.1255 140.905 56.5453L130.562 55.4707C130.562 55.4707 130.53 55.4906 130.509 55.4951C130.386 55.5287 130.272 55.5003 130.18 55.4309L120.344 54.409C120.086 54.6178 119.738 54.7243 119.396 54.6756C119.232 54.6519 119.162 54.5649 119.166 54.3994C119.166 54.3629 119.173 54.3272 119.178 54.2878L107.964 53.1227C107.98 53.2006 108.001 53.2792 108.006 53.3593C108.038 53.6281 107.959 53.902 107.685 54.0029C107.339 54.1262 107.025 53.9774 106.813 53.7099C106.669 53.5257 106.665 53.2531 106.744 53.0026L79.8489 50.2081C74.4207 49.6407 69.249 51.1906 65.1613 54.1837C65.2303 54.2241 65.2966 54.2907 65.3676 54.4076C65.3749 54.5278 65.4115 54.7805 65.3918 55.0306C65.3401 55.6789 65.0981 55.9823 64.7992 55.8152C64.3931 55.5905 64.3432 55.2104 64.3855 54.8099C64.3869 54.7968 64.3912 54.7873 64.3926 54.7742C63.1032 55.8149 61.9311 57.0072 60.9128 58.3216C61.1081 58.4282 61.1992 58.6068 61.1984 58.8357C61.1951 59.0245 61.1348 59.2174 61.0656 59.3993C60.9734 59.6419 60.8371 59.86 60.5507 59.9531C60.3408 59.8583 60.1796 59.7121 60.0373 59.5447C59.3837 60.5287 58.8073 61.5704 58.322 62.6648C58.3925 62.8182 58.3847 62.9866 58.2135 63.1248C58.1807 63.1512 58.1434 63.1573 58.1047 63.1765C57.4454 64.7837 56.9754 66.4903 56.7329 68.2835C57.6456 68.8861 58.3333 69.6643 58.696 70.7108C58.7405 70.795 58.7703 70.8911 58.7892 70.9959C58.8514 71.1019 58.8894 71.2154 58.9069 71.3333C58.9187 71.3478 58.9276 71.3587 58.9394 71.3732L59.1686 69.2003C59.6395 64.7363 61.6947 60.6692 64.9923 57.6172C65.0275 57.5047 65.0788 57.3972 65.1499 57.2918C65.2805 57.0963 65.455 57.0215 65.6535 57.0355C65.7627 56.9473 65.8625 56.8548 65.9681 56.7696C67.6581 55.4055 69.5345 54.3594 71.5206 53.6632C71.4024 53.3622 71.4153 53.0815 71.8689 52.9196C72.2327 52.7881 72.4369 52.9056 72.5785 53.3317C74.8255 52.6892 77.1973 52.4744 79.5873 52.7194L121.849 57.1105C121.775 56.8274 121.913 56.4402 122.208 56.3216C122.525 56.1985 122.86 56.1802 123.096 56.4702C123.246 56.6915 123.204 57.0256 123.026 57.2295L140.646 59.0603C145.557 59.5706 149.992 61.9726 153.125 65.8221C156.257 69.6716 157.698 74.4902 157.182 79.3809L151.225 135.873C151.848 134.651 152.819 134.443 153.836 135.292L156.482 110.215C156.334 110.004 156.348 109.776 156.543 109.631L156.53 109.629ZM139.623 57.8323C139.486 57.6124 139.558 57.3444 139.754 57.1558C139.914 56.9966 140.09 57.0347 140.252 57.1743C140.47 57.4426 140.417 57.8518 140.11 57.9494C139.968 57.9977 139.685 57.9384 139.623 57.8323ZM141.413 58.7417C141.247 58.8638 141.061 58.8877 140.878 58.7591C140.71 58.5824 140.753 58.3977 140.889 58.2394C141.026 58.081 141.208 58.0004 141.416 58.0784C141.638 58.1578 141.637 58.5726 141.416 58.7388L141.413 58.7417ZM148.642 60.5216C148.557 60.536 148.397 60.443 148.363 60.3565C148.286 60.1726 148.384 60.0036 148.58 59.9709C148.665 59.9565 148.776 60.071 148.87 60.1272C148.913 60.3274 148.843 60.486 148.646 60.5186L148.642 60.5216ZM157.752 76.3209C157.952 76.1227 158.199 76.0321 158.44 76.2397C158.628 76.5082 158.63 76.7705 158.419 76.9775C158.219 77.1691 157.935 77.2657 157.71 77.0267C157.501 76.8058 157.536 76.5308 157.752 76.3209ZM157.161 84.7012C157.328 84.6024 157.521 84.6325 157.711 84.9177C157.769 85.0332 157.9 85.2758 157.601 85.4505C157.427 85.5552 157.222 85.5106 157.106 85.3459C156.958 85.1348 156.873 84.8737 157.161 84.7012Z" fill="white" stroke="white" stroke-width="0.903345"/>
<path d="M101.735 153.78L97.7216 153.362C97.4972 153.405 97.2467 153.379 97.0361 153.291L69.2502 150.403C59.0611 149.344 51.6439 140.229 52.7141 130.081L53.9753 118.122C53.6987 118.123 53.4191 118.121 53.1475 118.106C53.0516 118.099 52.9066 117.958 52.884 117.856C52.8607 117.761 52.9432 117.61 53.0247 117.532C53.1622 117.397 53.3395 117.296 53.7607 116.998C53.7825 116.981 53.8852 116.892 54.0003 116.811C54.0404 116.779 54.0827 116.757 54.1257 116.728L54.2766 115.297C54.1063 115.332 53.9367 115.361 53.7676 115.354C53.5619 115.345 53.3596 115.178 53.5361 114.958C53.6436 114.823 53.7761 114.704 53.9079 114.592L53.3092 113.856C53.6333 113.594 53.7393 113.221 53.849 112.844C53.8748 112.757 53.9159 112.652 53.9858 112.589C53.9922 112.56 53.995 112.534 54.0014 112.505L53.9955 112.497L53.9991 112.494C53.914 111.849 54.383 111.476 54.7185 111.043L55.3706 104.86C55.1768 104.644 55.0793 104.369 55.214 104.008C55.3074 103.974 55.3936 103.947 55.4696 103.921L58.7099 73.1968C58.5309 73.1251 58.3569 73.0373 58.1886 72.9269C57.7262 72.8258 57.2819 72.9322 56.831 73.038C56.5987 73.0934 56.3775 73.0738 56.1852 72.9708L55.2984 81.3789C55.322 81.2818 55.361 81.1963 55.4177 81.1325C55.6547 80.8752 56.2328 80.985 56.6463 81.3598C56.9621 81.6514 56.9984 82.0964 56.7258 82.4065C56.4649 82.7012 55.9215 82.7675 55.6626 82.5382C55.422 82.3241 55.2829 81.9679 55.27 81.648L54.7601 86.5153C54.8334 86.5462 54.9188 86.6214 54.9908 86.6654C54.9292 86.7751 54.8647 86.8812 54.8032 86.991C54.7782 86.9751 54.743 86.9615 54.7114 86.9449L53.588 97.5978C53.6104 97.7959 53.608 98.008 53.5858 98.218C53.572 98.3493 53.5368 98.4617 53.4869 98.5561L52.0637 112.051C52.0637 112.051 52.0755 112.066 52.0843 112.076C52.1895 112.28 52.1614 112.483 51.9972 112.681L50.3608 128.198C50.6295 128.209 50.8333 128.393 50.9971 128.609C51.2486 128.94 51.3308 129.33 51.2637 129.745C51.3812 129.926 51.372 130.108 51.2436 130.283C51.5364 130.666 51.5473 131.131 51.6275 131.571C51.6442 131.665 51.5424 131.778 51.4637 131.955C51.2282 131.503 50.6413 131.382 50.5984 130.81C50.4523 130.616 50.3055 130.428 50.1594 130.234C49.1917 141.59 57.5488 151.712 68.9835 152.9L90.37 155.123C90.4362 155.064 90.5127 155.002 90.6067 154.932C90.8165 154.775 91.0647 154.665 91.2951 154.533C91.3314 154.473 91.3617 154.407 91.395 154.344C91.4239 154.29 91.4565 154.234 91.4973 154.195C91.8414 153.869 92.1385 153.864 92.2801 154.164C92.3268 154.258 92.3669 154.352 92.4033 154.449C92.5215 154.75 92.5929 155.052 92.6401 155.362L102.348 156.372C101.788 155.683 101.514 154.553 101.736 153.773L101.735 153.78ZM53.8534 107.874C53.9448 107.86 54.0538 107.965 54.158 108.019C54.2014 108.176 54.1406 108.279 53.9787 108.265C53.8667 108.254 53.7616 108.176 53.6566 108.129C53.7227 108.04 53.7752 107.889 53.8534 107.874ZM51.1158 135.917C50.8375 135.523 50.9082 134.854 51.2196 134.68C51.5661 134.491 52.3818 134.811 52.5569 135.204C52.7216 135.57 52.4623 136.259 52.1014 136.365C51.655 136.491 51.3476 136.246 51.1129 135.913L51.1158 135.917ZM56.2691 144.356C56.1293 144.481 55.928 144.589 55.8135 144.411C55.7359 144.294 55.7725 144.042 55.8506 143.901C55.9418 143.731 56.1678 143.705 56.3151 143.856C56.4683 144.015 56.4189 144.199 56.2691 144.356ZM53.0801 139.562C52.8247 139.678 52.5865 139.63 52.3839 139.403C52.157 139.028 52.2364 138.369 52.5831 138.21C52.9545 138.036 53.1816 138.315 53.3428 138.587C53.572 138.973 53.4472 139.398 53.0801 139.562Z" fill="white" stroke="white" stroke-width="0.903345"/>
<path d="M63.8021 124.403C64.3908 124.228 64.9627 123.833 65.5638 123.762L64.1596 123.922C64.1248 123.968 64.0833 124.013 64.0343 124.035C63.9357 124.084 63.7621 124.086 63.6746 124.031C63.6496 124.015 63.6312 124 63.6098 123.981L63.4612 123.999L63.3587 124.971L63.6896 124.932C63.6896 124.932 63.6807 124.922 63.6778 124.918C63.5527 124.712 63.6507 124.447 63.8021 124.403Z" fill="white" stroke="white" stroke-width="0.903345"/>
<path d="M67.2057 99.5085C67.2057 99.5085 67.2024 99.5045 67.2032 99.4972C67.2032 99.4972 67.2065 99.5013 67.2057 99.5085Z" fill="white" stroke="white" stroke-width="0.903345"/>
<path d="M67.1971 99.3045C67.2537 98.9884 67.3278 98.7604 67.4213 98.6008L66.7735 98.5169L66.6501 99.4336L67.2026 99.5042C67.2026 99.5042 67.2063 99.5013 67.207 99.4947C67.2037 99.4313 67.1842 99.3629 67.1941 99.3009L67.1971 99.3045Z" fill="white" stroke="white" stroke-width="0.903345"/>
<path d="M69.7279 81.3788L69.5712 81.5053L69.4057 81.6209C69.3984 81.6268 69.3948 81.6297 69.3875 81.6356L71.0014 82.2315C71.0014 82.2315 71.0035 82.2118 71.0049 82.1987C71.1083 81.8509 71.3354 81.6255 71.6407 81.4813L70.2065 80.9505C70.0448 81.0931 69.8867 81.2327 69.7279 81.3788Z" fill="white" stroke="white" stroke-width="0.903345"/>
<path d="M137.28 143.386L137.939 142.632L137.03 141.174C136.753 141.331 136.446 141.435 136.107 141.463L137.28 143.386Z" fill="white" stroke="white" stroke-width="0.903345"/>
<path d="M144.947 127.74C144.693 127.876 144.404 128.146 144.123 127.909L143.932 129.727C143.932 129.727 143.944 129.726 143.949 129.727C144.103 129.722 144.26 129.728 144.411 129.754C144.656 129.795 144.961 129.783 145.016 130.112C145.053 130.334 144.88 130.478 144.709 130.598C144.469 130.768 144.23 130.764 144.008 130.571C143.953 130.519 143.9 130.465 143.854 130.41C143.61 132.459 142.932 134.395 141.868 136.113C141.941 136.146 142.011 136.186 142.078 136.229C142.329 136.463 142.284 136.913 141.97 137.157C141.808 137.288 141.599 137.337 141.422 137.177C141.364 137.122 141.317 137.059 141.276 136.986C140.545 137.995 139.675 138.918 138.675 139.725C138.162 140.139 137.622 140.515 137.067 140.848C137.13 141.142 137.034 141.454 136.771 141.699C136.726 141.74 136.532 141.717 136.524 141.691C136.482 141.537 136.442 141.38 136.405 141.226C133.918 142.558 131.102 143.121 128.247 142.824L107.104 140.627C107.416 141.225 107.558 141.883 107.635 142.556C107.638 142.577 107.628 142.599 107.616 142.623L118.063 143.709C117.949 143.534 117.942 143.338 118.067 143.14C118.211 142.914 118.545 142.989 118.81 143.299C118.945 143.452 118.989 143.66 118.941 143.8L128.047 144.746C129.903 144.939 131.715 144.805 133.436 144.4C133.424 144.34 133.423 144.281 133.442 144.22C133.591 143.682 133.765 143.146 133.955 142.62C134.079 142.272 134.499 142.103 134.847 142.235C135.127 142.341 135.22 142.574 135.211 142.847C135.2 143.242 135.074 143.643 134.869 143.992C136.706 143.373 138.411 142.438 139.9 141.237C143.116 138.64 145.339 134.828 145.807 130.415L146.098 127.657C145.712 127.614 145.328 127.538 144.946 127.745L144.947 127.74ZM121.239 142.855C121.392 143.067 121.494 143.293 121.443 143.559C121.425 143.652 121.378 143.763 121.309 143.81C121.147 143.922 121.04 143.82 120.991 143.662C120.873 143.297 120.418 143.044 120.634 142.571C120.927 142.472 121.089 142.654 121.244 142.856L121.239 142.855ZM127.032 143.63C126.92 143.679 126.868 143.638 126.906 143.525C126.914 143.496 126.973 143.471 127.011 143.468C127.037 143.465 127.066 143.506 127.092 143.527C127.073 143.561 127.06 143.612 127.03 143.627L127.032 143.63ZM131.721 143.734C131.671 143.729 131.616 143.741 131.575 143.719C131.469 143.657 131.446 143.56 131.525 143.465C131.543 143.441 131.619 143.467 131.67 143.472C131.686 143.56 131.705 143.646 131.721 143.734Z" fill="white" stroke="white" stroke-width="0.903345"/>
<path d="M148.341 106.831L150.597 85.4494C150.555 85.4095 150.527 85.3634 150.502 85.3101C150.417 85.0805 150.363 84.816 150.617 84.6293C150.637 84.6135 150.661 84.6033 150.685 84.5931L150.758 83.8953C150.988 81.7166 150.77 79.5597 150.139 77.5199C150.108 77.4989 150.083 77.4735 150.073 77.4395C150.044 77.3578 150.037 77.2809 150.04 77.2051C149.432 75.3758 148.493 73.6541 147.236 72.1101C144.514 68.7643 140.662 66.679 136.392 66.2354L128.482 65.4136C128.482 65.4136 128.458 65.4288 128.442 65.4322C128.348 65.4579 128.261 65.4362 128.19 65.3832L120.668 64.6017C120.471 64.7613 120.205 64.8428 119.944 64.8055C119.818 64.7874 119.764 64.7209 119.767 64.5943C119.768 64.5664 119.773 64.5391 119.776 64.509L111.201 63.618C111.213 63.6776 111.229 63.7377 111.233 63.7989C111.257 64.0045 111.197 64.2139 110.988 64.2911C110.723 64.3854 110.482 64.2716 110.321 64.067C110.211 63.9262 110.207 63.7177 110.268 63.5261L89.7002 61.3891C85.5491 60.9552 81.5941 62.1404 78.4681 64.4294C78.5209 64.4602 78.5716 64.5112 78.6259 64.6006C78.6314 64.6925 78.6595 64.8857 78.6444 65.077C78.6048 65.5728 78.4198 65.8048 78.1912 65.6771C77.8806 65.5052 77.8425 65.2145 77.8748 64.9083C77.8759 64.8982 77.8792 64.8909 77.8802 64.8809C76.8942 65.6768 75.9979 66.5886 75.2191 67.5937C75.3685 67.6752 75.4382 67.8119 75.4375 67.9869C75.4351 68.1313 75.3889 68.2788 75.336 68.4179C75.2655 68.6035 75.1612 68.7703 74.9422 68.8414C74.7817 68.7689 74.6584 68.6571 74.5496 68.5291C74.0498 69.2816 73.609 70.0783 73.2379 70.9152C73.2917 71.0324 73.2858 71.1612 73.1549 71.2669C73.1298 71.2871 73.1013 71.2918 73.0717 71.3065C72.5675 72.5356 72.2081 73.8407 72.0226 75.212C72.7206 75.6728 73.2465 76.2679 73.5239 77.0682C73.5579 77.1326 73.5807 77.2061 73.5952 77.2862C73.6427 77.3673 73.6717 77.4541 73.6852 77.5443C73.6942 77.5554 73.7009 77.5637 73.71 77.5748L73.8853 75.9131C74.2454 72.4993 75.8171 69.3891 78.3389 67.0551C78.3658 66.9691 78.405 66.8869 78.4594 66.8062C78.5593 66.6567 78.6927 66.5996 78.8445 66.6103C78.928 66.5428 79.0043 66.4721 79.0851 66.4069C80.3775 65.3637 81.8125 64.5637 83.3313 64.0313C83.2409 63.8011 83.2508 63.5865 83.5977 63.4626C83.8758 63.3621 84.032 63.4519 84.1403 63.7778C85.8587 63.2865 87.6725 63.1222 89.5002 63.3096L121.819 66.6676C121.763 66.4511 121.868 66.155 122.094 66.0643C122.336 65.9702 122.592 65.9562 122.773 66.1779C122.887 66.3472 122.855 66.6027 122.719 66.7586L136.194 68.1587C139.95 68.5489 143.341 70.3858 145.737 73.3297C148.132 76.2735 149.234 79.9585 148.84 83.6985L144.284 126.9C144.76 125.965 145.503 125.806 146.281 126.456L148.304 107.278C148.191 107.117 148.202 106.943 148.351 106.832L148.341 106.831ZM135.411 67.2196C135.307 67.0514 135.362 66.8465 135.512 66.7022C135.634 66.5805 135.769 66.6097 135.893 66.7164C136.059 66.9215 136.019 67.2345 135.784 67.3091C135.676 67.3461 135.459 67.3007 135.411 67.2196ZM136.78 67.9151C136.653 68.0084 136.511 68.0267 136.371 67.9284C136.243 67.7932 136.275 67.652 136.38 67.5309C136.484 67.4098 136.624 67.3481 136.783 67.4078C136.952 67.4685 136.952 67.7857 136.783 67.9128L136.78 67.9151ZM142.309 69.2762C142.244 69.2872 142.122 69.2161 142.096 69.1499C142.036 69.0093 142.111 68.88 142.262 68.8551C142.327 68.8441 142.412 68.9316 142.483 68.9746C142.516 69.1276 142.462 69.2489 142.312 69.2739L142.309 69.2762ZM149.275 81.3584C149.429 81.2069 149.617 81.1376 149.802 81.2964C149.946 81.5017 149.947 81.7023 149.785 81.8606C149.632 82.0071 149.416 82.081 149.244 81.8982C149.083 81.7293 149.11 81.5189 149.275 81.3584ZM148.823 87.7672C148.951 87.6916 149.099 87.7146 149.244 87.9327C149.288 88.0211 149.388 88.2066 149.16 88.3402C149.027 88.4202 148.87 88.3862 148.781 88.2602C148.669 88.0988 148.603 87.8991 148.823 87.7672Z" fill="white" stroke="white" stroke-width="0.903345"/>
<path d="M77.4287 118.128C77.8789 117.994 78.3162 117.692 78.7759 117.638L77.7021 117.76C77.6754 117.795 77.6437 117.83 77.6063 117.847C77.5309 117.885 77.3981 117.886 77.3312 117.843C77.3121 117.831 77.298 117.82 77.2816 117.805L77.168 117.819L77.0896 118.563L77.3426 118.533C77.3426 118.533 77.3359 118.525 77.3336 118.522C77.238 118.365 77.3129 118.162 77.4287 118.128Z" fill="white" stroke="white" stroke-width="0.903345"/>
<path d="M80.0323 99.0916C80.0323 99.0916 80.0293 99.088 80.03 99.0816C80.03 99.0816 80.0329 99.0852 80.0323 99.0916Z" fill="white" stroke="white" stroke-width="0.903345"/>
<path d="M80.0248 98.9351C80.0681 98.6934 80.1248 98.5191 80.1963 98.397L79.7009 98.3329L79.6065 99.0339L80.0291 99.0879C80.0291 99.0879 80.0319 99.0856 80.0324 99.0806C80.0299 99.0321 80.015 98.9798 80.0225 98.9324L80.0248 98.9351Z" fill="white" stroke="white" stroke-width="0.903345"/>
<path d="M81.9603 85.2268L81.8405 85.3236L81.7139 85.412C81.7083 85.4165 81.7055 85.4187 81.6999 85.4232L82.9342 85.8789C82.9342 85.8789 82.9358 85.8639 82.9368 85.8538C83.0159 85.5878 83.1896 85.4155 83.423 85.3052L82.3263 84.8993C82.2026 85.0083 82.0817 85.1151 81.9603 85.2268Z" fill="white" stroke="white" stroke-width="0.903345"/>
<path d="M133.62 132.646L134.124 132.069L133.429 130.954C133.217 131.074 132.982 131.153 132.722 131.175L133.62 132.646Z" fill="white" stroke="white" stroke-width="0.903345"/>
<path d="M74.9324 124.375L83.3008 118.373L83.9346 119.253L75.5663 125.255L74.9324 124.375ZM77.882 120.681L78.8951 119.955L79.9938 121.479L78.9808 122.205L77.882 120.681ZM78.849 125.39L79.8315 126.753L84.1331 123.668L83.1506 122.305L78.849 125.39ZM77.3201 125.308L83.6037 120.802L85.706 123.718L79.4224 128.225L77.3201 125.308ZM75.112 120.422L75.767 121.331L80.2595 118.109L79.6045 117.2L75.112 120.422ZM73.971 118.839L74.626 119.748L79.1185 116.526L78.4635 115.617L73.971 118.839ZM72.4656 118.852L78.9841 114.177L81.7943 118.075L75.2758 122.75L72.4656 118.852ZM81.6007 125.84L82.6138 125.114L84.7478 128.074C85.107 128.572 85.1838 128.895 84.9077 129.316C84.6317 129.736 84.0885 130.126 83.2663 130.715C83.0174 130.493 82.573 130.279 82.2214 130.131C82.9178 129.676 83.461 129.286 83.6413 129.134C83.8175 129.008 83.8299 128.933 83.7242 128.786L81.6007 125.84ZM80.127 128.276L81.2608 127.84C81.4901 129.054 81.4656 130.473 81.2381 131.547C80.9457 131.512 80.3592 131.533 80.0186 131.555C80.2884 130.539 80.3451 129.32 80.127 128.276ZM84.5106 125.799L85.0411 124.773C86.0573 124.978 87.3349 125.329 88.0487 125.64L87.5206 126.73C86.8214 126.409 85.5374 126.018 84.5106 125.799ZM83.0157 110.841L84.3644 110.518C84.3105 112.513 83.7027 114.883 82.9225 116.644C82.5626 116.546 81.982 116.451 81.5698 116.435C82.3611 114.845 83.007 112.559 83.0157 110.841ZM86.3384 114.616L87.6725 114.304C87.598 116.425 86.8898 118.934 86.0385 120.812C85.6786 120.714 85.098 120.619 84.6711 120.614C85.5482 118.896 86.2839 116.456 86.3384 114.616ZM89.7099 118.49L91.0563 118.102C91.3268 120.888 90.5827 123.934 89.1723 126.457C88.8059 126.32 88.2083 126.17 87.7603 126.136C89.1337 123.839 89.9582 120.935 89.7099 118.49ZM92.0224 104.025L93.2315 103.447C93.4359 105.368 93.3936 107.688 92.6995 110.032C92.3502 109.949 91.7971 109.923 91.4378 109.98C92.1788 107.826 92.2445 105.6 92.0224 104.025ZM92.7614 104.896L96.3143 102.348L96.927 103.198L92.6988 106.23L92.7614 104.896ZM93.7052 108.399L94.8989 110.055L101.417 105.38L100.224 103.724L93.7052 108.399ZM92.1005 108.304L100.704 102.134L103.07 105.417L94.467 111.587L92.1005 108.304ZM96.0579 105.978L97.0562 105.262L98.8522 107.753L97.8538 108.469L96.0579 105.978ZM97.7224 108.163L98.8422 107.894C98.4412 109.871 97.1588 112.325 95.9183 114.126C95.6341 114.041 95.0658 113.87 94.723 113.827C96.0374 112.129 97.3479 109.899 97.7224 108.163ZM97.3113 110.837L97.6926 109.852C101.955 109.863 104.574 113.343 103.988 115.187C103.815 115.844 103.482 116.216 102.906 116.652C102.597 116.873 102.186 117.168 101.739 117.444C101.549 117.18 101.165 116.833 100.788 116.681C101.29 116.388 101.741 116.086 102.035 115.876C102.402 115.613 102.645 115.394 102.751 114.984C103.177 113.722 101.044 110.917 97.3113 110.837ZM99.0405 110.486L100.043 110.456C99.6959 112.106 98.5585 114.545 97.4625 116.176C97.176 116.025 96.7087 115.871 96.3406 115.824C97.5129 114.361 98.7283 112 99.0405 110.486ZM100.934 111.507L102.049 111.508C101.735 113.668 100.425 116.763 99.0341 118.85C98.7118 118.681 98.2087 118.509 97.8406 118.461C99.2825 116.538 100.695 113.524 100.934 111.507ZM103.045 106.124L104.288 106.211C104.011 107.433 103.511 108.903 103.071 109.93L101.992 109.792C102.418 108.776 102.877 107.157 103.045 106.124ZM99.4682 107.156C102.082 109.483 105.169 111.048 107.925 110.762C107.838 111.135 107.775 111.759 107.814 112.153C104.819 112.323 101.6 110.607 98.6848 107.984L99.4682 107.156ZM95.9619 102.6L96.1968 102.432L96.3349 102.222L97.3483 102.206C97.4847 103.353 97.4245 104.753 97.2639 105.735C96.9798 105.65 96.4643 105.553 96.1678 105.543C96.289 104.722 96.247 103.552 96.0993 102.791L95.9619 102.6ZM88.5559 106.6L89.7843 106.142C90.7751 109.277 91.3278 112.794 91.1104 115.551C90.8175 115.361 90.1013 114.985 89.7097 114.844C89.9452 112.452 89.4781 109.363 88.5559 106.6ZM89.9697 111.033L90.2537 109.296L90.3042 109.304L98.0797 120.091L97.0373 120.838L89.9697 111.033ZM107.938 97.1234L108.809 96.6322C110.066 98.2211 111.292 100.232 111.5 101.817L110.474 102.063C110.303 100.652 109.144 98.704 107.938 97.1234ZM107.646 93.0418L108.586 92.3679L112.516 97.82C114.671 100.81 116.391 103.845 115.267 107.786C114.962 107.671 114.396 107.566 114.074 107.552C115.079 103.941 113.509 101.176 111.587 98.5085L107.646 93.0418ZM102.366 96.5618L103.394 95.8247L105.095 98.1844L104.067 98.9214L102.366 96.5618ZM101.961 99.8314L106.601 96.504L107.266 97.4274L102.627 100.755L101.961 99.8314ZM104.635 103.85L109.51 100.354L110.175 101.277L105.301 104.773L104.635 103.85ZM103.462 100.801L104.143 100.046C104.996 100.612 105.956 101.48 106.461 102.118L105.717 102.941C105.227 102.292 104.286 101.388 103.462 100.801ZM106.08 98.5005L107.149 98.0675C107.533 99.1259 107.979 100.362 108.19 101.212L107.293 101.543C107.017 100.697 106.497 99.3574 106.08 98.5005ZM106.81 107.115C107.961 106.023 109.662 104.335 111.324 102.655L112.027 103.507C110.512 105.082 108.935 106.725 107.753 107.928L106.81 107.115ZM110.779 90.5283L111.806 89.7912L113.507 92.1509L112.48 92.8879L110.779 90.5283ZM110.294 93.8107L115.08 90.378L115.756 91.316L110.97 94.7487L110.294 93.8107ZM112.92 97.886L118.102 94.169L118.778 95.107L113.596 98.824L112.92 97.886ZM111.757 94.8514L112.437 94.0964C113.306 94.6521 114.255 95.5054 114.789 96.1228L114.071 96.9493C113.566 96.3108 112.596 95.4282 111.757 94.8514ZM114.545 92.3851L115.683 91.9246C116.063 93.0082 116.505 94.2699 116.716 95.119L115.764 95.4677C115.492 94.5958 114.987 93.2461 114.545 92.3851ZM115.237 96.7132L116.265 95.9761L121.526 103.275L120.498 104.012L115.237 96.7132ZM115.253 100.815L120.098 97.3397L120.774 98.2777L115.929 101.753L115.253 100.815ZM106.859 102.856L107.886 102.119L109.693 104.625C110.77 106.12 111.892 108.294 110.995 110.85C110.686 110.761 110.124 110.63 109.777 110.612C110.652 108.428 109.542 106.578 108.665 105.362L106.859 102.856ZM126.893 92.3995L130.006 90.1672L130.576 90.9586L127.464 93.1909L126.893 92.3995ZM120.882 85.7279L125.697 82.2742L126.331 83.1536L121.515 86.6073L120.882 85.7279ZM122.94 89.3873L131.999 82.8905L132.654 83.7992L123.595 90.296L122.94 89.3873ZM125.406 90.398L129.076 87.7656L132.605 92.6608L128.935 95.2932L128.343 94.4724L131.088 92.5034L128.743 89.2497L125.998 91.2187L125.406 90.398ZM125.039 90.6612L125.92 90.0295L130.019 95.7161L129.138 96.3478L125.039 90.6612ZM121.668 82.7405L122.681 82.0139L124.139 84.0365L123.126 84.763L121.668 82.7405ZM122.339 86.4834L123.005 85.7389C123.745 86.2089 124.57 86.9514 124.996 87.5124L124.282 88.3137C123.855 87.7526 123.071 87.0037 122.339 86.4834ZM126.915 80.5338L127.509 79.5965C128.714 79.91 130.117 80.5271 130.895 81.0809L130.27 82.1295C129.511 81.54 128.116 80.8725 126.915 80.5338ZM124.92 84.2546L125.997 83.7713C126.311 84.7019 126.721 85.7644 126.917 86.4687L126.012 86.8509C125.744 86.109 125.282 84.9732 124.92 84.2546ZM124.908 80.4386L125.877 79.7437C131.048 87.0406 134.931 91.7481 136.396 90.8756C136.656 90.7112 136.298 89.8122 135.509 88.5326C135.829 88.6366 136.401 88.6266 136.64 88.5882C137.83 90.8255 137.757 91.7445 137.233 92.0984C134.789 93.6513 130.778 88.4574 124.908 80.4386ZM131.881 85.3537L133.064 85.1722C134.267 88.7562 134.075 92.2288 132.931 95.0284C132.661 94.9326 132.167 94.8647 131.845 94.8509C132.994 92.1814 133.159 88.7949 131.881 85.3537ZM118.795 91.5154L122.377 88.9462L123.011 89.8255L119.429 92.3948L118.795 91.5154ZM116.048 87.5496L119.527 85.054L120.161 85.9334L116.682 88.4289L116.048 87.5496ZM120.211 93.4793L123.793 90.9101L124.427 91.7895L120.845 94.3587L120.211 93.4793ZM116.771 89.9433L121.293 86.7002L121.948 87.6089L117.426 90.852L116.771 89.9433ZM122.121 95.1104L125.234 92.8782L128.308 97.1431L125.196 99.3754L124.541 98.4667L126.743 96.8873L124.979 94.4397L122.776 96.0191L122.121 95.1104ZM121.608 95.479L122.503 94.8367L126.074 99.7905L125.178 100.433L121.608 95.479Z" fill="white"/>
<path d="M74.9324 124.375L74.6683 124.009L74.3013 124.272L74.5654 124.638L74.9324 124.375ZM83.3008 118.373L83.6678 118.11L83.4037 117.744L83.0366 118.007L83.3008 118.373ZM83.9346 119.253L84.1987 119.619L84.5658 119.356L84.3017 118.989L83.9346 119.253ZM75.5663 125.255L75.1993 125.518L75.4634 125.884L75.8304 125.621L75.5663 125.255ZM77.882 120.681L77.6179 120.315L77.2509 120.578L77.515 120.944L77.882 120.681ZM78.8951 119.955L79.2621 119.691L78.998 119.325L78.6309 119.588L78.8951 119.955ZM79.9938 121.479L80.2579 121.845L80.6249 121.582L80.3608 121.216L79.9938 121.479ZM78.9808 122.205L78.6137 122.469L78.8778 122.835L79.2449 122.572L78.9808 122.205ZM78.849 125.39L78.5848 125.024L78.2178 125.287L78.4819 125.654L78.849 125.39ZM79.8315 126.753L79.4644 127.017L79.7285 127.383L80.0956 127.12L79.8315 126.753ZM84.1331 123.668L84.3972 124.035L84.7642 123.771L84.5001 123.405L84.1331 123.668ZM83.1506 122.305L83.5176 122.042L83.2535 121.675L82.8865 121.939L83.1506 122.305ZM77.3201 125.308L77.056 124.942L76.6889 125.205L76.953 125.572L77.3201 125.308ZM83.6037 120.802L83.9707 120.539L83.7066 120.172L83.3395 120.435L83.6037 120.802ZM85.706 123.718L85.9701 124.085L86.3371 123.822L86.073 123.455L85.706 123.718ZM79.4224 128.225L79.0554 128.488L79.3195 128.855L79.6865 128.591L79.4224 128.225ZM75.112 120.422L74.8479 120.056L74.4809 120.319L74.745 120.686L75.112 120.422ZM75.767 121.331L75.4 121.594L75.6641 121.961L76.0311 121.697L75.767 121.331ZM80.2595 118.109L80.5236 118.475L80.8906 118.212L80.6265 117.846L80.2595 118.109ZM79.6045 117.2L79.9715 116.937L79.7074 116.571L79.3404 116.834L79.6045 117.2ZM73.971 118.839L73.7069 118.473L73.3399 118.736L73.604 119.103L73.971 118.839ZM74.626 119.748L74.259 120.011L74.5231 120.378L74.8902 120.114L74.626 119.748ZM79.1185 116.526L79.3826 116.892L79.7496 116.629L79.4855 116.263L79.1185 116.526ZM78.4635 115.617L78.8305 115.354L78.5664 114.988L78.1994 115.251L78.4635 115.617ZM72.4656 118.852L72.2015 118.486L71.8345 118.749L72.0986 119.115L72.4656 118.852ZM78.9841 114.177L79.3511 113.914L79.087 113.547L78.72 113.81L78.9841 114.177ZM81.7943 118.075L82.0584 118.442L82.4254 118.178L82.1613 117.812L81.7943 118.075ZM75.2758 122.75L74.9087 123.014L75.1729 123.38L75.5399 123.117L75.2758 122.75ZM81.6007 125.84L81.3366 125.474L80.9696 125.737L81.2337 126.103L81.6007 125.84ZM82.6138 125.114L82.9808 124.85L82.7167 124.484L82.3496 124.747L82.6138 125.114ZM84.9077 129.316L84.5295 129.068L84.5295 129.068L84.9077 129.316ZM83.2663 130.715L82.9653 131.052L83.236 131.293L83.5304 131.082L83.2663 130.715ZM82.2214 130.131L81.9734 129.753L81.2634 130.217L82.0459 130.546L82.2214 130.131ZM83.6413 129.134L83.3772 128.768L83.3631 128.778L83.3498 128.789L83.6413 129.134ZM80.127 128.276L79.9643 127.854L79.6059 127.992L79.6843 128.367L80.127 128.276ZM81.2608 127.84L81.7052 127.757L81.6047 127.225L81.0982 127.419L81.2608 127.84ZM81.2381 131.547L81.1848 131.995L81.5951 132.044L81.6805 131.641L81.2381 131.547ZM80.0186 131.555L79.5815 131.439L79.4205 132.045L80.0481 132.005L80.0186 131.555ZM84.5106 125.799L84.1088 125.591L83.8373 126.116L84.4162 126.24L84.5106 125.799ZM85.0411 124.773L85.1303 124.331L84.7957 124.264L84.6392 124.566L85.0411 124.773ZM88.0487 125.64L88.4559 125.836L88.6605 125.414L88.2292 125.226L88.0487 125.64ZM87.5206 126.73L87.3318 127.14L87.7348 127.325L87.9277 126.927L87.5206 126.73ZM83.0157 110.841L82.91 110.402L82.5653 110.484L82.5635 110.838L83.0157 110.841ZM84.3644 110.518L84.8164 110.53L84.8324 109.942L84.2587 110.079L84.3644 110.518ZM82.9225 116.644L82.8042 117.079L83.1791 117.181L83.3361 116.826L82.9225 116.644ZM81.5698 116.435L81.1648 116.234L80.8537 116.86L81.553 116.886L81.5698 116.435ZM86.3384 114.616L86.2349 114.177L85.8967 114.256L85.8865 114.602L86.3384 114.616ZM87.6725 114.304L88.1244 114.32L88.1451 113.73L87.569 113.865L87.6725 114.304ZM86.0385 120.812L85.9202 121.247L86.2919 121.348L86.4505 120.998L86.0385 120.812ZM84.6711 120.614L84.2681 120.409L83.9377 121.057L84.666 121.065L84.6711 120.614ZM89.7099 118.49L89.5843 118.056L89.222 118.161L89.26 118.535L89.7099 118.49ZM91.0563 118.102L91.5064 118.059L91.4539 117.518L90.9307 117.669L91.0563 118.102ZM89.1723 126.457L89.0134 126.879L89.3778 127.016L89.5672 126.677L89.1723 126.457ZM87.7603 126.136L87.3719 125.904L86.9981 126.53L87.7259 126.586L87.7603 126.136ZM75.1966 124.742L83.5649 118.74L83.0366 118.007L74.6683 124.009L75.1966 124.742ZM82.9337 118.637L83.5676 119.516L84.3017 118.989L83.6678 118.11L82.9337 118.637ZM83.6705 118.886L75.3022 124.888L75.8304 125.621L84.1987 119.619L83.6705 118.886ZM75.9333 124.991L75.2995 124.112L74.5654 124.638L75.1993 125.518L75.9333 124.991ZM78.1462 121.048L79.1592 120.321L78.6309 119.588L77.6179 120.315L78.1462 121.048ZM78.528 120.218L79.6267 121.742L80.3608 121.216L79.2621 119.691L78.528 120.218ZM79.7296 121.112L78.7166 121.839L79.2449 122.572L80.2579 121.845L79.7296 121.112ZM79.3478 121.942L78.2491 120.418L77.515 120.944L78.6137 122.469L79.3478 121.942ZM78.4819 125.654L79.4644 127.017L80.1985 126.49L79.216 125.127L78.4819 125.654ZM80.0956 127.12L84.3972 124.035L83.869 123.302L79.5673 126.387L80.0956 127.12ZM84.5001 123.405L83.5176 122.042L82.7835 122.568L83.766 123.931L84.5001 123.405ZM82.8865 121.939L78.5848 125.024L79.1131 125.757L83.4147 122.672L82.8865 121.939ZM77.5842 125.675L83.8678 121.168L83.3395 120.435L77.056 124.942L77.5842 125.675ZM83.2366 121.065L85.339 123.982L86.073 123.455L83.9707 120.539L83.2366 121.065ZM85.4419 123.352L79.1583 127.859L79.6865 128.591L85.9701 124.085L85.4419 123.352ZM79.7894 127.962L77.6871 125.045L76.953 125.572L79.0554 128.488L79.7894 127.962ZM74.745 120.686L75.4 121.594L76.134 121.068L75.479 120.159L74.745 120.686ZM76.0311 121.697L80.5236 118.475L79.9954 117.742L75.5029 120.965L76.0311 121.697ZM80.6265 117.846L79.9715 116.937L79.2374 117.463L79.8924 118.372L80.6265 117.846ZM79.3404 116.834L74.8479 120.056L75.3761 120.789L79.8686 117.567L79.3404 116.834ZM73.604 119.103L74.259 120.011L74.9931 119.485L74.3381 118.576L73.604 119.103ZM74.8902 120.114L79.3826 116.892L78.8544 116.16L74.3619 119.382L74.8902 120.114ZM79.4855 116.263L78.8305 115.354L78.0965 115.881L78.7515 116.789L79.4855 116.263ZM78.1994 115.251L73.7069 118.473L74.2352 119.206L78.7276 115.984L78.1994 115.251ZM72.7297 119.218L79.2482 114.543L78.72 113.81L72.2015 118.486L72.7297 119.218ZM78.6171 114.44L81.4272 118.339L82.1613 117.812L79.3511 113.914L78.6171 114.44ZM81.5301 117.709L75.0117 122.384L75.5399 123.117L82.0584 118.442L81.5301 117.709ZM75.6428 122.487L72.8327 118.589L72.0986 119.115L74.9087 123.014L75.6428 122.487ZM81.8649 126.206L82.8779 125.48L82.3496 124.747L81.3366 125.474L81.8649 126.206ZM82.2467 125.377L84.3807 128.337L85.1148 127.811L82.9808 124.85L82.2467 125.377ZM84.3807 128.337C84.5501 128.572 84.6059 128.705 84.6189 128.791C84.6277 128.849 84.6238 128.925 84.5295 129.068L85.286 129.563C85.4678 129.286 85.5635 128.99 85.5131 128.657C85.4669 128.352 85.3046 128.074 85.1148 127.811L84.3807 128.337ZM84.5295 129.068C84.4285 129.222 84.2647 129.39 84.0047 129.603C83.7453 129.816 83.4173 130.051 83.0022 130.349L83.5304 131.082C83.9375 130.79 84.2921 130.536 84.5788 130.301C84.865 130.066 85.1109 129.83 85.286 129.563L84.5295 129.068ZM83.5673 130.379C83.2559 130.101 82.7463 129.862 82.3968 129.715L82.0459 130.546C82.3997 130.695 82.7789 130.886 82.9653 131.052L83.5673 130.379ZM82.4693 130.508C83.1662 130.053 83.7297 129.65 83.9328 129.48L83.3498 128.789C83.1923 128.922 82.6694 129.298 81.9734 129.753L82.4693 130.508ZM83.9054 129.501C83.9936 129.438 84.1771 129.301 84.2297 129.067C84.2879 128.807 84.1516 128.606 84.0912 128.523L83.3572 129.049C83.3734 129.072 83.3658 129.066 83.3563 129.04C83.3441 129.007 83.3302 128.945 83.3472 128.869C83.3631 128.798 83.397 128.757 83.406 128.747C83.4132 128.739 83.4094 128.745 83.3772 128.768L83.9054 129.501ZM84.0912 128.523L81.9678 125.577L81.2337 126.103L83.3572 129.049L84.0912 128.523ZM80.2896 128.697L81.4235 128.261L81.0982 127.419L79.9643 127.854L80.2896 128.697ZM80.8165 127.923C81.0349 129.08 81.0107 130.438 80.7957 131.454L81.6805 131.641C81.9206 130.507 81.9453 129.029 81.7052 127.757L80.8165 127.923ZM81.2914 131.099C80.9518 131.059 80.3254 131.083 79.9892 131.105L80.0481 132.005C80.3929 131.983 80.9396 131.966 81.1848 131.995L81.2914 131.099ZM80.4557 131.671C80.7419 130.593 80.8033 129.303 80.5696 128.184L79.6843 128.367C79.8869 129.337 79.8349 130.485 79.5815 131.439L80.4557 131.671ZM84.9124 126.006L85.4429 124.981L84.6392 124.566L84.1088 125.591L84.9124 126.006ZM84.9518 125.216C85.9555 125.418 87.1971 125.761 87.8682 126.053L88.2292 125.226C87.4726 124.897 86.1592 124.539 85.1303 124.331L84.9518 125.216ZM87.6416 125.443L87.1134 126.534L87.9277 126.927L88.4559 125.836L87.6416 125.443ZM87.7094 126.32C86.9691 125.98 85.6501 125.581 84.605 125.357L84.4162 126.24C85.4248 126.455 86.6737 126.838 87.3318 127.14L87.7094 126.32ZM83.1214 111.279L84.4701 110.957L84.2587 110.079L82.91 110.402L83.1214 111.279ZM83.9124 110.505C83.8603 112.433 83.2691 114.746 82.509 116.461L83.3361 116.826C84.1363 115.021 84.7607 112.593 84.8164 110.53L83.9124 110.505ZM83.0408 116.208C82.6503 116.102 82.0356 116.002 81.5867 115.985L81.553 116.886C81.9284 116.9 82.475 116.99 82.8042 117.079L83.0408 116.208ZM81.9749 116.636C82.7893 115 83.4588 112.645 83.4679 110.843L82.5635 110.838C82.5553 112.472 81.933 114.691 81.1648 116.234L81.9749 116.636ZM86.442 115.055L87.776 114.743L87.569 113.865L86.2349 114.177L86.442 115.055ZM87.2206 114.288C87.1486 116.337 86.4598 118.787 85.6265 120.626L86.4505 120.998C87.3197 119.081 88.0473 116.514 88.1244 114.32L87.2206 114.288ZM86.1568 120.377C85.7665 120.271 85.1475 120.169 84.6762 120.163L84.666 121.065C85.0484 121.07 85.5907 121.158 85.9202 121.247L86.1568 120.377ZM85.0741 120.819C85.9736 119.057 86.7335 116.552 86.7904 114.63L85.8865 114.602C85.8344 116.36 85.1228 118.735 84.2681 120.409L85.0741 120.819ZM89.8356 118.923L91.182 118.536L90.9307 117.669L89.5843 118.056L89.8356 118.923ZM90.6062 118.146C90.8667 120.827 90.1493 123.782 88.7773 126.237L89.5672 126.677C91.016 124.085 91.7869 120.948 91.5064 118.059L90.6062 118.146ZM89.3312 126.035C88.9321 125.885 88.2924 125.724 87.7947 125.686L87.7259 126.586C88.1242 126.616 88.6798 126.754 89.0134 126.879L89.3312 126.035ZM88.1487 126.367C89.5586 124.009 90.4202 121.009 90.1598 118.445L89.26 118.535C89.4962 120.861 88.7087 123.669 87.3719 125.904L88.1487 126.367ZM92.0224 104.025L91.8268 103.618L91.5286 103.761L91.5747 104.088L92.0224 104.025ZM93.2315 103.447L93.6812 103.4L93.6135 102.764L93.0358 103.04L93.2315 103.447ZM92.6995 110.032L92.5952 110.47L93.0118 110.569L93.1332 110.16L92.6995 110.032ZM91.4378 109.98L91.0101 109.834L90.7654 110.545L91.5099 110.426L91.4378 109.98ZM92.7614 104.896L92.4973 104.529L92.3199 104.657L92.3097 104.874L92.7614 104.896ZM96.3143 102.348L96.6813 102.084L96.4172 101.718L96.0502 101.981L96.3143 102.348ZM96.927 103.198L97.1911 103.564L97.5582 103.301L97.294 102.934L96.927 103.198ZM92.6988 106.23L92.2471 106.209L92.2034 107.141L92.9629 106.597L92.6988 106.23ZM93.7052 108.399L93.441 108.032L93.074 108.296L93.3381 108.662L93.7052 108.399ZM94.8989 110.055L94.5319 110.318L94.796 110.684L95.1631 110.421L94.8989 110.055ZM101.417 105.38L101.682 105.746L102.049 105.483L101.784 105.116L101.417 105.38ZM100.224 103.724L100.591 103.46L100.327 103.094L99.9595 103.357L100.224 103.724ZM92.1005 108.304L91.8364 107.938L91.4694 108.201L91.7335 108.568L92.1005 108.304ZM100.704 102.134L101.071 101.871L100.807 101.504L100.44 101.768L100.704 102.134ZM103.07 105.417L103.334 105.784L103.701 105.52L103.437 105.154L103.07 105.417ZM94.467 111.587L94.1 111.851L94.3641 112.217L94.7311 111.954L94.467 111.587ZM96.0579 105.978L95.7938 105.611L95.4267 105.874L95.6909 106.241L96.0579 105.978ZM97.0562 105.262L97.4232 104.998L97.1591 104.632L96.7921 104.895L97.0562 105.262ZM98.8522 107.753L99.1163 108.12L99.4833 107.856L99.2192 107.49L98.8522 107.753ZM97.8538 108.469L97.4868 108.732L97.7509 109.099L98.118 108.836L97.8538 108.469ZM97.7224 108.163L97.6161 107.725L97.3401 107.791L97.2804 108.068L97.7224 108.163ZM98.8422 107.894L99.2854 107.983L99.4262 107.289L98.7358 107.455L98.8422 107.894ZM95.9183 114.126L95.7884 114.558L96.1043 114.653L96.291 114.382L95.9183 114.126ZM94.723 113.827L94.365 113.551L93.8815 114.176L94.6668 114.275L94.723 113.827ZM97.3113 110.837L96.8895 110.674L96.6571 111.274L97.3019 111.288L97.3113 110.837ZM97.6926 109.852L97.6935 109.401L97.3827 109.4L97.2708 109.689L97.6926 109.852ZM103.988 115.187L103.557 115.05L103.553 115.061L103.55 115.072L103.988 115.187ZM102.906 116.652L103.17 117.018L103.179 117.011L102.906 116.652ZM101.739 117.444L101.372 117.707L101.619 118.049L101.978 117.827L101.739 117.444ZM100.788 116.681L100.56 116.291L99.7665 116.755L100.619 117.099L100.788 116.681ZM102.751 114.984L102.322 114.84L102.317 114.855L102.313 114.871L102.751 114.984ZM99.0405 110.486L99.0266 110.035L98.6696 110.046L98.5976 110.395L99.0405 110.486ZM100.043 110.456L100.486 110.549L100.604 109.988L100.029 110.005L100.043 110.456ZM97.4625 116.176L97.2523 116.575L97.612 116.764L97.8381 116.427L97.4625 116.176ZM96.3406 115.824L95.9873 115.542L95.485 116.169L96.2832 116.272L96.3406 115.824ZM100.934 111.507L100.934 111.056L100.532 111.055L100.485 111.454L100.934 111.507ZM102.049 111.508L102.496 111.573L102.571 111.057L102.049 111.057L102.049 111.508ZM99.0341 118.85L98.824 119.25L99.185 119.439L99.4107 119.1L99.0341 118.85ZM97.8406 118.461L97.4784 118.191L97.0142 118.81L97.7832 118.909L97.8406 118.461ZM103.045 106.124L103.077 105.674L102.665 105.645L102.599 106.051L103.045 106.124ZM104.288 106.211L104.729 106.311L104.846 105.798L104.32 105.761L104.288 106.211ZM103.071 109.93L103.014 110.377L103.353 110.42L103.487 110.107L103.071 109.93ZM101.992 109.792L101.575 109.618L101.346 110.164L101.935 110.24L101.992 109.792ZM99.4682 107.156L99.7692 106.819L99.4409 106.527L99.1392 106.846L99.4682 107.156ZM107.925 110.762L108.365 110.864L108.509 110.247L107.878 110.313L107.925 110.762ZM107.814 112.153L107.84 112.603L108.311 112.577L108.264 112.109L107.814 112.153ZM98.6848 107.984L98.3557 107.675L98.0385 108.01L98.3821 108.319L98.6848 107.984ZM95.9619 102.6L95.6978 102.234L95.3308 102.497L95.5949 102.863L95.9619 102.6ZM96.1968 102.432L96.4609 102.798L96.5291 102.749L96.5751 102.679L96.1968 102.432ZM96.3349 102.222L96.3276 101.771L96.0879 101.774L95.9566 101.974L96.3349 102.222ZM97.3483 102.206L97.7973 102.153L97.7492 101.749L97.341 101.755L97.3483 102.206ZM97.2639 105.735L97.134 106.167L97.6273 106.315L97.7102 105.808L97.2639 105.735ZM96.1678 105.543L95.7204 105.477L95.6465 105.977L96.1534 105.994L96.1678 105.543ZM96.0993 102.791L96.5432 102.705L96.5243 102.608L96.4663 102.528L96.0993 102.791ZM88.5559 106.6L88.3971 106.178L87.9892 106.33L88.1269 106.743L88.5559 106.6ZM89.7843 106.142L90.2155 106.006L90.0721 105.552L89.6255 105.719L89.7843 106.142ZM91.1104 115.551L90.8641 115.929L91.5016 116.343L91.5612 115.587L91.1104 115.551ZM89.7097 114.844L89.2597 114.799L89.2253 115.148L89.5559 115.268L89.7097 114.844ZM89.9697 111.033L89.5234 110.96L89.4932 111.145L89.6026 111.297L89.9697 111.033ZM90.2537 109.296L90.3265 108.85L89.8802 108.777L89.8074 109.223L90.2537 109.296ZM90.3042 109.304L90.6713 109.041L90.5619 108.889L90.377 108.859L90.3042 109.304ZM98.0797 120.091L98.3438 120.457L98.7108 120.194L98.4467 119.828L98.0797 120.091ZM97.0373 120.838L96.6703 121.102L96.9344 121.468L97.3014 121.205L97.0373 120.838ZM92.2181 104.432L93.4272 103.854L93.0358 103.04L91.8268 103.618L92.2181 104.432ZM92.7819 103.494C92.9818 105.374 92.9388 107.632 92.2659 109.903L93.1332 110.16C93.8484 107.745 93.89 105.362 93.6812 103.4L92.7819 103.494ZM92.8039 109.593C92.3999 109.497 91.7869 109.467 91.3657 109.535L91.5099 110.426C91.8074 110.378 92.3005 110.4 92.5952 110.47L92.8039 109.593ZM91.8655 110.127C92.6327 107.896 92.7008 105.598 92.4702 103.962L91.5747 104.088C91.7883 105.602 91.7248 107.756 91.0101 109.834L91.8655 110.127ZM93.0255 105.262L96.5784 102.714L96.0502 101.981L92.4973 104.529L93.0255 105.262ZM95.9472 102.611L96.56 103.461L97.294 102.934L96.6813 102.084L95.9472 102.611ZM96.6629 102.831L92.4347 105.864L92.9629 106.597L97.1911 103.564L96.6629 102.831ZM93.1505 106.252L93.2131 104.917L92.3097 104.874L92.2471 106.209L93.1505 106.252ZM93.3381 108.662L94.5319 110.318L95.266 109.792L94.0722 108.135L93.3381 108.662ZM95.1631 110.421L101.682 105.746L101.153 105.013L94.6348 109.688L95.1631 110.421ZM101.784 105.116L100.591 103.46L99.8566 103.987L101.05 105.643L101.784 105.116ZM99.9595 103.357L93.441 108.032L93.9693 108.765L100.488 104.09L99.9595 103.357ZM92.3647 108.671L100.968 102.501L100.44 101.768L91.8364 107.938L92.3647 108.671ZM100.337 102.397L102.703 105.68L103.437 105.154L101.071 101.871L100.337 102.397ZM102.806 105.051L94.2029 111.221L94.7311 111.954L103.334 105.784L102.806 105.051ZM94.834 111.324L92.4676 108.041L91.7335 108.568L94.1 111.851L94.834 111.324ZM96.322 106.344L97.3203 105.628L96.7921 104.895L95.7938 105.611L96.322 106.344ZM96.6892 105.525L98.4851 108.016L99.2192 107.49L97.4232 104.998L96.6892 105.525ZM98.5881 107.387L97.5897 108.103L98.118 108.836L99.1163 108.12L98.5881 107.387ZM98.2209 108.206L96.4249 105.714L95.6909 106.241L97.4868 108.732L98.2209 108.206ZM97.8288 108.602L98.9485 108.332L98.7358 107.455L97.6161 107.725L97.8288 108.602ZM98.3989 107.804C98.0153 109.696 96.7708 112.091 95.5455 113.87L96.291 114.382C97.5468 112.558 98.8671 110.046 99.2854 107.983L98.3989 107.804ZM96.0482 113.694C95.7794 113.613 95.1685 113.429 94.7792 113.38L94.6668 114.275C94.9632 114.312 95.4889 114.468 95.7884 114.558L96.0482 113.694ZM95.081 114.103C96.409 112.387 97.7687 110.093 98.1645 108.258L97.2804 108.068C96.9272 109.705 95.6659 111.87 94.365 113.551L95.081 114.103ZM97.7331 111L98.1144 110.015L97.2708 109.689L96.8895 110.674L97.7331 111ZM97.6917 110.303C99.696 110.309 101.304 111.129 102.34 112.153C102.859 112.665 103.226 113.222 103.43 113.741C103.635 114.265 103.662 114.718 103.557 115.05L104.419 115.323C104.606 114.733 104.526 114.06 104.272 113.413C104.016 112.761 103.572 112.101 102.976 111.512C101.783 110.332 99.9512 109.407 97.6935 109.401L97.6917 110.303ZM103.55 115.072C103.413 115.595 103.165 115.889 102.632 116.292L103.179 117.011C103.8 116.542 104.218 116.093 104.425 115.301L103.55 115.072ZM102.642 116.285C102.332 116.507 101.933 116.793 101.501 117.06L101.978 117.827C102.44 117.542 102.862 117.239 103.17 117.018L102.642 116.285ZM102.106 117.18C101.878 116.863 101.43 116.453 100.958 116.262L100.619 117.099C100.901 117.212 101.221 117.497 101.372 117.707L102.106 117.18ZM101.017 117.07C101.532 116.769 101.995 116.46 102.299 116.242L101.77 115.509C101.487 115.713 101.048 116.006 100.56 116.291L101.017 117.07ZM102.299 116.242C102.685 115.965 103.041 115.667 103.188 115.097L102.313 114.871C102.248 115.12 102.118 115.26 101.77 115.509L102.299 116.242ZM103.179 115.129C103.336 114.663 103.241 114.127 103.018 113.631C102.791 113.125 102.407 112.605 101.897 112.136C100.872 111.195 99.3011 110.428 97.3206 110.386L97.3019 111.288C99.0538 111.326 100.416 112.002 101.285 112.799C101.72 113.199 102.024 113.622 102.193 113.999C102.367 114.387 102.378 114.674 102.322 114.84L103.179 115.129ZM99.0544 110.937L100.057 110.907L100.029 110.005L99.0266 110.035L99.0544 110.937ZM99.6008 110.363C99.2685 111.941 98.1609 114.326 97.0869 115.924L97.8381 116.427C98.9562 114.763 100.123 112.271 100.486 110.549L99.6008 110.363ZM97.6727 115.776C97.3399 115.602 96.821 115.431 96.3979 115.377L96.2832 116.272C96.5964 116.312 97.0121 116.449 97.2523 116.575L97.6727 115.776ZM96.6939 116.106C97.898 114.603 99.1532 112.178 99.4834 110.577L98.5976 110.395C98.3034 111.821 97.1278 114.119 95.9873 115.542L96.6939 116.106ZM100.934 111.958L102.049 111.959L102.049 111.057L100.934 111.056L100.934 111.958ZM101.601 111.443C101.299 113.521 100.021 116.555 98.6575 118.6L99.4107 119.1C100.829 116.972 102.17 113.814 102.496 111.573L101.601 111.443ZM99.2443 118.451C98.8825 118.261 98.3279 118.069 97.8979 118.014L97.7832 118.909C98.0895 118.948 98.5412 119.101 98.824 119.25L99.2443 118.451ZM98.2027 118.732C98.9464 117.74 99.6761 116.476 100.251 115.205C100.823 113.938 101.256 112.633 101.383 111.56L100.485 111.454C100.373 112.397 99.9805 113.608 99.4264 114.833C98.8744 116.054 98.1767 117.259 97.4784 118.191L98.2027 118.732ZM103.014 106.574L104.257 106.661L104.32 105.761L103.077 105.674L103.014 106.574ZM103.847 106.111C103.577 107.303 103.086 108.747 102.656 109.752L103.487 110.107C103.937 109.058 104.445 107.562 104.729 106.311L103.847 106.111ZM103.128 109.482L102.049 109.345L101.935 110.24L103.014 110.377L103.128 109.482ZM102.41 109.966C102.849 108.917 103.317 107.264 103.492 106.197L102.599 106.051C102.436 107.049 101.987 108.634 101.575 109.618L102.41 109.966ZM99.1672 107.492C101.815 109.851 105.027 111.517 107.972 111.211L107.878 110.313C105.312 110.58 102.348 109.116 99.7692 106.819L99.1672 107.492ZM107.485 110.659C107.389 111.068 107.319 111.742 107.364 112.197L108.264 112.109C108.231 111.776 108.286 111.203 108.365 110.864L107.485 110.659ZM107.788 111.703C104.974 111.862 101.871 110.244 98.9875 107.649L98.3821 108.319C101.328 110.97 104.663 112.783 107.84 112.603L107.788 111.703ZM99.0138 108.294L99.7973 107.465L99.1392 106.846L98.3557 107.675L99.0138 108.294ZM96.226 102.967L96.4609 102.798L95.9327 102.065L95.6978 102.234L96.226 102.967ZM96.5751 102.679L96.7131 102.469L95.9566 101.974L95.8186 102.184L96.5751 102.679ZM96.3421 102.673L97.3555 102.657L97.341 101.755L96.3276 101.771L96.3421 102.673ZM96.8992 102.259C97.0302 103.36 96.9722 104.717 96.8176 105.662L97.7102 105.808C97.8768 104.789 97.9393 103.347 97.7973 102.153L96.8992 102.259ZM97.3938 105.303C97.0818 105.209 96.5268 105.103 96.1822 105.092L96.1534 105.994C96.4018 106.002 96.8778 106.09 97.134 106.167L97.3938 105.303ZM96.6151 105.609C96.7442 104.735 96.7 103.513 96.5432 102.705L95.6553 102.876C95.794 103.591 95.8337 104.71 95.7204 105.477L96.6151 105.609ZM96.4663 102.528L96.329 102.337L95.5949 102.863L95.7322 103.054L96.4663 102.528ZM88.7146 107.023L89.943 106.564L89.6255 105.719L88.3971 106.178L88.7146 107.023ZM89.353 106.277C90.3325 109.377 90.8711 112.833 90.6596 115.515L91.5612 115.587C91.7845 112.755 91.2177 109.178 90.2155 106.006L89.353 106.277ZM91.3568 115.173C91.0411 114.968 90.2939 114.575 89.8635 114.42L89.5559 115.268C89.9087 115.396 90.5939 115.754 90.8641 115.929L91.3568 115.173ZM90.1597 114.888C90.4031 112.416 89.9209 109.262 88.9849 106.458L88.1269 106.743C89.0353 109.464 89.4873 112.487 89.2597 114.799L90.1597 114.888ZM90.416 111.106L90.7 109.369L89.8074 109.223L89.5234 110.96L90.416 111.106ZM90.181 109.741L90.2314 109.749L90.377 108.859L90.3265 108.85L90.181 109.741ZM89.9372 109.567L97.7127 120.354L98.4467 119.828L90.6713 109.041L89.9372 109.567ZM97.8156 119.724L96.7732 120.472L97.3014 121.205L98.3438 120.457L97.8156 119.724ZM97.4043 120.575L90.3367 110.77L89.6026 111.297L96.6703 121.102L97.4043 120.575ZM107.938 97.1234L107.715 96.7306L107.264 96.985L107.578 97.3966L107.938 97.1234ZM108.809 96.6322L109.164 96.3529L108.924 96.0491L108.586 96.2394L108.809 96.6322ZM111.5 101.817L111.606 102.256L112 102.161L111.948 101.759L111.5 101.817ZM110.474 102.063L110.025 102.117L110.086 102.621L110.58 102.502L110.474 102.063ZM107.646 93.0418L107.382 92.6754L107.015 92.9386L107.279 93.305L107.646 93.0418ZM108.586 92.3679L108.953 92.1046L108.689 91.7382L108.322 92.0015L108.586 92.3679ZM115.267 107.786L115.108 108.208L115.568 108.38L115.702 107.91L115.267 107.786ZM114.074 107.552L113.639 107.431L113.486 107.978L114.055 108.003L114.074 107.552ZM102.366 96.5618L102.102 96.1954L101.735 96.4586L101.999 96.825L102.366 96.5618ZM103.394 95.8247L103.761 95.5615L103.497 95.1951L103.13 95.4583L103.394 95.8247ZM105.095 98.1844L105.359 98.5508L105.726 98.2875L105.462 97.9211L105.095 98.1844ZM104.067 98.9214L103.7 99.1847L103.964 99.5511L104.331 99.2878L104.067 98.9214ZM101.961 99.8314L101.697 99.465L101.33 99.7282L101.594 100.095L101.961 99.8314ZM106.601 96.504L106.968 96.2408L106.704 95.8744L106.337 96.1376L106.601 96.504ZM107.266 97.4274L107.53 97.7938L107.897 97.5305L107.633 97.1641L107.266 97.4274ZM102.627 100.755L102.26 101.018L102.524 101.384L102.891 101.121L102.627 100.755ZM104.635 103.85L104.371 103.483L104.004 103.747L104.268 104.113L104.635 103.85ZM109.51 100.354L109.877 100.091L109.612 99.7244L109.245 99.9876L109.51 100.354ZM110.175 101.277L110.439 101.644L110.806 101.381L110.542 101.014L110.175 101.277ZM105.301 104.773L104.934 105.036L105.198 105.403L105.565 105.14L105.301 104.773ZM103.462 100.801L103.126 100.499L102.787 100.874L103.199 101.168L103.462 100.801ZM104.143 100.046L104.393 99.67L104.067 99.4542L103.806 99.7438L104.143 100.046ZM106.461 102.118L106.796 102.421L107.052 102.138L106.816 101.839L106.461 102.118ZM105.717 102.941L105.356 103.212L105.686 103.649L106.053 103.243L105.717 102.941ZM106.08 98.5005L105.91 98.0825L105.462 98.2638L105.673 98.6974L106.08 98.5005ZM107.149 98.0675L107.574 97.9142L107.414 97.4731L106.978 97.6495L107.149 98.0675ZM108.19 101.212L108.348 101.635L108.726 101.494L108.629 101.103L108.19 101.212ZM107.293 101.543L106.863 101.683L107.009 102.13L107.451 101.966L107.293 101.543ZM106.81 107.115L106.499 106.788L106.138 107.13L106.515 107.456L106.81 107.115ZM111.324 102.655L111.673 102.368L111.354 101.982L111.002 102.338L111.324 102.655ZM112.027 103.507L112.353 103.819L112.632 103.53L112.376 103.22L112.027 103.507ZM107.753 107.928L107.457 108.269L107.779 108.547L108.076 108.244L107.753 107.928ZM110.779 90.5283L110.515 90.1619L110.147 90.4251L110.412 90.7915L110.779 90.5283ZM111.806 89.7912L112.173 89.528L111.909 89.1616L111.542 89.4248L111.806 89.7912ZM113.507 92.1509L113.771 92.5173L114.138 92.254L113.874 91.8876L113.507 92.1509ZM112.48 92.8879L112.112 93.1512L112.377 93.5176L112.744 93.2544L112.48 92.8879ZM110.294 93.8107L110.03 93.4443L109.663 93.7075L109.927 94.074L110.294 93.8107ZM115.08 90.378L115.447 90.1148L115.183 89.7484L114.816 90.0116L115.08 90.378ZM115.756 91.316L116.02 91.6824L116.387 91.4192L116.123 91.0528L115.756 91.316ZM110.97 94.7487L110.603 95.012L110.867 95.3784L111.234 95.1151L110.97 94.7487ZM112.92 97.886L112.656 97.5196L112.289 97.7828L112.553 98.1492L112.92 97.886ZM118.102 94.169L118.469 93.9058L118.205 93.5394L117.838 93.8026L118.102 94.169ZM118.778 95.107L119.042 95.4734L119.409 95.2102L119.145 94.8438L118.778 95.107ZM113.596 98.824L113.229 99.0872L113.493 99.4536L113.86 99.1904L113.596 98.824ZM111.757 94.8514L111.421 94.5496L111.076 94.9313L111.5 95.2229L111.757 94.8514ZM112.437 94.0964L112.681 93.7167L112.358 93.5098L112.101 93.7946L112.437 94.0964ZM114.789 96.1228L115.131 96.4186L115.387 96.1238L115.131 95.8282L114.789 96.1228ZM114.071 96.9493L113.716 97.2285L114.054 97.6569L114.412 97.245L114.071 96.9493ZM114.545 92.3851L114.374 91.967L113.917 92.1521L114.142 92.5907L114.545 92.3851ZM115.683 91.9246L116.109 91.7759L115.952 91.3285L115.512 91.5065L115.683 91.9246ZM116.716 95.119L116.872 95.5425L117.252 95.4031L117.155 95.0106L116.716 95.119ZM115.764 95.4677L115.333 95.6016L115.474 96.0549L115.921 95.8912L115.764 95.4677ZM115.237 96.7132L114.973 96.3468L114.606 96.6101L114.87 96.9765L115.237 96.7132ZM116.265 95.9761L116.632 95.7129L116.367 95.3465L116 95.6097L116.265 95.9761ZM121.526 103.275L121.79 103.641L122.157 103.378L121.893 103.012L121.526 103.275ZM120.498 104.012L120.131 104.275L120.395 104.642L120.762 104.378L120.498 104.012ZM115.253 100.815L114.989 100.448L114.622 100.711L114.886 101.078L115.253 100.815ZM120.098 97.3397L120.465 97.0765L120.201 96.7101L119.834 96.9733L120.098 97.3397ZM120.774 98.2777L121.038 98.6441L121.405 98.3809L121.141 98.0145L120.774 98.2777ZM115.929 101.753L115.562 102.016L115.827 102.382L116.194 102.119L115.929 101.753ZM106.859 102.856L106.594 102.489L106.227 102.753L106.491 103.119L106.859 102.856ZM107.886 102.119L108.253 101.855L107.989 101.489L107.622 101.752L107.886 102.119ZM110.995 110.85L110.87 111.283L111.28 111.402L111.422 110.999L110.995 110.85ZM109.777 110.612L109.357 110.444L109.122 111.03L109.754 111.063L109.777 110.612ZM108.161 97.5162L109.032 97.025L108.586 96.2394L107.715 96.7306L108.161 97.5162ZM108.454 96.9116C109.07 97.6909 109.676 98.5693 110.15 99.4411C110.628 100.319 110.958 101.161 111.051 101.875L111.948 101.759C111.834 100.887 111.447 99.9321 110.945 99.0108C110.44 98.0838 109.804 97.1624 109.164 96.3529L108.454 96.9116ZM111.393 101.378L110.368 101.625L110.58 102.502L111.606 102.256L111.393 101.378ZM110.923 102.009C110.828 101.221 110.465 100.323 109.993 99.4441C109.517 98.5571 108.912 97.6546 108.298 96.8503L107.578 97.3966C108.171 98.1728 108.748 99.0346 109.196 99.8695C109.648 100.712 109.95 101.494 110.025 102.117L110.923 102.009ZM107.91 93.4082L108.85 92.7343L108.322 92.0015L107.382 92.6754L107.91 93.4082ZM108.219 92.6311L112.149 98.0832L112.883 97.5567L108.953 92.1046L108.219 92.6311ZM112.149 98.0832C114.294 101.06 115.894 103.938 114.832 107.662L115.702 107.91C116.888 103.752 115.047 100.56 112.883 97.5567L112.149 98.0832ZM115.426 107.363C115.07 107.23 114.456 107.117 114.093 107.101L114.055 108.003C114.336 108.015 114.854 108.112 115.108 108.208L115.426 107.363ZM114.51 107.673C115.575 103.847 113.887 100.927 111.954 98.2453L111.22 98.7718C113.132 101.424 114.584 104.034 113.639 107.431L114.51 107.673ZM111.954 98.2453L108.013 92.7785L107.279 93.305L111.22 98.7718L111.954 98.2453ZM102.63 96.9282L103.658 96.1911L103.13 95.4583L102.102 96.1954L102.63 96.9282ZM103.027 96.088L104.728 98.4476L105.462 97.9211L103.761 95.5615L103.027 96.088ZM104.831 97.818L103.803 98.555L104.331 99.2878L105.359 98.5508L104.831 97.818ZM104.434 98.6582L102.733 96.2985L101.999 96.825L103.7 99.1847L104.434 98.6582ZM102.226 100.198L106.865 96.8704L106.337 96.1376L101.697 99.465L102.226 100.198ZM106.234 96.7673L106.899 97.6906L107.633 97.1641L106.968 96.2408L106.234 96.7673ZM107.002 97.061L102.363 100.388L102.891 101.121L107.53 97.7938L107.002 97.061ZM102.994 100.491L102.328 99.5682L101.594 100.095L102.26 101.018L102.994 100.491ZM104.899 104.216L109.774 100.72L109.245 99.9876L104.371 103.483L104.899 104.216ZM109.142 100.617L109.808 101.541L110.542 101.014L109.877 100.091L109.142 100.617ZM109.911 100.911L105.037 104.407L105.565 105.14L110.439 101.644L109.911 100.911ZM105.668 104.51L105.002 103.587L104.268 104.113L104.934 105.036L105.668 104.51ZM103.798 101.103L104.479 100.348L103.806 99.7438L103.126 100.499L103.798 101.103ZM103.892 100.421C104.713 100.965 105.635 101.802 106.106 102.398L106.816 101.839C106.277 101.157 105.279 100.258 104.393 99.67L103.892 100.421ZM106.125 101.816L105.381 102.638L106.053 103.243L106.796 102.421L106.125 101.816ZM106.078 102.669C105.557 101.979 104.581 101.044 103.724 100.434L103.199 101.168C103.991 101.732 104.897 102.605 105.356 103.212L106.078 102.669ZM106.25 98.9186L107.319 98.4856L106.978 97.6495L105.91 98.0825L106.25 98.9186ZM106.724 98.2209C107.111 99.2875 107.547 100.499 107.751 101.32L108.629 101.103C108.411 100.226 107.955 98.9643 107.574 97.9142L106.724 98.2209ZM108.032 100.788L107.136 101.12L107.451 101.966L108.348 101.635L108.032 100.788ZM107.723 101.404C107.442 100.542 106.915 99.183 106.487 98.3036L105.673 98.6974C106.08 99.5318 106.592 100.851 106.863 101.683L107.723 101.404ZM107.122 107.442C108.278 106.345 109.983 104.653 111.646 102.972L111.002 102.338C109.341 104.017 107.644 105.701 106.499 106.788L107.122 107.442ZM110.975 102.941L111.678 103.793L112.376 103.22L111.673 102.368L110.975 102.941ZM111.7 103.194C110.185 104.77 108.61 106.411 107.43 107.612L108.076 108.244C109.26 107.039 110.84 105.394 112.353 103.819L111.7 103.194ZM108.049 107.587L107.106 106.773L106.515 107.456L107.457 108.269L108.049 107.587ZM111.043 90.8947L112.07 90.1576L111.542 89.4248L110.515 90.1619L111.043 90.8947ZM111.439 90.0545L113.14 92.4141L113.874 91.8876L112.173 89.528L111.439 90.0545ZM113.243 91.7845L112.215 92.5215L112.744 93.2544L113.771 92.5173L113.243 91.7845ZM112.847 92.6247L111.146 90.2651L110.412 90.7915L112.112 93.1512L112.847 92.6247ZM110.558 94.1771L115.344 90.7445L114.816 90.0116L110.03 93.4443L110.558 94.1771ZM114.713 90.6413L115.389 91.5793L116.123 91.0528L115.447 90.1148L114.713 90.6413ZM115.492 90.9496L110.706 94.3823L111.234 95.1151L116.02 91.6824L115.492 90.9496ZM111.337 94.4855L110.661 93.5475L109.927 94.074L110.603 95.012L111.337 94.4855ZM113.184 98.2524L118.366 94.5354L117.838 93.8026L112.656 97.5196L113.184 98.2524ZM117.735 94.4323L118.411 95.3703L119.145 94.8438L118.469 93.9058L117.735 94.4323ZM118.514 94.7406L113.332 98.4576L113.86 99.1904L119.042 95.4734L118.514 94.7406ZM113.963 98.5607L113.287 97.6227L112.553 98.1492L113.229 99.0872L113.963 98.5607ZM112.093 95.1533L112.774 94.3983L112.101 93.7946L111.421 94.5496L112.093 95.1533ZM112.194 94.4761C113.023 95.007 113.94 95.8311 114.447 96.4175L115.131 95.8282C114.57 95.1797 113.588 94.2972 112.681 93.7167L112.194 94.4761ZM114.447 95.8271L113.729 96.6535L114.412 97.245L115.131 96.4186L114.447 95.8271ZM114.426 96.67C113.887 95.9892 112.881 95.0769 112.013 94.48L111.5 95.2229C112.31 95.7794 113.244 96.6324 113.716 97.2285L114.426 96.67ZM114.715 92.8032L115.853 92.3427L115.512 91.5065L114.374 91.967L114.715 92.8032ZM115.256 92.0734C115.639 93.1653 116.072 94.4036 116.277 95.2273L117.155 95.0106C116.937 94.1362 116.487 92.8511 116.109 91.7759L115.256 92.0734ZM116.559 94.6955L115.608 95.0442L115.921 95.8912L116.872 95.5425L116.559 94.6955ZM116.196 95.3339C115.92 94.4483 115.406 93.072 114.947 92.1795L114.142 92.5907C114.569 93.4202 115.065 94.7432 115.333 95.6016L116.196 95.3339ZM115.501 97.0796L116.529 96.3425L116 95.6097L114.973 96.3468L115.501 97.0796ZM115.897 96.2394L121.159 103.538L121.893 103.012L116.632 95.7129L115.897 96.2394ZM121.262 102.909L120.234 103.646L120.762 104.378L121.79 103.641L121.262 102.909ZM120.865 103.749L115.604 96.45L114.87 96.9765L120.131 104.275L120.865 103.749ZM115.517 101.181L120.362 97.7061L119.834 96.9733L114.989 100.448L115.517 101.181ZM119.731 97.603L120.407 98.541L121.141 98.0145L120.465 97.0765L119.731 97.603ZM120.51 97.9113L115.665 101.386L116.194 102.119L121.038 98.6441L120.51 97.9113ZM116.297 101.489L115.62 100.551L114.886 101.078L115.562 102.016L116.297 101.489ZM107.123 103.222L108.15 102.485L107.622 101.752L106.594 102.489L107.123 103.222ZM107.519 102.382L109.326 104.888L110.06 104.362L108.253 101.855L107.519 102.382ZM109.326 104.888C110.378 106.349 111.39 108.36 110.568 110.7L111.422 110.999C112.395 108.229 111.162 105.891 110.06 104.362L109.326 104.888ZM111.121 110.417C110.803 110.325 110.201 110.182 109.8 110.161L109.754 111.063C110.047 111.078 110.568 111.196 110.87 111.283L111.121 110.417ZM110.197 110.78C111.168 108.357 109.915 106.323 109.032 105.099L108.298 105.625C109.169 106.833 110.137 108.499 109.357 110.444L110.197 110.78ZM109.032 105.099L107.226 102.592L106.491 103.119L108.298 105.625L109.032 105.099ZM126.893 92.3995L126.629 92.0331L126.262 92.2963L126.526 92.6627L126.893 92.3995ZM130.006 90.1672L130.373 89.904L130.109 89.5376L129.742 89.8008L130.006 90.1672ZM130.576 90.9586L130.84 91.325L131.207 91.0618L130.943 90.6954L130.576 90.9586ZM127.464 93.1909L127.097 93.4542L127.361 93.8206L127.728 93.5573L127.464 93.1909ZM120.882 85.7279L120.617 85.3615L120.25 85.6248L120.515 85.9912L120.882 85.7279ZM125.697 82.2742L126.064 82.011L125.8 81.6446L125.433 81.9078L125.697 82.2742ZM126.331 83.1536L126.595 83.52L126.962 83.2567L126.698 82.8903L126.331 83.1536ZM121.515 86.6073L121.148 86.8705L121.413 87.2369L121.78 86.9737L121.515 86.6073ZM122.94 89.3873L122.676 89.0209L122.309 89.2841L122.573 89.6505L122.94 89.3873ZM131.999 82.8905L132.366 82.6272L132.102 82.2608L131.735 82.5241L131.999 82.8905ZM132.654 83.7992L132.918 84.1656L133.285 83.9023L133.021 83.5359L132.654 83.7992ZM123.595 90.296L123.228 90.5592L123.492 90.9256L123.859 90.6624L123.595 90.296ZM125.406 90.398L125.142 90.0316L124.775 90.2948L125.039 90.6612L125.406 90.398ZM129.076 87.7656L129.443 87.5023L129.179 87.1359L128.812 87.3992L129.076 87.7656ZM132.605 92.6608L132.869 93.0272L133.236 92.7639L132.972 92.3975L132.605 92.6608ZM128.935 95.2932L128.567 95.5564L128.832 95.9228L129.199 95.6596L128.935 95.2932ZM128.343 94.4724L128.079 94.106L127.712 94.3693L127.976 94.7357L128.343 94.4724ZM131.088 92.5034L131.352 92.8698L131.719 92.6065L131.455 92.2401L131.088 92.5034ZM128.743 89.2497L129.11 88.9865L128.846 88.6201L128.479 88.8833L128.743 89.2497ZM125.998 91.2187L125.631 91.482L125.895 91.8484L126.262 91.5851L125.998 91.2187ZM125.039 90.6612L124.775 90.2948L124.408 90.5581L124.672 90.9245L125.039 90.6612ZM125.92 90.0295L126.287 89.7662L126.023 89.3998L125.656 89.6631L125.92 90.0295ZM130.019 95.7161L130.283 96.0825L130.65 95.8192L130.386 95.4528L130.019 95.7161ZM129.138 96.3478L128.771 96.6111L129.035 96.9775L129.402 96.7142L129.138 96.3478ZM121.668 82.7405L121.404 82.3741L121.037 82.6373L121.301 83.0037L121.668 82.7405ZM122.681 82.0139L123.048 81.7507L122.784 81.3843L122.417 81.6475L122.681 82.0139ZM124.139 84.0365L124.403 84.4029L124.77 84.1397L124.506 83.7733L124.139 84.0365ZM123.126 84.763L122.759 85.0263L123.023 85.3927L123.39 85.1295L123.126 84.763ZM122.339 86.4834L122.002 86.1828L121.666 86.5582L122.077 86.8506L122.339 86.4834ZM123.005 85.7389L123.248 85.3584L122.924 85.1523L122.668 85.4383L123.005 85.7389ZM124.996 87.5124L125.334 87.8124L125.581 87.5354L125.356 87.2399L124.996 87.5124ZM124.282 88.3137L123.922 88.5862L124.255 89.0237L124.62 88.6136L124.282 88.3137ZM126.915 80.5338L126.532 80.2925L126.209 80.8036L126.792 80.968L126.915 80.5338ZM127.509 79.5965L127.622 79.16L127.303 79.0769L127.126 79.3553L127.509 79.5965ZM130.895 81.0809L131.283 81.3118L131.496 80.955L131.157 80.7138L130.895 81.0809ZM130.27 82.1295L129.992 82.4854L130.397 82.7996L130.658 82.3603L130.27 82.1295ZM124.92 84.2546L124.734 83.8432L124.304 84.0363L124.516 84.457L124.92 84.2546ZM125.997 83.7713L126.425 83.6274L126.266 83.1557L125.811 83.3598L125.997 83.7713ZM126.917 86.4687L127.093 86.8842L127.458 86.7299L127.352 86.3484L126.917 86.4687ZM126.012 86.8509L125.586 87.0034L125.748 87.4523L126.188 87.2664L126.012 86.8509ZM124.908 80.4386L124.644 80.0722L124.275 80.3374L124.543 80.7045L124.908 80.4386ZM125.877 79.7437L126.247 79.4834L125.983 79.1119L125.613 79.3773L125.877 79.7437ZM136.396 90.8756L136.628 91.2631L136.638 91.2568L136.396 90.8756ZM135.509 88.5326L135.649 88.1036L134.479 87.7235L135.124 88.7687L135.509 88.5326ZM136.64 88.5882L137.04 88.377L136.888 88.0915L136.568 88.1428L136.64 88.5882ZM137.233 92.0984L137.476 92.4792L137.486 92.4722L137.233 92.0984ZM131.881 85.3537L131.812 84.9078L131.265 84.9918L131.457 85.5102L131.881 85.3537ZM133.064 85.1722L133.493 85.0292L133.372 84.6684L132.995 84.7262L133.064 85.1722ZM132.931 95.0284L132.779 95.4534L133.186 95.598L133.349 95.199L132.931 95.0284ZM131.845 94.8509L131.43 94.6726L131.171 95.2736L131.826 95.3017L131.845 94.8509ZM118.795 91.5154L118.531 91.149L118.164 91.4122L118.428 91.7786L118.795 91.5154ZM122.377 88.9462L122.744 88.6829L122.48 88.3165L122.113 88.5798L122.377 88.9462ZM123.011 89.8255L123.275 90.1919L123.642 89.9287L123.378 89.5623L123.011 89.8255ZM119.429 92.3948L119.062 92.658L119.326 93.0244L119.693 92.7612L119.429 92.3948ZM116.048 87.5496L115.784 87.1831L115.417 87.4464L115.681 87.8128L116.048 87.5496ZM119.527 85.054L119.894 84.7908L119.63 84.4244L119.263 84.6876L119.527 85.054ZM120.161 85.9334L120.425 86.2998L120.792 86.0366L120.528 85.6702L120.161 85.9334ZM116.682 88.4289L116.315 88.6922L116.579 89.0586L116.946 88.7953L116.682 88.4289ZM120.211 93.4793L119.947 93.1129L119.58 93.3762L119.844 93.7426L120.211 93.4793ZM123.793 90.9101L124.16 90.6469L123.896 90.2805L123.529 90.5437L123.793 90.9101ZM124.427 91.7895L124.691 92.1559L125.058 91.8926L124.794 91.5262L124.427 91.7895ZM120.845 94.3587L120.478 94.6219L120.742 94.9884L121.109 94.7251L120.845 94.3587ZM116.771 89.9433L116.507 89.5769L116.14 89.8402L116.404 90.2066L116.771 89.9433ZM121.293 86.7002L121.66 86.437L121.396 86.0706L121.029 86.3338L121.293 86.7002ZM121.948 87.6089L122.212 87.9753L122.579 87.7121L122.315 87.3457L121.948 87.6089ZM117.426 90.852L117.059 91.1153L117.323 91.4817L117.69 91.2184L117.426 90.852ZM122.121 95.1104L121.857 94.744L121.49 95.0073L121.754 95.3737L122.121 95.1104ZM125.234 92.8782L125.601 92.6149L125.337 92.2485L124.97 92.5118L125.234 92.8782ZM128.308 97.1431L128.572 97.5095L128.939 97.2463L128.675 96.8799L128.308 97.1431ZM125.196 99.3754L124.829 99.6386L125.093 100.005L125.46 99.7418L125.196 99.3754ZM124.541 98.4667L124.277 98.1003L123.91 98.3636L124.174 98.73L124.541 98.4667ZM126.743 96.8873L127.007 97.2537L127.374 96.9904L127.11 96.624L126.743 96.8873ZM124.979 94.4397L125.346 94.1764L125.082 93.81L124.715 94.0733L124.979 94.4397ZM122.776 96.0191L122.409 96.2824L122.674 96.6488L123.041 96.3855L122.776 96.0191ZM121.608 95.479L121.343 95.1126L120.976 95.3758L121.241 95.7422L121.608 95.479ZM122.503 94.8367L122.87 94.5734L122.606 94.207L122.239 94.4703L122.503 94.8367ZM126.074 99.7905L126.338 100.157L126.705 99.8936L126.441 99.5272L126.074 99.7905ZM125.178 100.433L124.811 100.696L125.075 101.062L125.443 100.799L125.178 100.433ZM127.157 92.7659L130.27 90.5336L129.742 89.8008L126.629 92.0331L127.157 92.7659ZM129.639 90.4304L130.209 91.2219L130.943 90.6954L130.373 89.904L129.639 90.4304ZM130.312 90.5922L127.2 92.8245L127.728 93.5573L130.84 91.325L130.312 90.5922ZM127.831 92.9277L127.26 92.1362L126.526 92.6627L127.097 93.4542L127.831 92.9277ZM121.146 86.0943L125.961 82.6406L125.433 81.9078L120.617 85.3615L121.146 86.0943ZM125.33 82.5374L125.964 83.4168L126.698 82.8903L126.064 82.011L125.33 82.5374ZM126.067 82.7872L121.251 86.2409L121.78 86.9737L126.595 83.52L126.067 82.7872ZM121.883 86.3441L121.249 85.4647L120.515 85.9912L121.148 86.8705L121.883 86.3441ZM123.204 89.7537L132.263 83.2569L131.735 82.5241L122.676 89.0209L123.204 89.7537ZM131.632 83.1537L132.287 84.0624L133.021 83.5359L132.366 82.6272L131.632 83.1537ZM132.39 83.4328L123.331 89.9296L123.859 90.6624L132.918 84.1656L132.39 83.4328ZM123.962 90.0327L123.307 89.124L122.573 89.6505L123.228 90.5592L123.962 90.0327ZM125.67 90.7644L129.34 88.132L128.812 87.3992L125.142 90.0316L125.67 90.7644ZM128.709 88.0288L132.238 92.924L132.972 92.3975L129.443 87.5023L128.709 88.0288ZM132.341 92.2943L128.67 94.9268L129.199 95.6596L132.869 93.0272L132.341 92.2943ZM129.302 95.0299L128.71 94.2092L127.976 94.7357L128.567 95.5564L129.302 95.0299ZM128.607 94.8388L131.352 92.8698L130.824 92.137L128.079 94.106L128.607 94.8388ZM131.455 92.2401L129.11 88.9865L128.376 89.5129L130.721 92.7666L131.455 92.2401ZM128.479 88.8833L125.733 90.8523L126.262 91.5851L129.007 89.6161L128.479 88.8833ZM126.365 90.9555L125.773 90.1348L125.039 90.6612L125.631 91.482L126.365 90.9555ZM125.303 91.0276L126.184 90.3959L125.656 89.6631L124.775 90.2948L125.303 91.0276ZM125.553 90.2927L129.652 95.9793L130.386 95.4528L126.287 89.7662L125.553 90.2927ZM129.755 95.3497L128.874 95.9814L129.402 96.7142L130.283 96.0825L129.755 95.3497ZM129.505 96.0846L125.406 90.398L124.672 90.9245L128.771 96.6111L129.505 96.0846ZM121.932 83.1069L122.945 82.3804L122.417 81.6475L121.404 82.3741L121.932 83.1069ZM122.314 82.2772L123.772 84.2997L124.506 83.7733L123.048 81.7507L122.314 82.2772ZM123.875 83.6701L122.862 84.3966L123.39 85.1295L124.403 84.4029L123.875 83.6701ZM123.493 84.4998L122.035 82.4772L121.301 83.0037L122.759 85.0263L123.493 84.4998ZM122.677 86.7839L123.343 86.0395L122.668 85.4383L122.002 86.1828L122.677 86.7839ZM122.763 86.1194C123.465 86.5654 124.247 87.2731 124.636 87.785L125.356 87.2399C124.892 86.6296 124.025 85.8524 123.248 85.3584L122.763 86.1194ZM124.658 87.2125L123.944 88.0137L124.62 88.6136L125.334 87.8124L124.658 87.2125ZM124.642 88.0411C124.184 87.4382 123.364 86.6585 122.602 86.1161L122.077 86.8506C122.777 87.349 123.527 88.0671 123.922 88.5862L124.642 88.0411ZM127.297 80.7751L127.891 79.8378L127.126 79.3553L126.532 80.2925L127.297 80.7751ZM127.395 80.0331C128.562 80.3365 129.91 80.934 130.632 81.4481L131.157 80.7138C130.324 80.1203 128.867 79.4836 127.622 79.16L127.395 80.0331ZM130.506 80.8501L129.881 81.8987L130.658 82.3603L131.283 81.3118L130.506 80.8501ZM130.547 81.7736C129.732 81.1401 128.281 80.4501 127.037 80.0996L126.792 80.968C127.952 81.2948 129.29 81.9398 129.992 82.4854L130.547 81.7736ZM125.106 84.6661L126.182 84.1827L125.811 83.3598L124.734 83.8432L125.106 84.6661ZM125.568 83.9151C125.894 84.8792 126.289 85.8984 126.481 86.5891L127.352 86.3484C127.153 85.6303 126.728 84.5245 126.425 83.6274L125.568 83.9151ZM126.74 86.0532L125.835 86.4354L126.188 87.2664L127.093 86.8842L126.74 86.0532ZM126.437 86.6985C126.166 85.9468 125.697 84.7927 125.324 84.0522L124.516 84.457C124.867 85.1537 125.322 86.2712 125.586 87.0034L126.437 86.6985ZM125.173 80.805L126.142 80.1101L125.613 79.3773L124.644 80.0722L125.173 80.805ZM125.508 80.0039C128.094 83.6536 130.371 86.6743 132.192 88.6762C133.099 89.674 133.913 90.4418 134.611 90.9058C134.96 91.1377 135.303 91.3099 135.633 91.3865C135.971 91.4647 136.319 91.4472 136.628 91.263L136.164 90.4881C136.107 90.5221 136.013 90.5483 135.838 90.5076C135.655 90.4652 135.414 90.3558 135.112 90.155C134.509 89.7538 133.754 89.0522 132.861 88.0702C131.081 86.1122 128.831 83.1306 126.247 79.4834L125.508 80.0039ZM136.638 91.2568C136.926 91.0749 136.941 90.754 136.929 90.5875C136.915 90.395 136.852 90.179 136.768 89.9611C136.597 89.5176 136.294 88.9454 135.894 88.2964L135.124 88.7687C135.512 89.3993 135.782 89.9165 135.923 90.2835C135.995 90.4709 136.022 90.5904 136.027 90.6527C136.033 90.7409 135.996 90.594 136.154 90.4943L136.638 91.2568ZM135.369 88.9615C135.592 89.0339 135.867 89.0587 136.093 89.0648C136.324 89.071 136.556 89.0586 136.712 89.0336L136.568 88.1428C136.484 88.1562 136.311 88.168 136.116 88.1628C135.917 88.1574 135.746 88.1352 135.649 88.1036L135.369 88.9615ZM136.241 88.7994C136.828 89.9031 137.075 90.6325 137.13 91.1018C137.183 91.5496 137.057 91.6723 136.979 91.7246L137.486 92.4722C137.933 92.1706 138.106 91.6569 138.028 90.9974C137.953 90.3593 137.642 89.5106 137.04 88.377L136.241 88.7994ZM136.99 91.7178C136.556 91.9936 136.024 92.0056 135.299 91.6537C134.56 91.2949 133.69 90.5866 132.68 89.5444C130.664 87.4647 128.214 84.1895 125.274 80.1727L124.543 80.7045C127.473 84.7065 129.962 88.0377 132.03 90.1714C133.062 91.2359 134.02 92.0361 134.904 92.465C135.802 92.9007 136.688 92.9797 137.476 92.479L136.99 91.7178ZM131.95 85.7996L133.133 85.6181L132.995 84.7262L131.812 84.9078L131.95 85.7996ZM132.635 85.3151C133.805 88.8015 133.614 92.1625 132.512 94.8577L133.349 95.199C134.537 92.295 134.728 88.711 133.493 85.0292L132.635 85.3151ZM133.082 94.6034C132.751 94.4857 132.205 94.4148 131.864 94.4002L131.826 95.3017C132.129 95.3147 132.571 95.3795 132.779 95.4534L133.082 94.6034ZM132.261 95.0292C133.458 92.2476 133.621 88.741 132.305 85.1973L131.457 85.5102C132.697 88.8488 132.53 92.1151 131.43 94.6726L132.261 95.0292ZM119.059 91.8818L122.641 89.3126L122.113 88.5798L118.531 91.149L119.059 91.8818ZM122.01 89.2094L122.644 90.0888L123.378 89.5623L122.744 88.6829L122.01 89.2094ZM122.747 89.4591L119.165 92.0284L119.693 92.7612L123.275 90.1919L122.747 89.4591ZM119.796 92.1315L119.162 91.2522L118.428 91.7786L119.062 92.658L119.796 92.1315ZM116.312 87.916L119.791 85.4204L119.263 84.6876L115.784 87.1831L116.312 87.916ZM119.16 85.3173L119.794 86.1966L120.528 85.6702L119.894 84.7908L119.16 85.3173ZM119.897 85.567L116.418 88.0625L116.946 88.7953L120.425 86.2998L119.897 85.567ZM117.049 88.1657L116.415 87.2863L115.681 87.8128L116.315 88.6922L117.049 88.1657ZM120.475 93.8457L124.057 91.2765L123.529 90.5437L119.947 93.1129L120.475 93.8457ZM123.426 91.1733L124.06 92.0527L124.794 91.5262L124.16 90.6469L123.426 91.1733ZM124.163 91.4231L120.581 93.9923L121.109 94.7251L124.691 92.1559L124.163 91.4231ZM121.212 94.0955L120.578 93.2161L119.844 93.7426L120.478 94.6219L121.212 94.0955ZM117.035 90.3098L121.557 87.0666L121.029 86.3338L116.507 89.5769L117.035 90.3098ZM120.926 86.9635L121.581 87.8721L122.315 87.3457L121.66 86.437L120.926 86.9635ZM121.684 87.2425L117.162 90.4856L117.69 91.2184L122.212 87.9753L121.684 87.2425ZM117.793 90.5888L117.138 89.6801L116.404 90.2066L117.059 91.1153L117.793 90.5888ZM122.386 95.4769L125.498 93.2446L124.97 92.5118L121.857 94.744L122.386 95.4769ZM124.867 93.1414L127.941 97.4064L128.675 96.8799L125.601 92.6149L124.867 93.1414ZM128.044 96.7767L124.932 99.009L125.46 99.7418L128.572 97.5095L128.044 96.7767ZM125.563 99.1122L124.908 98.2035L124.174 98.73L124.829 99.6386L125.563 99.1122ZM124.805 98.8331L127.007 97.2537L126.479 96.5209L124.277 98.1003L124.805 98.8331ZM127.11 96.624L125.346 94.1764L124.612 94.7029L126.376 97.1505L127.11 96.624ZM124.715 94.0733L122.512 95.6527L123.041 96.3855L125.243 94.8061L124.715 94.0733ZM123.143 95.7559L122.488 94.8472L121.754 95.3737L122.409 96.2824L123.143 95.7559ZM121.872 95.8454L122.767 95.2031L122.239 94.4703L121.343 95.1126L121.872 95.8454ZM122.136 95.0999L125.707 100.054L126.441 99.5272L122.87 94.5734L122.136 95.0999ZM125.81 99.4241L124.914 100.066L125.443 100.799L126.338 100.157L125.81 99.4241ZM125.545 100.17L121.975 95.2157L121.241 95.7422L124.811 100.696L125.545 100.17Z" fill="white"/>
</svg>
