<svg width="262" height="262" viewBox="0 0 262 262" fill="none" xmlns="http://www.w3.org/2000/svg">
<path d="M121.217 219.183C120.729 218.86 119.97 218.604 120.127 217.874L116.683 219.281C116.683 219.281 116.697 219.303 116.701 219.313C116.856 219.583 116.996 219.87 117.093 220.163C117.255 220.641 117.567 221.174 117.031 221.587C116.669 221.868 116.244 221.698 115.867 221.508C115.331 221.244 115.11 220.812 115.244 220.23C115.283 220.081 115.329 219.935 115.385 219.801C111.478 221.336 107.359 221.987 103.261 221.741C103.272 221.903 103.267 222.066 103.255 222.226C103.074 222.9 102.225 223.252 101.487 222.927C101.098 222.763 100.81 222.437 100.928 221.967C100.97 221.811 101.039 221.667 101.13 221.524C98.6229 221.188 96.1361 220.523 93.7307 219.513C92.4978 218.995 91.3083 218.393 90.1792 217.722C89.7137 218.118 89.061 218.246 88.3713 218.012C88.2546 217.97 88.1097 217.602 88.1495 217.564C88.3854 217.34 88.628 217.118 88.8678 216.904C84.1021 213.745 80.398 209.258 78.1977 203.873L61.9056 164.004C61.1306 165.137 60.0886 166.023 58.9551 166.809C58.9209 166.834 58.8723 166.837 58.817 166.837L66.8677 186.539C67.0711 186.167 67.416 185.965 67.8904 185.999C68.4337 186.038 68.618 186.706 68.3175 187.478C68.1705 187.866 67.8406 188.145 67.5442 188.194L74.5609 205.365C75.9915 208.866 77.9658 211.972 80.3388 214.655C80.4346 214.577 80.5382 214.518 80.6668 214.493C81.7737 214.241 82.9 214.036 84.0257 213.87C84.7672 213.756 85.4738 214.344 85.5691 215.093C85.648 215.694 85.3188 216.084 84.8207 216.332C84.102 216.692 83.2625 216.852 82.4398 216.822C85.308 219.508 88.6159 221.653 92.1938 223.155C99.9258 226.401 108.886 226.703 117.245 223.292L122.468 221.158C122.175 220.429 121.942 219.669 121.207 219.187L121.217 219.183ZM71.4362 191.388C71.204 191.866 70.895 192.265 70.3685 192.43C70.1867 192.487 69.9407 192.51 69.7922 192.432C69.435 192.251 69.5168 191.962 69.7516 191.722C70.2942 191.161 70.3121 190.105 71.366 190.035C71.8243 190.464 71.6532 190.928 71.44 191.398L71.4362 191.388ZM75.591 202.48C75.3952 202.327 75.419 202.195 75.6573 202.153C75.7183 202.139 75.8181 202.22 75.8615 202.286C75.8905 202.33 75.8444 202.421 75.8324 202.486C75.7542 202.485 75.6485 202.512 75.5938 202.473L75.591 202.48ZM79.8915 210.952C79.8526 210.857 79.7785 210.771 79.7788 210.677C79.7884 210.428 79.9391 210.295 80.1866 210.343C80.2458 210.353 80.2727 210.514 80.3116 210.609C80.1693 210.722 80.0338 210.839 79.8915 210.952Z" fill="white"/>
<path d="M161.902 205.038L202.418 188.481C202.45 188.368 202.506 188.274 202.577 188.178C202.908 187.804 203.331 187.454 203.909 187.728C203.956 187.748 203.997 187.781 204.038 187.814L205.361 187.273C209.489 185.586 213.149 183.119 216.205 180.028C216.213 179.952 216.234 179.883 216.286 179.834C216.405 179.702 216.536 179.615 216.674 179.547C219.375 176.701 221.564 173.364 223.13 169.632C226.525 161.545 226.578 152.653 223.285 144.596L217.186 129.67C217.186 129.67 217.135 129.641 217.114 129.616C216.977 129.472 216.933 129.296 216.96 129.118L211.16 114.925C210.685 114.725 210.284 114.328 210.101 113.826C210.013 113.584 210.081 113.423 210.311 113.307C210.361 113.281 210.415 113.264 210.472 113.241L203.86 97.0591C203.764 97.1371 203.672 97.2246 203.566 97.2903C203.22 97.5314 202.787 97.6253 202.448 97.3253C202.025 96.9429 201.999 96.404 202.211 95.9177C202.358 95.5855 202.729 95.3786 203.131 95.3031L187.271 56.4898C184.074 48.6539 178.161 42.7274 171.061 39.345C171.057 39.4691 171.014 39.6087 170.905 39.7918C170.746 39.8903 170.426 40.1265 170.068 40.2837C169.141 40.6904 168.548 40.5831 168.558 40.0516C168.569 39.3311 169.054 38.983 169.634 38.7459C169.653 38.7381 169.67 38.7371 169.689 38.7293C167.317 37.7335 164.823 37.0097 162.274 36.5859C162.271 36.9313 162.092 37.1874 161.778 37.3548C161.516 37.4894 161.208 37.5489 160.907 37.5884C160.507 37.641 160.108 37.6153 159.77 37.2924C159.747 36.9357 159.829 36.6078 159.955 36.2901C158.126 36.1214 156.275 36.1008 154.418 36.2434C154.26 36.4526 154.023 36.566 153.708 36.4338C153.648 36.4085 153.612 36.362 153.557 36.3233C150.869 36.6057 148.184 37.22 145.546 38.2091C145.388 39.9001 144.824 41.4129 143.654 42.6792C143.571 42.802 143.461 42.9135 143.331 43.0165C143.231 43.1795 143.103 43.315 142.955 43.4258C142.943 43.4526 142.935 43.4727 142.924 43.4995L146.072 42.2128C152.541 39.5694 159.626 39.3832 166.227 41.6424C166.407 41.6076 166.592 41.5986 166.789 41.6181C167.153 41.6527 167.383 41.8361 167.509 42.1176C167.711 42.2019 167.91 42.2701 168.105 42.3517C171.214 43.6568 174.023 45.4509 176.432 47.6524C176.759 47.2693 177.153 47.0803 177.707 47.5809C178.154 47.9812 178.143 48.3468 177.662 48.8542C180.188 51.4518 182.22 54.535 183.634 57.9815L208.556 118.97C208.89 118.661 209.522 118.564 209.902 118.88C210.302 119.222 210.573 119.667 210.347 120.203C210.154 120.57 209.665 120.759 209.255 120.666L219.646 146.094C222.542 153.181 222.494 161.011 219.507 168.127C216.519 175.242 210.964 180.76 203.877 183.656L122.014 217.113C124.147 217.063 125.144 218.238 124.724 220.253L161.063 205.403C161.245 205.045 161.567 204.897 161.91 205.057L161.902 205.038ZM220.581 143.791C220.782 143.443 221.202 143.343 221.605 143.473C221.941 143.574 222.017 143.843 221.944 144.167C221.736 144.663 221.136 144.891 220.777 144.544C220.607 144.386 220.481 143.954 220.581 143.791ZM220.644 146.907C220.355 146.77 220.186 146.534 220.228 146.189C220.348 145.829 220.632 145.752 220.95 145.822C221.267 145.892 221.511 146.081 221.556 146.424C221.61 146.785 221.04 147.09 220.651 146.91L220.644 146.907ZM223.496 158.098C223.414 157.993 223.424 157.705 223.518 157.595C223.714 157.354 224.017 157.363 224.206 157.608C224.288 157.713 224.213 157.949 224.204 158.119C223.961 158.324 223.692 158.346 223.503 158.101L223.496 158.098ZM208.492 182.181C208.911 182.309 209.215 182.579 209.107 183.061C208.877 183.516 208.518 183.713 208.079 183.576C207.67 183.443 207.33 183.127 207.493 182.644C207.643 182.194 208.046 182.041 208.492 182.181ZM196.562 187.544C196.82 187.699 196.92 187.986 196.668 188.455C196.552 188.619 196.315 188.977 195.857 188.698C195.586 188.537 195.497 188.224 195.638 187.944C195.819 187.587 196.115 187.277 196.562 187.544Z" fill="white"/>
<path d="M192.861 105.16L178.841 69.7647C178.743 69.7362 178.661 69.687 178.579 69.6236C178.257 69.3329 177.956 68.9617 178.2 68.4612C178.217 68.4206 178.247 68.385 178.276 68.3494L177.818 67.1942C176.389 63.5873 174.278 60.3807 171.618 57.6942C171.552 57.6865 171.492 57.6672 171.45 57.6215C171.336 57.5173 171.262 57.4025 171.204 57.2812C168.754 54.9058 165.872 52.9706 162.641 51.5728C155.639 48.5439 147.905 48.415 140.866 51.2032L127.826 56.3682C127.826 56.3682 127.801 56.4121 127.779 56.4303C127.652 56.5477 127.499 56.5845 127.344 56.5591L114.945 61.4706C114.767 61.8825 114.418 62.2274 113.979 62.382C113.768 62.456 113.629 62.3957 113.53 62.1946C113.507 62.1505 113.494 62.1031 113.474 62.0532L99.3371 67.6527C99.404 67.7368 99.4793 67.8176 99.5354 67.9107C99.7419 68.2135 99.8195 68.5914 99.5554 68.8835C99.2188 69.2476 98.7499 69.2651 98.3289 69.0761C98.0413 68.9448 97.8648 68.6205 97.8029 68.27L63.8949 81.701C57.0493 84.4077 51.839 89.4953 48.8304 95.6385C48.9383 95.6439 49.0594 95.6825 49.2176 95.7784C49.3017 95.9182 49.5042 96.1985 49.6376 96.5111C49.9826 97.3214 49.8837 97.8365 49.4215 97.8225C48.7949 97.8063 48.4967 97.3812 48.2959 96.8742C48.2893 96.8576 48.2886 96.8435 48.282 96.8269C47.3936 98.8805 46.7406 101.043 46.3481 103.256C46.6485 103.262 46.8696 103.42 47.0122 103.695C47.1268 103.923 47.1757 104.192 47.2072 104.454C47.2492 104.803 47.2231 105.15 46.9391 105.44C46.6286 105.457 46.3442 105.382 46.0691 105.27C45.9052 106.859 45.8699 108.469 45.9765 110.085C46.157 110.225 46.2534 110.432 46.1354 110.705C46.1128 110.757 46.0721 110.788 46.0379 110.835C46.2582 113.175 46.7674 115.517 47.6029 117.82C49.0722 117.974 50.3828 118.479 51.4732 119.508C51.5792 119.582 51.6751 119.678 51.7635 119.792C51.9043 119.881 52.021 119.993 52.116 120.124C52.1392 120.134 52.1566 120.141 52.1798 120.151L51.0902 117.401C48.8517 111.749 48.7563 105.585 50.7832 99.8647C50.7547 99.7077 50.7486 99.5467 50.7675 99.3758C50.8009 99.0597 50.9626 98.861 51.2086 98.754C51.2839 98.5799 51.3451 98.4067 51.4178 98.2384C52.5822 95.5466 54.169 93.1201 56.1065 91.0451C55.7763 90.7576 55.6156 90.4127 56.0563 89.9353C56.4086 89.5505 56.7265 89.564 57.1633 89.9871C59.4464 87.8136 62.1471 86.0757 65.1582 84.8782L118.439 63.7739C118.173 63.48 118.095 62.9295 118.374 62.6026C118.674 62.2575 119.064 62.0264 119.528 62.2272C119.846 62.3992 120.005 62.8264 119.92 63.1821L142.135 54.3829C148.327 51.9305 155.136 52.0456 161.297 54.7106C167.458 57.3756 172.205 62.2594 174.658 68.4509L202.99 139.968C202.966 138.112 203.998 137.256 205.746 137.641L193.171 105.893C192.862 105.732 192.736 105.45 192.878 105.154L192.861 105.16ZM140.141 53.5479C139.84 53.3693 139.757 53.003 139.874 52.654C139.965 52.3629 140.199 52.299 140.48 52.3655C140.91 52.5512 141.103 53.0756 140.797 53.3841C140.658 53.5305 140.282 53.6364 140.141 53.5479ZM142.852 53.5222C142.73 53.7724 142.523 53.917 142.223 53.8769C141.912 53.7697 141.847 53.5213 141.911 53.246C141.975 52.9706 142.142 52.7604 142.44 52.724C142.754 52.6811 143.014 53.1791 142.854 53.5164L142.852 53.5222ZM152.612 51.1465C152.52 51.2167 152.27 51.2051 152.175 51.1226C151.967 50.9501 151.978 50.6862 152.193 50.5242C152.285 50.454 152.49 50.5219 152.637 50.5307C152.813 50.7446 152.829 50.9787 152.615 51.1407L152.612 51.1465ZM173.418 64.4231C173.534 64.0599 173.771 63.7976 174.19 63.8961C174.583 64.1008 174.751 64.4143 174.628 64.7948C174.508 65.1496 174.23 65.4425 173.812 65.2958C173.422 65.1617 173.292 64.8094 173.418 64.4231ZM177.971 74.8495C178.108 74.6267 178.359 74.5421 178.765 74.7659C178.906 74.8685 179.215 75.0778 178.968 75.4737C178.825 75.7081 178.552 75.7827 178.31 75.6574C178.001 75.4962 177.735 75.2363 177.971 74.8495Z" fill="white"/>
<path d="M61.3684 162.674L59.001 156.881C58.7776 156.606 58.6298 156.244 58.5967 155.892L42.2074 115.785C36.1975 101.077 43.2718 84.2264 57.979 78.2165L75.3118 71.1336C75.1076 70.7563 74.9063 70.3723 74.7279 69.9901C74.6668 69.8541 74.7542 69.5519 74.8775 69.446C74.9912 69.3441 75.2584 69.3459 75.4248 69.4C75.7108 69.4885 75.9792 69.6564 76.6965 70.0127C76.7367 70.0296 76.9339 70.1044 77.1293 70.2022C77.203 70.2332 77.2643 70.2747 77.3352 70.3123L79.4091 69.4649C79.2358 69.2581 79.072 69.0475 78.9586 68.8108C78.8191 68.5236 78.9001 68.1242 79.332 68.2031C79.5957 68.2507 79.8559 68.3442 80.1066 68.4416L80.6776 67.0814C81.2739 67.3318 81.8646 67.2014 82.4619 67.0739C82.6 67.0452 82.7745 67.0239 82.9113 67.0734C82.9561 67.0607 82.9941 67.0452 83.0389 67.0324L83.0445 67.019L83.0512 67.0218C83.875 66.4298 84.7299 66.7966 85.5696 66.9363L94.5309 63.2744C94.6852 62.8505 94.9919 62.5143 95.5857 62.4326C95.7001 62.5358 95.8009 62.6333 95.8913 62.7185L140.422 44.5216C140.389 44.2242 140.382 43.9217 140.41 43.6105C140.21 42.9039 139.739 42.375 139.264 41.8365C139.017 41.5598 138.882 41.243 138.883 40.9043L126.696 45.884C126.847 45.8448 126.993 45.8351 127.122 45.8656C127.649 46 127.921 46.8711 127.71 47.7124C127.541 48.3586 126.957 48.7361 126.332 48.5918C125.736 48.4522 125.248 47.7583 125.372 47.2354C125.49 46.7489 125.877 46.2966 126.306 46.0434L119.254 48.9307C119.266 49.0537 119.225 49.2257 119.217 49.3565C119.022 49.3532 118.829 49.3432 118.633 49.3399C118.637 49.294 118.63 49.2359 118.629 49.1805L103.19 55.4898C102.934 55.6663 102.642 55.8192 102.337 55.9436C102.147 56.0213 101.967 56.0561 101.801 56.0573L82.2419 64.0498C82.2419 64.0498 82.2307 64.0766 82.2222 64.0967C82.0202 64.3902 81.7215 64.5012 81.3287 64.423L58.8398 73.6128C59.0211 73.9883 58.9182 74.4023 58.7417 74.7853C58.4712 75.3731 57.9961 75.7727 57.3784 75.9862C57.2155 76.2804 56.9598 76.4015 56.6245 76.3553C56.3147 77.037 55.6838 77.3948 55.1393 77.8282C55.0216 77.9207 54.7932 77.8642 54.4918 77.8874C54.9402 77.2323 54.676 76.3412 55.4291 75.8614C55.5887 75.5186 55.7389 75.1797 55.8986 74.8369C39.6084 81.8767 31.8412 100.754 38.5858 117.259L51.2004 148.129C51.3305 148.176 51.4712 148.235 51.6359 148.312C52.0054 148.483 52.3385 148.741 52.6884 148.958C52.7963 148.964 52.9098 148.957 53.0204 148.956C53.1149 148.956 53.2161 148.959 53.2993 148.986C53.9985 149.217 54.2238 149.619 53.9158 150.033C53.8204 150.167 53.7212 150.29 53.6152 150.411C53.2888 150.795 52.9258 151.115 52.5348 151.408L58.2609 165.421C58.7954 164.148 60.1452 162.941 61.3779 162.671L61.3684 162.674ZM89.284 63.4202C89.3697 63.5351 89.3065 63.7607 89.3088 63.9429C89.125 64.118 88.9389 64.1108 88.8389 63.8797C88.7728 63.7179 88.8018 63.5173 88.79 63.339C88.961 63.3635 89.206 63.3244 89.284 63.4202ZM48.801 80.3294C49.1376 79.659 50.108 79.2625 50.5739 79.5606C51.0879 79.8945 51.2458 81.2454 50.8347 81.7742C50.4538 82.2685 49.3175 82.422 48.9089 82.0061C48.4089 81.4888 48.5189 80.8888 48.8038 80.3227L48.801 80.3294ZM40.9969 93.5877C40.7232 93.4885 40.4269 93.2932 40.587 93.0058C40.6915 92.8132 41.0636 92.6778 41.3145 92.6807C41.6142 92.6804 41.8157 92.9699 41.716 93.2827C41.6106 93.6089 41.3219 93.6768 40.9969 93.5877ZM45.2388 85.6984C44.8924 85.4347 44.7838 85.0739 44.9465 84.63C45.2952 84.0434 46.2571 83.667 46.7302 84.0232C47.2406 84.403 47.0241 84.9189 46.7686 85.3397C46.4076 85.9369 45.7331 86.0793 45.2388 85.6984Z" fill="white"/>
<path d="M73.9025 89.1896C74.5725 89.8649 75.5332 90.3549 76.0695 91.1238L74.8233 89.3239C74.7344 89.3103 74.6417 89.2871 74.5765 89.2361C74.4364 89.1379 74.3068 88.9022 74.319 88.7418C74.3225 88.696 74.3298 88.6597 74.34 88.6167L74.2069 88.4268L72.799 89.0021L73.0941 89.4255C73.0941 89.4255 73.1026 89.4054 73.1054 89.3987C73.2957 89.0767 73.7313 89.0153 73.9025 89.1896Z" fill="white"/>
<path d="M110.497 75.4794C110.497 75.4794 110.5 75.4724 110.51 75.4683C110.51 75.4683 110.507 75.4754 110.497 75.4794Z" fill="white"/>
<path d="M110.77 75.3176C111.245 75.1623 111.612 75.0957 111.899 75.106L111.54 74.1592L110.192 74.6654L110.5 75.4723C110.5 75.4723 110.507 75.4751 110.516 75.4712C110.601 75.42 110.68 75.3431 110.773 75.3109L110.77 75.3176Z" fill="white"/>
<path d="M75.5154 147.924C75.5076 147.901 75.4997 147.878 75.4919 147.855L66.6302 152.498L67.1359 154.141L76.0935 149.444C75.8845 149.183 75.7166 148.706 75.5154 147.924Z" fill="white"/>
<path d="M78.3083 172.917C78.3313 172.843 78.3452 172.773 78.3812 172.704L77.9556 171.586C76.198 172.256 75.0074 171.702 74.483 170.346C73.8033 168.577 74.6841 167.256 77.1485 166.31L77.8893 166.024C80.3537 165.078 81.8915 165.472 82.5711 167.241C83.0842 168.569 82.5408 169.772 80.7714 170.452L81.2779 171.777C83.8588 170.788 84.5569 168.845 83.7648 166.778C82.7566 164.152 80.5086 163.457 76.9972 164.805C73.4858 166.153 72.2774 168.173 73.2855 170.8C74.0624 172.83 75.7753 173.827 78.311 172.91L78.3083 172.917Z" fill="white"/>
<path d="M130.174 78.3567C129.539 77.9168 129.165 77.3423 129.101 76.5746C129.065 76.5119 129.025 76.4559 128.988 76.3932L128.557 79.0729L128.778 79.6543L135.812 76.9962L135.35 75.7697L131.782 77.1167C131.788 77.2531 131.784 77.3934 131.767 77.5281C131.589 78.683 131.048 78.96 130.18 78.3595L130.174 78.3567Z" fill="white"/>
<path d="M137.178 65.5587L136.89 65.4378L136.61 65.2967C136.597 65.2911 136.59 65.2883 136.577 65.2826L136.941 67.9259C136.941 67.9259 136.969 67.9143 136.988 67.9065C137.541 67.7917 138.016 67.9361 138.437 68.2469L138.116 65.8972C137.802 65.7812 137.495 65.668 137.178 65.5587Z" fill="white"/>
<path d="M62.0254 143.687C62.6577 145.856 64.0439 147.212 66.559 146.479C68.9767 145.779 68.7643 143.456 68.8618 141.59C68.4341 141.526 68.0277 141.298 67.703 140.899C67.4683 140.612 67.5609 140.275 67.8304 140.081C68.2959 139.746 68.7809 139.657 69.2711 139.769C69.4595 139.475 69.7341 139.249 70.1321 139.13C71.2104 138.818 71.9587 139.572 72.3032 140.748C72.6292 141.872 72.2421 142.923 71.106 143.258L70.8615 143.332L71.2907 144.819L71.4836 144.763C73.7207 144.11 74.18 142.28 73.6145 140.333C73.0402 138.374 71.6322 137.053 69.5774 137.65C65.53 138.826 68.6982 144.23 65.8658 145.052C64.6569 145.402 63.7572 144.747 63.3208 143.238C62.9495 141.96 63.3336 140.828 64.702 140.428C64.8037 140.401 65.0343 140.346 65.0509 140.344L64.6217 138.857C64.5761 138.871 64.4033 138.903 64.2894 138.938C61.8199 139.657 61.4315 141.649 62.0254 143.687Z" fill="white"/>
<path d="M68.671 160.519L69.2987 161.784L78.105 157.682L79.431 160.367L80.5945 159.827L77.3127 153.198L76.1491 153.739L77.4773 156.417L68.671 160.519Z" fill="white"/>
<path d="M86.5529 188.25L82.1131 190.49L82.6839 191.625L88.9822 188.449C89.3862 188.249 90.2675 187.729 90.2675 187.729L90.3024 187.762C90.3024 187.762 89.5918 188.61 89.2975 189.067L84.8699 195.944L85.3997 196.993L95.2833 192.008L94.7125 190.873L88.5033 194.001C88.1865 194.16 87.2154 194.705 87.2154 194.705L87.1804 194.673C87.1804 194.673 87.9356 193.801 88.1977 193.401L92.5573 186.6L92.0036 185.507L87.441 187.807C87.2894 188.187 86.9568 188.349 86.5598 188.252L86.5529 188.25Z" fill="white"/>
<path d="M80.191 173.406L79.0992 174.28L79.7205 175.841L81.1602 174.664C81.152 174.59 81.1534 174.512 81.1642 174.43C80.7131 174.209 80.3787 173.879 80.191 173.406Z" fill="white"/>
<path d="M101.569 203.676L103.087 204.021L104.422 201.705C104.004 201.443 103.636 201.099 103.349 200.656L101.569 203.676Z" fill="white"/>
<path d="M109.979 193.162L108.031 192.714L104.35 198.948C104.411 199.422 104.44 199.916 104.422 200.428C105.194 200.768 105.962 201.114 106.741 201.457C107.036 201.391 107.335 201.336 107.627 201.261C108.124 201.147 108.649 200.965 108.898 201.63C109.044 202.014 108.973 202.315 108.744 202.542L109.184 202.64L109.387 205.46L111.027 205.833L109.981 193.155L109.979 193.162ZM105.223 200.284L108.046 195.4C108.257 195.048 108.624 194.154 108.624 194.154L108.697 194.168C108.697 194.168 108.646 195.116 108.674 195.538L109.072 201.159L105.233 200.28L105.223 200.284Z" fill="white"/>
<path d="M116.243 193.278L114.696 193.432L114.849 194.947C114.849 194.947 114.862 194.952 114.869 194.955C115.037 194.986 115.285 195.146 115.311 195.29C115.395 195.728 115.232 196.116 115.001 196.461L115.386 200.35C115.897 200.691 116.175 201.399 115.952 201.912C115.853 202.091 115.724 202.21 115.581 202.307L115.89 205.401C116.404 205.096 116.888 204.732 117.345 204.301L116.247 193.287L116.243 193.278Z" fill="white"/>
<path d="M127.789 192.9C127.071 191.101 125.496 190.29 123.381 191.049C123.268 191.562 123.273 192.076 123.31 192.588L123.653 192.448C124.884 191.956 125.833 192.379 126.279 193.495C126.724 194.612 126.262 195.656 125.11 196.11L122.073 197.318L121.198 195.122C121.06 195.001 120.93 194.86 120.812 194.708C120.419 194.18 120.431 193.57 120.451 192.94C120.457 192.683 120.492 192.43 120.524 192.167L118.642 192.914L123.117 204.179L124.565 203.604L122.587 198.629L125.605 197.429L129.671 201.579L131.279 200.938L126.93 196.598C128.022 195.67 128.331 194.294 127.776 192.895L127.789 192.9Z" fill="white"/>
<path d="M133.969 194.494L136.543 193.47C138.631 192.644 139.371 190.787 138.584 188.794C137.807 186.836 136.13 185.967 133.909 186.847L129.888 188.446L133.493 197.525C133.852 197.494 134.192 197.605 134.511 197.952C134.925 198.394 135.082 198.901 135.015 199.456L135.808 199.143L133.96 194.497L133.969 194.494ZM131.862 189.188L134.388 188.183C135.619 187.691 136.596 188.18 137.078 189.399C137.559 190.618 137.127 191.721 135.975 192.175L133.449 193.18L131.862 189.188Z" fill="white"/>
<path d="M144.408 182.451C141.647 183.546 140.734 186.134 142.292 190.043C143.844 193.949 146.286 195.211 149.047 194.116C151.808 193.021 152.721 190.433 151.162 186.524C149.61 182.617 147.169 181.356 144.414 182.454L144.408 182.451ZM148.512 192.78C146.706 193.496 145.051 192.596 143.964 189.854L143.639 189.032C142.552 186.29 143.13 184.499 144.938 183.777C146.744 183.061 148.4 183.961 149.487 186.703L149.812 187.525C150.899 190.267 150.321 192.058 148.512 192.78Z" fill="white"/>
<path d="M88.9157 177.448C87.7154 174.914 85.2218 174.212 81.6346 175.919C78.0498 177.62 77.0108 179.997 78.2112 182.531C79.4115 185.065 81.9051 185.767 85.4922 184.059C89.0771 182.358 90.116 179.981 88.9135 177.454L88.9157 177.448ZM79.4367 181.946C78.652 180.288 79.3985 178.674 81.9149 177.482L82.6693 177.126C85.1857 175.934 86.9077 176.369 87.6989 178.029C88.4835 179.686 87.7371 181.3 85.2207 182.492L84.4663 182.849C81.9499 184.04 80.2278 183.605 79.4367 181.946Z" fill="white"/>
<path d="M161.519 179.5C160.784 177.647 159.131 176.835 156.909 177.715L152.378 179.516L156.854 190.782L158.301 190.207L156.323 185.231L159.341 184.031L163.407 188.181L165.016 187.541L160.667 183.201C161.758 182.272 162.07 180.89 161.512 179.497L161.519 179.5ZM158.84 182.71L155.803 183.917L154.345 180.255L157.382 179.048C158.613 178.556 159.563 178.978 160.008 180.095C160.453 181.212 159.985 182.253 158.84 182.71Z" fill="white"/>
<path d="M170.915 184.02C170.992 184.1 171.16 184.225 171.32 184.387L167.587 174.994L170.662 173.771L170.142 172.457L162.555 175.474L163.075 176.788L166.147 175.572L169.529 184.092C169.529 184.092 169.547 184.069 169.562 184.051C169.902 183.729 170.29 183.781 170.915 184.02Z" fill="white"/>
<path d="M106.668 117.453L104.537 116.559L104.188 117.39L106.319 118.284L106.668 117.453Z" fill="white"/>
<path d="M112.543 131.466C112.543 131.466 112.576 131.519 112.597 131.544C113.021 131.099 113.481 130.922 113.984 131.133C114.68 131.426 114.781 132.161 114.554 133.154C114.672 133.211 114.78 133.272 114.898 133.329L114.964 133.302C115.13 132.907 115.31 132.517 115.482 132.125C115.534 131.926 115.58 131.724 115.631 131.525C115.628 131.477 115.618 131.425 115.615 131.377C115.395 130.811 114.964 130.449 114.375 130.202C113.403 129.794 112.512 129.908 111.604 131.001C111.968 130.941 112.279 131.158 112.547 131.476L112.543 131.466Z" fill="white"/>
<path d="M130.759 147.491C130.948 147.531 131.162 147.526 131.324 147.61C131.433 147.671 131.527 147.727 131.619 147.789L132.033 146.804L130.036 145.966C130.281 146.471 130.517 146.98 130.762 147.485L130.759 147.491Z" fill="white"/>
<path d="M133.605 139.062C133.879 139.177 134.166 139.282 134.444 139.391C134.217 138.767 133.688 138.301 132.998 138.011C133.237 138.324 133.402 138.701 133.601 139.052C133.601 139.052 133.607 139.055 133.614 139.058L133.605 139.062Z" fill="white"/>
<path d="M127.659 145.322C127.572 145.152 127.506 144.99 127.459 144.821C127.236 145.09 127.047 145.389 126.91 145.717L126.839 145.885L127.797 146.287C127.797 146.287 127.806 146.267 127.805 146.251C127.761 145.941 127.709 145.635 127.665 145.325L127.659 145.322Z" fill="white"/>
<path d="M147.709 154.819C147.733 154.648 147.777 154.47 147.838 154.267C147.89 154.107 147.929 153.958 147.968 153.809C147.496 153.469 147.42 152.822 147.695 151.961C147.491 151.678 147.2 151.414 146.803 151.176C146.79 151.171 146.789 151.154 146.778 151.142C146.13 152.722 146.256 154.17 147.702 154.817L147.709 154.819Z" fill="white"/>
<path d="M77.893 104.918L90.8594 110.362L90.1598 112.028L77.1935 106.585L77.893 104.918ZM74.6038 106.421L92.0327 113.738L91.3011 115.481L73.8721 108.164L74.6038 106.421ZM79.3522 108.955L81.9685 110.504C80.576 111.406 78.9295 112.27 77.7441 112.786L76.0187 111.476C77.1486 110.824 78.4856 109.785 79.3522 108.955ZM74.3991 110.075C77.7014 111.439 82.9703 113.538 87.845 115.449L87.0015 117.19C82.2367 115.393 77.1352 113.431 73.7433 112.12L74.3991 110.075ZM81.1081 95.2743L95.3577 101.256L94.626 102.999L80.3764 97.0172L81.1081 95.2743ZM80.5195 100.862L84.3118 102.454L83.7087 103.891L79.9165 102.298L80.5195 100.862ZM79.2088 102.857L83.3649 104.602L82.7619 106.039L78.6057 104.294L79.2088 102.857ZM87.0422 106.146L91.3133 107.939L90.7102 109.375L86.4392 107.582L87.0422 106.146ZM87.9508 103.982L91.7622 105.582L91.1591 107.018L87.3477 105.418L87.9508 103.982ZM86.7943 98.4725L89.0352 99.4132L85.6019 107.591L83.361 106.651L86.7943 98.4725ZM78.7555 97.2829L95.6673 104.383L93.8421 108.73L91.7162 107.838L92.8258 105.195L80.0701 99.8398L78.9605 102.483L76.9303 101.631L78.7555 97.2829ZM84.1606 112.956L86.5496 112.9C87.5809 114.415 88.8246 116.604 89.3289 118.032L86.7465 118.12C86.3522 116.805 85.1981 114.563 84.1606 112.956ZM102.394 111.487L113.752 116.255L112.9 118.285L101.542 113.517L102.394 111.487ZM104.129 117.014L105.872 117.746L103.002 124.583L101.259 123.851L104.129 117.014ZM106.906 118.18L108.649 118.912L105.787 125.73L104.044 124.998L106.906 118.18ZM109.769 106.586L111.971 107.51L109.881 112.49L107.678 111.565L109.769 106.586ZM101.425 114.977L111.135 119.054L110.331 120.969L102.67 117.753L100.21 123.614L98.1603 122.753L101.425 114.977ZM109.986 118.572L112.035 119.432L109.583 125.273C109.229 126.116 108.897 126.585 108.279 126.663C107.625 126.772 106.985 126.526 106.142 126.172C106.318 125.592 106.41 124.73 106.37 124.127C106.745 124.307 107.128 124.468 107.27 124.505C107.423 124.569 107.485 124.528 107.55 124.375L109.986 118.572ZM106.537 114.015L108.997 115.723C107.965 116.732 106.975 117.803 106.227 118.458L104.525 117.09C105.184 116.218 106.023 114.971 106.537 114.015ZM105.568 105.858L107.656 106.735L106.418 109.684L112.221 112.121L113.459 109.171L115.643 110.088L113.576 115.01L103.502 110.781L105.568 105.858ZM97.444 105.624L103.535 108.181L102.674 110.23L96.5837 107.674L97.444 105.624ZM100.939 103.149L102.988 104.009L101.163 108.357L99.1135 107.497L100.939 103.149ZM92.8335 115.426C94.7131 115.832 97.5319 116.362 100.228 116.863L99.6133 118.97C97.1232 118.623 94.4607 118.204 92.3908 117.876L92.8335 115.426ZM96.4406 108.605L98.2547 109.006C97.9122 111.002 97.1882 113.424 96.5561 114.984L94.6191 114.553C95.2895 113.01 96.0295 110.55 96.4406 108.605ZM100.303 109.708L102.252 111.022C100.933 113.036 99.2903 115.501 98.1391 116.955L96.6497 115.834C97.7756 114.279 99.3245 111.663 100.303 109.708ZM119.643 111.452L123.953 113.261L123.06 115.387L118.751 113.578L119.643 111.452ZM117.818 115.8L122.204 117.641L121.312 119.767L116.926 117.925L117.818 115.8ZM124.307 121.272L131.029 124.094L130.153 126.182L123.43 123.36L124.307 121.272ZM115.934 120.235L120.262 122.052L119.354 124.216L115.025 122.399L115.934 120.235ZM118.743 111.074L120.812 111.942L117.885 118.914C116.59 121.997 114.533 126.36 112.014 128.659C111.756 128.146 111.054 127.243 110.598 126.826C112.914 124.69 114.634 120.861 115.816 118.046L118.743 111.074ZM122.669 112.722L124.795 113.615L118.572 128.439C118.138 129.473 117.692 130.052 116.918 130.178C116.145 130.304 115.305 129.996 114.06 129.473C114.252 128.856 114.418 127.709 114.372 127.014C115.053 127.322 115.762 127.62 116 127.697C116.23 127.794 116.358 127.757 116.462 127.508L122.669 112.722ZM132.506 116.874L134.708 117.799L133.149 121.515C132.73 122.51 132.287 122.977 131.354 122.946C130.467 122.912 129.375 122.454 127.92 121.842C128.073 121.209 128.096 120.295 128.034 119.638C128.976 120.078 130.125 120.56 130.439 120.67C130.746 120.799 130.866 120.781 130.962 120.552L132.506 116.874ZM130.397 123.829L130.78 123.99L131.168 124.085L132.343 125.096C129.41 129.722 125.858 132.173 121.921 132.751C121.87 132.121 121.606 131.087 121.307 130.511C124.61 130.208 127.961 127.807 130.236 124.212L130.397 123.829ZM126.47 123.847C126.118 127.529 126.988 131.251 129.318 133.806C128.662 134.026 127.692 134.566 127.141 134.965C124.749 132.023 124.051 127.945 124.496 123.559L126.47 123.847ZM125.86 114.084L133.042 117.099L132.15 119.225L127.132 117.119L120.764 132.288L118.599 131.379L125.86 114.084ZM137.088 119L143.37 121.638L142.558 123.572L136.276 120.935L137.088 119ZM140.608 132.08L148.403 135.353L147.599 137.268L139.804 133.996L140.608 132.08ZM134.359 124.749L141.484 127.74L140.64 129.751L133.515 126.76L134.359 124.749ZM137.135 126.883L139.319 127.799L135.974 135.767C135.54 136.801 135.11 137.342 134.287 137.424C133.491 137.496 132.613 137.172 131.406 136.665C131.606 136.028 131.702 134.942 131.672 134.209C132.364 134.544 133.15 134.874 133.379 134.971C133.617 135.048 133.718 135.023 133.806 134.812L137.135 126.883ZM147.656 135.039L149.974 136.012C149.974 136.012 149.713 136.579 149.546 136.869C147.83 140.046 146.877 141.403 146.072 141.764C145.458 142.046 144.972 142.023 144.385 141.866C143.882 141.722 143.069 141.404 142.204 140.996C142.431 140.348 142.579 139.351 142.476 138.632C143.141 138.979 143.765 139.263 144.072 139.392C144.359 139.512 144.539 139.566 144.792 139.446C145.274 139.266 146.067 138.18 147.527 135.346L147.656 135.039ZM144.311 131.63L146.59 132.587C144.636 136.384 142.464 139.303 137.169 139.197C137.154 138.538 136.898 137.484 136.596 136.862C141.171 137.07 142.733 134.639 144.311 131.63ZM135.848 123.188L137.903 122.317C139.221 123.523 140.91 125.404 141.68 126.628L139.437 127.624C138.782 126.448 137.172 124.488 135.848 123.188ZM140.928 127.507L141.235 127.635L141.582 127.668L142.768 128.707C141.729 130.321 140.403 132.085 139.339 133.17L138.113 131.799C138.924 130.833 140.016 129.196 140.792 127.832L140.928 127.507ZM150.225 126.881L152.466 128.25C149.668 131.266 146.043 131.906 141.838 131.403C141.787 130.773 141.473 129.537 141.206 128.885C145.028 129.655 148.194 129.25 150.225 126.881ZM147.608 122.381L149.504 123.875C147.678 125.542 145.291 126.882 143.332 127.524C143.044 126.975 142.409 125.965 141.993 125.453C143.946 124.988 146.095 123.84 147.608 122.381ZM146.453 125.883C146.858 128.622 148.872 131.337 151.959 133.376C151.268 133.627 150.239 134.254 149.683 134.719C146.518 132.331 144.692 129.221 144.281 125.692L146.453 125.883ZM136.981 126.66L138.214 127.854C136.417 130.096 133.92 132.449 131.673 133.24C131.735 132.501 131.64 131.334 131.533 130.568C133.43 129.968 135.583 128.326 136.981 126.66ZM146.731 124.31L153.894 127.318L153.098 129.214L145.015 125.821L146.731 124.31ZM142.814 121.405L143.312 121.614L143.689 121.682L144.778 123.22C143.329 124.257 141.173 125.154 139.392 125.532C139.134 125.019 138.684 124.266 138.356 123.813C139.897 123.469 141.718 122.566 142.645 121.807L142.814 121.405ZM152.035 136.63L160.328 140.111L159.5 142.084L151.206 138.602L152.035 136.63ZM155.074 129.39L163.214 132.807L162.466 134.588L154.326 131.171L155.074 129.39ZM162.652 129.102L164.339 130.396C163.49 131.076 162.669 131.745 162.056 132.186L160.782 131.088C161.389 130.554 162.171 129.711 162.652 129.102ZM159.417 127.631L161.409 128.467L157.815 137.029L155.823 136.192L159.417 127.631ZM156.192 127.156L157.966 127.225C158.117 128.099 158.16 129.176 158.037 129.845L156.143 129.794C156.305 129.141 156.316 128.041 156.192 127.156ZM153.838 141.509L155.758 140.693C156.621 141.912 157.774 143.725 158.273 144.791L156.205 145.747C155.771 144.686 154.669 142.804 153.838 141.509ZM159.311 133.196C159.864 133.811 161.531 136.065 161.895 136.646L160.032 137.757C159.583 136.734 158.391 134.635 157.771 133.699L159.311 133.196ZM157.578 131.635L158.828 132.791C157.378 134.097 155.276 135.242 153.53 135.59C153.427 135.029 153.104 134.082 152.827 133.561C154.408 133.391 156.339 132.602 157.578 131.635ZM164.505 130.375L173.641 134.211L172.813 136.183L163.677 132.348L164.505 130.375ZM163.894 139.13L163.403 140.298L167.253 141.914L167.743 140.746L163.894 139.13ZM162.736 141.888L162.229 143.095L166.079 144.711L166.585 143.504L162.736 141.888ZM165.051 136.372L164.561 137.54L168.411 139.156L168.901 137.988L165.051 136.372ZM163.707 133.78L171.789 137.173L167.528 147.324L159.445 143.931L163.707 133.78ZM167.434 132.844L169.841 134.193C168.902 135.195 167.906 136.174 167.185 136.817L165.431 135.63C166.088 134.87 166.914 133.707 167.434 132.844ZM161.084 144.641L162.455 146.636C161.06 147.222 158.993 147.638 157.356 147.672C157.177 147.079 156.819 146.162 156.482 145.57C158.036 145.57 159.992 145.151 161.084 144.641ZM163.139 146.991L165.242 146.544C165.997 147.695 166.984 149.371 167.406 150.404L165.129 150.89C164.795 149.916 163.871 148.199 163.139 146.991ZM155.596 136.57L157.665 137.439L156.789 139.526C155.872 141.71 154.207 144.12 149.731 144.156C149.71 143.561 149.462 142.488 149.221 141.937C152.882 141.964 154.085 140.171 154.744 138.601L155.596 136.57ZM176.155 135.199L184.908 138.873L184.071 140.865L175.319 137.19L176.155 135.199ZM173.815 138.947L183.66 143.08L182.815 145.091L172.971 140.958L173.815 138.947ZM169.22 149.409L186.554 156.686L185.661 158.811L168.328 151.535L169.22 149.409ZM172.675 146.601L186.158 152.262L185.29 154.33L171.806 148.67L172.675 146.601ZM181.081 138.168L183.226 139.068L179.463 148.032L177.318 147.131L181.081 138.168ZM178.864 147.42L181.239 148.417L178.425 155.12L176.05 154.123L178.864 147.42ZM185.976 139.817L188.063 140.693L185.338 147.186L183.25 146.31L185.976 139.817ZM189.85 140.407L192.034 141.324L188.593 149.521C188.142 150.594 187.726 151.05 186.861 151.07C186.016 151.098 185.023 150.726 183.682 150.163C183.836 149.529 183.891 148.539 183.826 147.836C184.691 148.244 185.629 148.638 185.925 148.739C186.193 148.852 186.321 148.815 186.425 148.567L189.85 140.407ZM177.349 136.646L179.456 137.531L178.025 140.94C177.14 143.047 175.559 145.311 172.294 145.63C172.183 145.088 171.76 143.897 171.467 143.413C174.31 143.188 175.283 141.568 175.942 139.998L177.349 136.646Z" fill="white"/>
</svg>
