<svg width="588" height="628" viewBox="0 0 588 628" fill="none" xmlns="http://www.w3.org/2000/svg">
<path d="M324.604 200.751C325.279 201.193 325.469 202.1 325.026 202.776L323.253 205.496C316.266 216.272 314.216 220.215 313.999 223.438C313.821 226.087 315.242 228.035 319.452 230.807L320.022 231.174C322.76 232.873 336.004 240.296 340.911 243.271C341.602 243.689 341.823 244.589 341.404 245.28C340.985 245.97 340.086 246.191 339.395 245.772L338.636 245.316C333.117 242.026 320.3 234.841 318.202 233.485C313.051 230.155 310.907 227.406 311.066 223.515L311.081 223.242C311.365 219.005 313.765 214.635 322.579 201.173C323.021 200.498 323.928 200.308 324.604 200.751Z" fill="white"/>
<path d="M319.914 229.473C320.364 230.144 320.185 231.053 319.514 231.503C316.397 233.595 313.579 236.315 311.057 239.67C310.572 240.316 309.655 240.446 309.009 239.961C308.363 239.476 308.233 238.559 308.719 237.913C311.432 234.302 314.488 231.354 317.884 229.074C318.555 228.624 319.464 228.803 319.914 229.473Z" fill="white"/>
<path fill-rule="evenodd" clip-rule="evenodd" d="M315.136 421.817C314.496 421.87 313.526 421.771 312.559 421.579L312.306 422.28L311.998 423.101L311.942 423.278C311.922 423.353 311.914 423.408 311.921 423.441C311.982 423.628 311.881 423.828 311.694 423.891C311.51 423.95 311.308 423.851 311.247 423.665C311.173 423.506 311.114 422.823 311.332 421.867C311.372 421.694 311.427 421.514 311.492 421.326C310.859 421.149 310.286 420.938 309.882 420.709C309.284 420.376 309.04 419.952 309.078 419.673C309.115 419.4 309.479 418.975 310.578 418.849C310.773 418.818 310.951 418.954 310.98 419.147C311.01 419.34 310.877 419.52 310.682 419.551C310.484 419.585 310.322 419.656 310.196 419.718L310.423 419.847C310.506 419.891 310.596 419.934 310.693 419.966C311.039 420.087 311.448 420.211 311.882 420.324C312.16 419.669 312.519 418.964 313.006 418.298C313.243 417.973 313.516 417.672 313.811 417.369C313.967 417.183 314.246 417.158 314.433 417.315C314.619 417.471 314.643 417.75 314.487 417.936C313.875 418.713 313.425 419.542 313.072 420.315L312.958 420.571C313.749 420.727 314.517 420.817 315.044 420.77C315.332 420.746 315.587 420.96 315.614 421.248C315.638 421.54 315.425 421.794 315.136 421.817Z" fill="white"/>
<path fill-rule="evenodd" clip-rule="evenodd" d="M384.401 145.014L384.152 144.143C382.781 139.268 382.112 135.342 381.176 127.853C381.069 126.994 381.678 126.211 382.537 126.103C383.396 125.996 384.179 126.605 384.286 127.464L384.523 129.328C385.375 135.883 386.049 139.464 387.411 144.137C391.992 159.861 404.76 167.031 419.362 160.934C420.16 160.6 421.078 160.977 421.412 161.776C421.745 162.575 421.368 163.493 420.569 163.826C404.147 170.684 389.481 162.447 384.401 145.014Z" fill="#00160A"/>
<path fill-rule="evenodd" clip-rule="evenodd" d="M387.053 188.641L385.658 190.332L386.037 192.433C386.057 192.546 385.982 192.655 385.868 192.675C385.833 192.682 385.797 192.679 385.763 192.667L383.683 191.955L381.718 193.021C381.617 193.076 381.49 193.039 381.435 192.937C381.416 192.903 381.408 192.864 381.41 192.825L381.531 190.798C381.535 190.735 381.51 190.673 381.463 190.631L379.956 189.269C379.87 189.192 379.863 189.06 379.941 188.974C379.967 188.945 380.001 188.924 380.038 188.913L382.186 188.297L383.172 186.331C383.224 186.228 383.349 186.186 383.452 186.238C383.484 186.254 383.511 186.278 383.532 186.307L384.733 188.071L386.914 188.3C387.029 188.312 387.112 188.415 387.1 188.529C387.096 188.57 387.08 188.609 387.053 188.641Z" fill="#00160A"/>
<path d="M310.845 239.969L311.494 240.591C317.592 246.482 321.703 251.962 320.898 254.266C320.192 256.286 318.305 258.708 315.229 261.637C314.644 262.194 313.718 262.171 313.161 261.586C312.604 261.001 312.627 260.075 313.212 259.518C315.871 256.985 317.493 254.939 318.072 253.474L318.093 253.415L318.075 253.382C318.023 253.185 317.909 252.906 317.733 252.566C317.346 251.818 316.703 250.85 315.85 249.736C314.095 247.446 311.578 244.698 308.831 242.091C304.239 237.731 299.741 234.431 296.446 233.008C295.236 232.485 296.559 229.789 298.561 230.769C302.163 232.53 306.44 235.788 310.845 239.969Z" fill="white"/>
<path d="M333.853 224.148C329.477 226.305 327.021 233.269 327.237 234.387C327.39 235.18 313.609 227.007 313.609 227.007C310.891 222.939 313.309 218.571 318.787 215.871C319.512 215.513 334.578 223.791 333.853 224.148Z" fill="white"/>
<path fill-rule="evenodd" clip-rule="evenodd" d="M324.554 211.084C325.602 212.463 327.382 212.872 328.53 211.999C329.678 211.126 329.76 209.301 328.712 207.923C327.665 206.545 325.885 206.136 324.736 207.009C323.588 207.882 323.506 209.706 324.554 211.084Z" fill="#FFB61D"/>
<path d="M441.866 342.243C438.561 334.575 429.881 331.534 422.097 335.295C415.538 338.463 411.973 344.795 413.423 350.364C414.009 352.616 416.451 356.291 419.519 358.397C424.068 361.648 430.608 362.624 434.97 361.004C442.078 358.363 445.213 350.009 441.866 342.243Z" fill="white"/>
<path d="M408.296 271.09C404.649 275.857 395.333 285.061 394.596 283.43C392.548 278.9 396.458 269.561 403.662 260.824L404.245 260.127C410.858 252.34 415.066 247.555 417.326 249.589C419.664 251.692 415.823 261.25 408.296 271.09Z" fill="white"/>
<path fill-rule="evenodd" clip-rule="evenodd" d="M417.431 249.537C419.769 251.64 416.287 261.133 408.76 270.973C405.113 275.741 401.284 279.643 398.173 281.703C398.173 281.703 411.195 265.254 414.995 257.264C416.455 254.194 417.431 249.537 417.431 249.537Z" fill="white"/>
<path d="M373.942 269.27C374.735 269.117 375.502 269.637 375.654 270.43C375.807 271.224 375.287 271.99 374.494 272.142C373.473 272.338 369.403 270.025 360.99 264.748L355.702 261.406C345.292 254.793 338.504 250.303 338.115 249.515C335.543 244.299 338.147 237.172 344.22 229.912C349.522 223.573 356.826 218.038 362.461 216.133C364.219 215.539 371.204 218.931 381.115 224.6L382.53 225.415C391.238 230.46 398.115 235.051 399.729 237.143C400.223 237.783 400.104 238.701 399.465 239.195C399.065 239.503 371.402 227.402 358.82 231.09C350.3 233.588 339.484 245.357 340.63 247.987L340.739 248.221C340.636 248.013 340.718 248.056 340.744 248.073L340.982 248.25C341.159 248.379 341.373 248.531 341.621 248.705L342.77 249.495C343.213 249.796 343.709 250.13 344.254 250.494L345.652 251.423C348.329 253.194 351.706 255.384 355.179 257.604L358.492 259.711C362.532 262.268 366.223 264.557 369.048 266.253L370.511 267.123C371.422 267.659 372.202 268.107 372.839 268.458L373.071 268.586C373.425 268.778 373.725 268.935 373.966 269.054C373.966 269.054 374.158 269.228 373.942 269.27Z" fill="white"/>
<path fill-rule="evenodd" clip-rule="evenodd" d="M401.405 258.963C406.881 252.322 412.641 247.741 417.071 246.877C415.515 245.259 413.238 243.401 410.698 241.694C407.323 239.425 404.056 237.914 403.587 238.073C398.681 239.731 390.881 246.495 384.819 254.333C378.334 262.716 375.296 270.385 377.19 274.228C377.371 274.596 378.108 275.542 378.996 276.415C380.261 277.658 381.718 278.687 383.287 279.346C384.067 279.674 384.922 279.989 385.855 280.299L386.994 280.665C387.677 280.875 388.402 281.083 389.545 281.4L391.135 281.844L391.202 281.863C390.571 276.029 394.39 267.72 400.74 259.782L401.405 258.963ZM402.65 235.302C405.923 234.196 418.231 242.421 421.247 247.458C421.493 247.609 421.729 247.785 421.952 247.987C426.009 251.636 421.644 262.396 413.437 273.347L412.865 274.102C409.037 279.106 404.994 283.226 401.569 285.494C397.476 288.204 393.957 288.367 392.174 285.124C391.786 285.205 391.388 285.122 391.068 284.91L391.016 284.872L390.823 284.806C390.626 284.742 390.384 284.67 390.005 284.564L387.382 283.831C386.438 283.56 385.789 283.359 384.934 283.075C383.933 282.743 383.01 282.402 382.155 282.043C378.697 280.591 375.533 277.483 374.566 275.521C374.053 274.481 373.777 273.31 373.719 272.028C371.989 271.481 367.995 269.142 360.99 264.748L355.702 261.406C345.292 254.793 338.504 250.303 338.115 249.515C337.234 247.729 336.96 245.718 337.225 243.555C337.207 243.545 337.189 243.534 337.172 243.524L336.412 243.068C333.76 241.486 329.421 239.005 325.397 236.704L325.396 236.703L325.145 236.56C322.179 238.577 319.485 241.166 317.062 244.334C321.582 249.109 324.371 253.282 323.696 255.216C322.99 257.237 321.103 259.658 318.027 262.587C317.442 263.144 316.516 263.121 315.959 262.536C315.402 261.951 315.425 261.026 316.01 260.468C318.669 257.935 320.291 255.889 320.87 254.425L320.891 254.365L320.873 254.333C320.821 254.135 320.707 253.856 320.531 253.517C320.144 252.768 319.501 251.8 318.648 250.687C316.893 248.396 314.376 245.648 311.629 243.041C305.351 237.081 299.249 233.101 296.156 233.189C295.251 233.215 294.191 233.791 292.736 235.012L292.475 235.234C292.27 235.41 292.069 235.588 291.816 235.816L290.373 237.116L290.307 237.174C290.263 237.212 290.216 237.253 290.161 237.3C289.55 237.828 288.626 237.76 288.098 237.148C287.57 236.537 287.638 235.613 288.25 235.085L288.983 234.434L290.161 233.371C290.301 233.247 290.431 233.133 290.564 233.019C292.631 231.235 294.243 230.318 296.072 230.265C299.173 230.176 303.58 232.508 308.45 236.379L310.744 233.884L311.327 233.259C312.24 232.293 313.517 231.062 314.477 230.22C310.409 227.326 308.7 224.756 308.842 221.267L308.857 220.993C308.904 220.294 309.009 219.591 309.19 218.844L292.271 208.073C292.033 208.367 291.794 208.665 291.553 208.965C290.413 210.384 288.766 209.684 287.03 208.22L286.845 208.06C285.39 206.784 284.524 205.411 285.045 204.083C287.207 198.573 294.728 190.16 297.879 191.137C298.484 191.325 299.607 192.055 301.593 193.502L301.751 193.618C301.798 193.644 301.845 193.673 301.89 193.705L316.763 204.239C316.797 204.263 316.83 204.288 316.861 204.315C317.891 202.703 319.046 200.924 320.339 198.95C320.523 198.655 320.802 198.443 321.119 198.337C321.321 198.27 321.539 198.247 321.757 198.274C321.877 198.289 321.997 198.319 322.112 198.364C326.372 199.937 331.279 202.523 336.915 206.023L337.597 206.448C340.023 207.97 344.737 211.157 348.742 213.864C351.849 215.964 354.529 217.776 355.383 218.298L355.596 218.422C355.932 218.597 356.171 218.885 356.292 219.215C358.445 217.843 360.549 216.779 362.46 216.133C364.219 215.539 371.204 218.931 381.115 224.6L382.53 225.415C390.78 230.194 397.387 234.567 399.431 236.793C400.572 236.144 401.653 235.639 402.65 235.302ZM396.913 238.392C394.725 236.302 387.79 231.789 379.662 227.14L378.356 226.398C374.673 224.318 371.161 222.451 368.384 221.102L367.608 220.729C366.353 220.135 365.298 219.674 364.481 219.364C364.071 219.209 363.73 219.096 363.469 219.026L363.282 218.98C363.245 218.968 363.252 218.957 363.339 218.925L363.397 218.904C363.375 218.912 363.355 218.919 363.339 218.925L363.04 219.029C351.347 223.226 337.212 240.146 340.63 247.987L340.715 248.169C340.721 248.184 340.729 248.202 340.739 248.221L340.715 248.169C340.651 248.021 340.72 248.057 340.744 248.073L340.982 248.25C341.159 248.379 341.373 248.531 341.621 248.704L342.77 249.495C343.213 249.796 343.709 250.13 344.253 250.494L345.652 251.423C348.329 253.194 351.706 255.384 355.179 257.604L358.492 259.711C362.532 262.268 366.223 264.557 369.048 266.253L370.511 267.123C371.422 267.659 372.202 268.107 372.839 268.458L373.071 268.586C373.41 268.771 373.701 268.923 373.937 269.04C374.751 264.438 377.69 258.853 382.178 252.968L382.505 252.543C386.929 246.823 392.226 241.652 396.913 238.392ZM353.927 220.831C352.865 220.178 349.893 218.172 346.587 215.939C342.67 213.294 338.282 210.331 336.042 208.926C330.752 205.608 326.131 203.106 322.158 201.516L321.029 203.248C316.127 210.807 313.656 215.004 312.542 217.949C313.745 216.56 315.509 215.278 317.925 214.087C318.037 214.032 318.152 213.992 318.268 213.967C318.708 213.592 319.348 213.499 319.892 213.782L320.997 214.349C321.666 214.685 322.775 215.234 324.035 215.859C326.794 217.227 330.28 218.955 331.476 219.595C335.238 221.607 337.619 223.284 339.083 225.158C339.782 226.053 339.574 227.119 338.771 227.794L338.623 227.913C338.377 228.099 338.114 228.241 337.529 228.527L337.344 228.618C335.155 229.683 334.002 230.521 333.003 232.163C332.319 233.287 331.868 234.664 331.693 236.361C331.675 236.538 331.626 236.705 331.551 236.856C333.985 238.254 336.255 239.568 337.903 240.55C338.984 237.189 341.162 233.567 344.22 229.912C347.068 226.507 350.493 223.334 353.927 220.831ZM399.954 283.055C403.065 280.995 406.894 277.093 410.541 272.325C418.069 262.485 422.334 252.265 419.996 250.161C417.735 248.128 410.858 252.34 404.245 260.127L403.662 260.824C396.457 269.561 392.548 278.9 394.596 283.43C395.333 285.061 396.953 285.042 399.954 283.055ZM315.311 206.764C312.754 210.854 311.143 213.715 310.166 215.997L294.126 205.786C296.663 202.679 299.052 199.841 301.508 197.019L315.072 206.626C315.149 206.68 315.229 206.726 315.311 206.764ZM314.994 242.226C317.222 239.369 319.674 236.946 322.349 234.959C320.153 233.701 318.247 232.602 317.043 231.886C316.227 232.513 314.409 234.243 313.167 235.574L310.926 238.017L310.706 238.253C311.674 239.091 312.656 239.982 313.643 240.919L314.292 241.541C314.529 241.77 314.763 241.998 314.994 242.226ZM328.876 235.323C329.145 233.52 329.697 231.967 330.504 230.642C331.81 228.496 333.277 227.379 335.723 226.155L335.943 226.046L335.782 225.895C334.609 224.819 332.893 223.693 330.501 222.392L330.096 222.174C328.948 221.56 325.55 219.875 322.809 218.517L322.808 218.516C321.285 217.761 319.965 217.107 319.347 216.793L319.203 216.718C314.84 218.873 313.374 220.95 313.401 223.455L313.407 223.654C313.431 224.242 313.493 224.64 313.709 225.757C313.714 225.779 313.717 225.802 313.721 225.824C314.568 226.676 315.719 227.564 317.229 228.559L317.798 228.925C319.088 229.726 322.707 231.795 326.688 234.071C327.41 234.484 328.143 234.903 328.876 235.323ZM299.11 195.319L298.73 195.756C296.113 198.778 293.556 201.839 290.797 205.242L289.728 206.563C289.484 206.423 289.199 206.222 288.917 205.984C288.513 205.643 288.162 205.267 287.953 204.957L287.891 204.856L288.003 204.602C288.92 202.606 290.807 199.884 292.877 197.569C293.979 196.336 295.047 195.318 295.929 194.662C296.288 194.395 296.603 194.198 296.856 194.077L297.026 194.002C297.068 193.985 297.089 193.975 297.087 193.963L297.133 193.99C297.395 194.136 298.006 194.539 298.878 195.155L299.11 195.319ZM310.922 211.991C311.189 211.229 310.788 210.394 310.025 210.127C308.684 209.657 307.225 208.792 304.891 207.175L302.516 205.529C301.879 205.098 301.344 204.753 300.837 204.451C300.413 204.199 300.017 203.982 299.64 203.797C298.915 203.442 298.039 203.743 297.684 204.468C297.329 205.194 297.629 206.07 298.355 206.425C298.655 206.571 298.981 206.751 299.34 206.964C299.67 207.161 300.022 207.384 300.42 207.646L301.189 208.165L303.599 209.838C305.931 211.438 307.475 212.333 309.058 212.888C309.821 213.155 310.655 212.754 310.922 211.991Z" fill="#00160A"/>
<path d="M163.228 248.329C129.885 272.923 114.511 311.068 123.497 345.641C125.147 351.987 129.907 362.038 136.335 371.706C144.617 384.162 154.952 395.164 166.969 403.397C199.207 426.392 245.227 433.213 276.784 421.479C304.503 411.173 323.91 389.074 332.303 362.251C332.303 362.251 275.883 318.807 246.004 298.556C220.005 280.934 163.228 248.329 163.228 248.329Z" fill="white"/>
<path d="M338.126 328.059C338.13 313.44 335.449 296.448 329.066 281.637C305.653 227.319 242.782 206.516 187.975 232.997C187.975 232.997 254.796 273.562 288.115 295.324C304.692 306.151 338.126 328.059 338.126 328.059Z" fill="white"/>
<path fill-rule="evenodd" clip-rule="evenodd" d="M419.678 423.321C410.469 427.64 390.528 425.473 365.699 418.427C347.714 413.323 329.236 406.176 315.724 399.206L314.888 398.77L313.097 400.216C302.724 408.645 291.736 418.39 278.275 423.391C245.604 435.531 198.529 428.504 165.445 404.86C153.089 396.379 142.463 385.053 133.959 372.255L133.155 371.031C126.93 361.431 122.321 351.58 120.611 345.014C113.975 319.528 120.49 291.969 138.057 268.589C138.116 268.51 138.182 268.44 138.252 268.376C136.594 267.256 134.566 265.649 133.769 264.851L131.588 262.664C108.133 239.071 86.3503 214.957 85.6704 201.054C85.4116 195.761 88.3134 192.478 94.0981 191.893C99.72 191.324 108.261 193.221 119.939 197.712L120.58 197.959C131.592 202.241 153.23 213.137 185.494 230.649L185.847 230.484C242.821 204.025 307.333 226.608 330.943 283.333C338.164 300.684 338.791 317.028 338.419 325.528L341.448 327.692C369.812 348.015 391.102 365.045 405.641 378.88C429.55 401.631 431.551 417.726 419.678 423.321ZM400.037 382.768C373.302 357.327 323.416 320.885 248.407 272.885L246.126 271.427C187.656 234.081 145.795 210.901 119.52 200.686L118.218 200.185L116.972 199.717C96.8544 192.243 88.2257 193.414 88.5923 200.911C89.2199 213.746 110.95 238.33 133.78 261.641L135.901 263.8C137.946 265.874 139.228 267.286 139.948 268.197C140.002 268.225 140.054 268.26 140.105 268.298C140.453 268.559 140.651 268.945 140.684 269.347C140.706 269.427 140.707 269.485 140.688 269.526C140.677 269.813 140.581 270.099 140.396 270.346C123.343 293.043 118.835 318.811 125.236 343.392C126.897 349.773 131.54 359.631 137.811 369.179L138.189 369.751C146.498 382.255 155.075 394.194 167.123 402.464C199.453 425.569 245.513 432.444 277.256 420.649C290.823 415.608 302.664 407.668 312.244 397.354C311.801 397.111 311.365 396.868 310.936 396.626C310.125 396.168 311.014 396.049 313.605 396.271C313.897 396.207 314.205 396.233 314.485 396.352L315.256 396.433C315.525 396.462 315.806 396.494 316.098 396.528L318.177 397.436C337.797 405.98 353.904 412.039 366.498 415.613L367.941 416.018C391.414 422.546 410.27 424.501 418.428 420.664C427.378 416.455 422.619 404.257 400.037 382.768ZM169.175 332.827C160.152 341.651 150.607 339.738 145.628 330.54C141.027 322.042 142.597 311.463 150.55 308.042C157.424 305.085 166.853 306.141 172.27 310.494C178.822 315.759 178.123 324.076 169.175 332.827ZM169.979 313.345C165.644 309.861 157.655 308.966 151.995 311.401C146.358 313.826 145.149 321.975 148.844 328.799C152.706 335.934 159.397 337.275 166.618 330.213C174.137 322.86 174.623 317.076 169.979 313.345ZM226.382 393.587C220.11 402.263 211.193 405.197 204.051 400.134L203.853 399.99L203.704 399.94C189.967 395.199 183.15 384.178 186.078 373.356L186.183 372.983C189.859 360.367 204.558 355.695 222.098 364.237C233.386 369.735 234.118 382.888 226.382 393.587ZM220.726 367.055C204.802 359.3 192.274 363.282 189.192 373.86C186.981 381.447 190.523 389.3 198.726 394.221L198.889 394.315L198.874 394.258C198.76 393.693 198.965 393.094 199.434 392.721L199.556 392.633C200.282 392.162 201.253 392.368 201.724 393.094C202.803 394.754 203.983 396.074 205.232 397.072L205.406 397.206L205.734 397.312C207.042 397.719 208.419 398.067 209.862 398.351L210.345 398.444C210.896 398.546 211.326 398.924 211.518 399.409L211.532 399.447L211.576 399.448C215.735 399.491 220.048 396.869 223.632 392.037L223.842 391.751C230.569 382.447 229.963 371.554 220.726 367.055ZM362.824 400.92C359.901 401.464 355.295 401.001 349.462 399.687C339.293 397.396 326.478 392.743 316.887 387.881L319.613 388.664C319.62 388.64 319.633 388.616 319.65 388.592L320.443 387.466C325.587 380.131 330.418 372.403 332.658 362.658C316.368 348.322 296.055 332.691 276.185 319.122L269.665 314.678C221.595 281.978 194.44 265.693 162.94 249.493C159.076 252.596 155.44 255.897 152.054 259.374C151.523 259.919 147.644 258.126 147.672 257.434C141.75 254.024 135.34 247.271 132.973 242.795C130.667 238.433 131.197 234.994 135.418 234.55C138.948 234.178 145.255 236.227 154.646 240.88L155.713 241.413L157.855 242.496C192.752 260.228 223.544 279.632 277.835 316.706L280.101 318.261C317.128 343.791 354.952 375.847 365.797 393.724C368.027 397.399 366.76 400.189 362.824 400.92ZM158.709 247.33L151.363 243.632C144.789 240.343 139.976 238.008 137.078 236.894L136.864 236.813C133.291 235.471 134.066 238.602 135.56 241.428C137.823 245.707 144.392 250.734 150.163 254.886C152.872 252.257 155.725 249.735 158.709 247.33ZM218.365 332.415C218.533 333.205 218.028 333.982 217.238 334.15C216.448 334.318 215.671 333.813 215.503 333.023C214.66 329.054 213.288 327.139 212.005 326.931C211.153 326.794 210.201 327.572 209.929 328.749C209.716 329.669 209.89 330.668 210.317 331.204C210.688 331.67 211.235 331.764 212.242 331.267C212.966 330.91 213.843 331.208 214.201 331.932C214.558 332.657 214.26 333.534 213.535 333.891C211.345 334.971 209.296 334.619 208.028 333.026C207.008 331.745 206.675 329.832 207.079 328.089C207.675 325.515 209.97 323.639 212.472 324.044C215.215 324.487 217.298 327.396 218.365 332.415ZM194.769 272.412C195.16 274.734 194.036 276.371 191.841 277.795L191.602 277.947L191.235 278.169C191.173 278.206 191.11 278.242 191.042 278.281L189.744 279.007L189.454 279.175C189.327 279.251 189.225 279.316 189.137 279.377L188.953 279.511L188.875 279.575L188.861 279.628C188.664 280.228 188.095 280.642 187.453 280.634L187.304 280.624C186.501 280.532 185.926 279.806 186.018 279.003C186.146 277.899 186.608 277.434 188.154 276.546L189.674 275.693C189.811 275.614 189.928 275.543 190.059 275.461C191.514 274.559 192.042 273.835 191.884 272.898C191.441 270.268 190.092 269.298 188.355 269.637C186.807 269.939 185.637 271.183 185.702 272.32L185.731 272.601C185.772 273.345 185.24 274.012 184.488 274.125C183.689 274.246 182.944 273.695 182.824 272.897C182.389 270.006 184.772 267.355 187.795 266.766C191.169 266.108 194.056 268.182 194.769 272.412ZM261.522 357.158C258.205 363.309 251.374 365.838 245.559 361.459C244.914 360.973 244.785 360.056 245.271 359.41C245.757 358.765 246.674 358.636 247.319 359.122C251.529 362.292 256.403 360.488 258.947 355.77C261.419 351.186 259.979 347.211 254.589 346.649C248.875 346.053 246.414 347.514 246.236 350.059C246.095 352.08 247.533 354.512 248.623 354.838L248.739 354.864C249.536 354.994 250.078 355.745 249.949 356.542C249.82 357.34 249.068 357.881 248.271 357.752C245.503 357.304 243.075 353.328 243.318 349.855C243.629 345.41 247.705 342.989 254.893 343.739C262.589 344.542 264.894 350.905 261.522 357.158ZM242.228 299.057C242.564 299.739 242.32 300.556 241.686 300.947L241.563 301.016C241.332 301.129 241.18 301.471 240.994 302.52L240.831 303.506C240.643 304.586 240.473 305.146 240.079 305.789C239.179 307.261 238.079 308.387 236.513 309.159C232.503 311.136 224.08 307.801 218.412 302.423C211.617 295.975 210.591 288.454 217.812 282.71C218.445 282.207 219.365 282.312 219.868 282.944C220.371 283.576 220.266 284.496 219.634 284.999C214.029 289.457 214.778 294.941 220.426 300.301C225.303 304.928 232.61 307.821 235.219 306.535C236.228 306.037 236.949 305.3 237.583 304.263L237.655 304.13C237.758 303.913 237.838 303.614 237.931 303.1L238.128 301.928C238.48 299.967 238.92 299.057 240.269 298.392C240.994 298.035 241.871 298.332 242.228 299.057ZM317.979 269.365L317.477 268.583C290.023 226.47 237.659 210.539 188.707 232.396L194.455 235.533C210.93 244.549 229.875 255.102 251.289 267.193L255.184 269.685C266.804 277.131 277.818 284.298 288.232 291.189C288.455 290.859 288.811 290.623 289.235 290.562C291.633 290.22 293.328 290.162 295.283 290.622C301.398 292.063 305.943 295.926 304.928 300.752C304.828 301.227 304.508 301.599 304.097 301.785L307.385 304.006C317.723 311.007 327.38 317.693 336.365 324.067L335.657 320.196C334.592 314.463 333.185 307.371 331.403 300.495C327.28 302.599 322.432 301.125 317.607 297.087C313.505 293.654 309.642 288.448 307.879 284.262C304.582 276.431 309.144 268.859 317.979 269.365ZM299.722 375.984C292.534 383.519 283.252 384.802 279.352 376.761C273.795 365.303 278.269 349.233 288.092 346.631C292.474 345.471 297.477 346.728 301.805 351.071C308.717 358.007 307.039 368.314 299.722 375.984ZM299.733 353.136C296.156 349.547 292.233 348.561 288.841 349.459C281.045 351.524 277.149 365.515 281.984 375.484C284.753 381.195 291.613 380.246 297.605 373.965C303.947 367.318 305.339 358.761 299.733 353.136ZM283.23 241.356L283.141 241.517L282.448 242.643C282.091 243.204 281.727 243.727 281.318 244.257C276.81 250.091 268.985 253.856 255.75 254.268C249.754 254.455 240.375 252.025 234.004 249.006C225.869 245.151 222.401 240.988 220.24 235.044L219.612 233.274L219.53 233.06C219.483 232.944 219.448 232.873 219.407 232.795L219.345 232.683C219.298 232.598 219.288 232.565 219.297 232.555L219.306 232.55L219.217 232.541C218.484 232.43 217.94 231.779 217.977 231.023C218.017 230.216 218.704 229.595 219.511 229.635C220.591 229.688 221.363 230.287 221.905 231.267C222.049 231.526 222.178 231.812 222.315 232.16L222.47 232.57L222.872 233.717C224.782 239.16 227.721 242.791 235.257 246.363C241.241 249.199 250.183 251.515 255.659 251.344C268.044 250.958 275.045 247.59 279.003 242.468C279.267 242.127 279.509 241.787 279.746 241.432L280.069 240.931L280.668 239.952C281.092 239.264 281.993 239.051 282.681 239.475C283.325 239.872 283.553 240.689 283.23 241.356ZM363.296 395.242C358.427 387.216 347.803 376.111 334.168 363.993L333.994 364.629C332.289 370.713 327.511 383.648 322.423 389.468L326.673 390.671C337.184 393.628 344.994 395.682 350.105 396.833L351.149 397.062C356.123 398.118 360.015 398.467 362.289 398.044L362.632 397.975C364.246 397.614 364.387 397.04 363.296 395.242ZM297.102 271.724C297.133 275.767 294.272 278.825 290.027 278.248C289.226 278.139 288.666 277.402 288.774 276.601C288.883 275.801 289.62 275.24 290.421 275.349C292.756 275.667 294.195 274.129 294.177 271.746C294.157 269.237 292.5 267.296 289.797 267.204C287.306 267.12 284.603 268.362 283.272 270.067C282.103 271.562 282.34 272.784 284.387 273.818C285.108 274.182 285.397 275.061 285.033 275.782C284.669 276.504 283.79 276.793 283.068 276.429C279.339 274.546 278.686 271.184 280.966 268.265C282.878 265.819 286.477 264.165 289.896 264.28C294.257 264.428 297.071 267.725 297.102 271.724ZM294.612 293.469C293.568 293.224 292.57 293.173 291.365 293.263C294.996 295.676 298.553 298.053 302.036 300.395L302.045 300.273L302.066 300.15C302.65 297.371 299.382 294.593 294.612 293.469ZM320.613 273.696L319.967 272.588L319.832 272.559C311.865 270.85 308.074 274.89 310.467 281.409C312.186 286.091 321.307 296.272 323.148 297.086C324.942 297.879 328.377 298.306 330.608 297.533C329.386 293.154 328.008 288.961 326.462 285.375C324.883 281.712 323.142 278.19 321.249 274.815L320.613 273.696Z" fill="#00160A"/>
<path d="M399.319 382.132C423.228 404.883 419.885 405.74 397.302 384.251C370.567 358.811 241.208 276.802 241.208 276.802C182.738 239.456 185.749 233.022 242.546 269.159L246.043 271.388C246.701 271.809 312.739 312.274 353.269 344.471C357.83 348.095 396.597 379.542 399.319 382.132Z" fill="white"/>
<path fill-rule="evenodd" clip-rule="evenodd" d="M443.559 341.214C439.754 332.387 429.75 328.965 420.962 333.211C413.599 336.769 409.446 344.047 411.175 350.689C411.631 352.439 413.889 357.02 418.078 359.895L418.421 360.135C423.729 363.747 430.807 364.494 435.472 362.76C443.743 359.687 447.364 350.041 443.559 341.214ZM421.871 335.093C421.928 335.065 421.985 335.038 422.041 335.012C422.085 335.057 422.133 335.098 422.186 335.136C429.151 340.093 433.976 342.895 436.797 343.572C438.66 344.019 440.414 343.82 442.012 342.979C442.446 344.174 442.73 345.377 442.873 346.565C442.821 346.583 442.77 346.606 442.721 346.632C440.431 347.863 438.263 348.16 436.161 347.555C433.747 346.859 431.254 345.803 428.728 344.45C426.027 343.004 423.432 341.3 421.04 339.497C420.482 339.076 419.963 338.67 419.484 338.284L418.799 337.722C418.701 337.641 418.612 337.565 418.53 337.496L418.333 337.325C419.384 336.477 420.568 335.722 421.871 335.093ZM416.781 338.745C415.428 340.15 414.393 341.728 413.73 343.378L414.328 343.779C423.771 350.074 430.473 353.567 434.32 354.243C438.21 354.927 440.772 354.592 442.033 353.388C442.063 353.359 442.093 353.333 442.125 353.309C442.639 351.91 442.93 350.402 442.976 348.841C440.474 350.01 437.996 350.258 435.583 349.563C433.015 348.823 430.39 347.71 427.742 346.292C424.938 344.79 422.255 343.029 419.782 341.165C419.061 340.621 418.401 340.1 417.807 339.614L417.124 339.043L416.781 338.745ZM413.017 349.321C412.802 348.051 412.837 346.753 413.098 345.47C422.814 351.953 429.729 355.558 433.958 356.301C436.582 356.763 438.761 356.811 440.489 356.415C439.862 357.291 439.124 358.084 438.285 358.773C438.165 358.774 438.043 358.794 437.924 358.839C435.62 359.69 432.889 359.633 429.705 358.636C426.65 357.679 421.543 354.881 414.444 350.258L413.017 349.321ZM414.275 352.638C415.395 354.587 417.198 356.757 419.293 358.195C423.099 360.915 428.297 362.043 432.448 361.39C431.368 361.249 430.245 360.995 429.081 360.63C425.943 359.647 421.026 356.988 414.275 352.638ZM424.719 334.366L424.374 334.122C431.091 332.133 437.973 334.89 441.173 341.056C439.989 341.722 438.711 341.882 437.285 341.54C434.98 340.987 430.755 338.587 424.719 334.366Z" fill="#00160A"/>
<path fill-rule="evenodd" clip-rule="evenodd" d="M525.114 463.846C525.18 464.031 525.082 464.23 524.898 464.296C524.642 464.421 524.423 464.325 524.224 464.148C524.045 463.988 523.919 463.654 523.803 463.481C522.645 461.529 523.352 459.198 524.931 457.547C526.447 455.961 528.747 455.051 530.714 455.603C530.944 455.664 531.08 455.9 531.018 456.13C530.957 456.36 531.162 457.394 530.932 457.333C529.257 456.904 528.206 456.574 525.879 458.904C523.553 461.234 525.064 463.708 525.114 463.846Z" fill="white"/>
<path fill-rule="evenodd" clip-rule="evenodd" d="M345.793 150.594C345.897 149.88 345.402 149.218 344.688 149.115C343.974 149.012 343.312 149.507 343.208 150.22C343.095 151.005 342.979 151.705 342.859 152.332C342.225 152.033 341.534 151.763 340.771 151.504L339.208 150.987C338.524 150.758 337.784 151.127 337.555 151.811C337.327 152.495 337.695 153.235 338.379 153.464L340.248 154.087C340.99 154.35 341.636 154.621 342.214 154.929C341.686 156.506 341.075 157.208 340.318 157.603L340.122 157.699L340.005 157.765C339.444 158.116 339.229 158.842 339.528 159.448C339.847 160.095 340.63 160.361 341.277 160.042L341.507 159.928C342.689 159.318 343.617 158.338 344.355 156.565C344.947 157.203 345.488 157.986 346.046 158.983C346.398 159.612 347.194 159.837 347.823 159.484C348.453 159.132 348.677 158.336 348.325 157.707C347.357 155.976 346.38 154.742 345.211 153.789C345.377 153.069 345.531 152.27 345.673 151.382L345.793 150.594Z" fill="#00160A"/>
<path fill-rule="evenodd" clip-rule="evenodd" d="M175.655 452.653L176.052 453.467C178.249 458.03 179.59 461.78 181.812 468.993C182.067 469.82 181.603 470.697 180.775 470.952C179.948 471.207 179.071 470.743 178.816 469.916L178.081 467.555C176.204 461.606 174.931 458.272 172.844 454.039C165.602 439.349 151.783 434.505 138.462 443.045C137.733 443.512 136.764 443.3 136.297 442.572C135.83 441.843 136.042 440.874 136.77 440.406C151.752 430.802 167.626 436.366 175.655 452.653ZM175.589 466.828L175.642 466.631C175.69 466.443 175.574 466.247 175.386 466.201C175.195 466.151 175.004 466.267 174.955 466.456L174.905 466.656C174.856 466.845 174.97 467.037 175.16 467.087C175.348 467.133 175.543 467.02 175.589 466.828ZM160.091 442.805C160.248 442.101 159.804 441.404 159.1 441.247C156.257 440.615 153.685 440.4 151.382 440.611C149.141 440.816 145.854 442.13 141.422 444.549L140.489 445.065C139.859 445.417 139.635 446.213 139.987 446.843C140.34 447.472 141.136 447.696 141.765 447.344C146.37 444.764 149.695 443.388 151.62 443.212C153.635 443.028 155.94 443.22 158.533 443.797C159.237 443.953 159.934 443.51 160.091 442.805ZM170.269 453.678C170.85 454.106 170.974 454.924 170.546 455.504C170.118 456.085 169.301 456.209 168.72 455.782C166.315 454.01 163.353 453.212 159.783 453.398C155.952 453.597 152.582 453.876 149.677 454.233C148.961 454.321 148.309 453.812 148.221 453.096C148.133 452.38 148.642 451.729 149.358 451.641C152.329 451.275 155.758 450.992 159.647 450.789C163.797 450.573 167.355 451.532 170.269 453.678ZM173.688 460.458C173.964 459.792 173.648 459.028 172.982 458.751C170.305 457.641 168.007 456.907 166.075 456.552C164.158 456.199 161.457 456.012 157.953 455.981C157.232 455.974 156.642 456.554 156.635 457.275C156.629 457.996 157.209 458.586 157.93 458.592C161.296 458.622 163.861 458.801 165.603 459.121C167.332 459.438 169.462 460.118 171.981 461.164C172.647 461.44 173.412 461.124 173.688 460.458ZM158.351 462.703C157.685 462.427 157.369 461.662 157.646 460.996C157.922 460.33 158.686 460.014 159.352 460.29C161.872 461.336 164.002 462.016 165.73 462.334C167.472 462.654 170.037 462.832 173.404 462.862C174.125 462.868 174.705 463.458 174.698 464.179C174.692 464.9 174.102 465.48 173.381 465.474C169.876 465.443 167.176 465.255 165.258 464.902C163.327 464.548 161.028 463.814 158.351 462.703ZM166.19 447.814C166.296 447.1 165.802 446.437 165.089 446.331C160.005 445.582 156.348 445.307 154.058 445.517C151.761 445.727 148.904 446.498 145.466 447.823C144.793 448.083 144.458 448.838 144.717 449.511C144.977 450.184 145.733 450.52 146.406 450.26C149.637 449.015 152.275 448.303 154.296 448.118C156.181 447.945 159.325 448.159 163.681 448.768L164.708 448.916C165.422 449.021 166.085 448.527 166.19 447.814Z" fill="#00160A"/>
<path fill-rule="evenodd" clip-rule="evenodd" d="M162.135 422.172L160.739 423.863L161.118 425.964C161.139 426.077 161.064 426.186 160.95 426.206C160.915 426.213 160.879 426.21 160.845 426.198L158.764 425.487L156.8 426.552C156.699 426.607 156.572 426.57 156.517 426.468C156.498 426.434 156.489 426.395 156.492 426.356L156.613 424.329C156.617 424.266 156.591 424.204 156.544 424.162L155.037 422.8C154.952 422.723 154.945 422.591 155.022 422.505C155.049 422.476 155.082 422.455 155.12 422.444L157.268 421.828L158.254 419.862C158.305 419.759 158.431 419.717 158.534 419.769C158.566 419.785 158.593 419.809 158.613 419.838L159.815 421.602L161.996 421.831C162.111 421.843 162.194 421.946 162.182 422.06C162.178 422.101 162.161 422.14 162.135 422.172Z" fill="#00160A"/>
<path fill-rule="evenodd" clip-rule="evenodd" d="M445.394 363.542C445.224 364.162 444.8 365.04 444.288 365.883L444.861 366.36L445.527 366.93C445.666 367.043 445.764 367.111 445.82 367.119C446.016 367.126 446.17 367.289 446.165 367.486C446.158 367.679 445.996 367.836 445.8 367.829C445.625 367.844 444.963 367.666 444.14 367.134C443.991 367.038 443.84 366.924 443.686 366.799C443.303 367.333 442.908 367.8 442.556 368.101C442.038 368.549 441.556 368.633 441.308 368.502C441.063 368.374 440.788 367.886 441.046 366.81C441.083 366.617 441.272 366.496 441.464 366.534C441.655 366.573 441.778 366.759 441.741 366.952C441.705 367.15 441.717 367.327 441.731 367.467L441.93 367.297C442 367.234 442.071 367.165 442.135 367.085C442.367 366.801 442.623 366.458 442.877 366.09C442.357 365.604 441.818 365.026 441.358 364.341C441.134 364.007 440.945 363.647 440.761 363.266C440.639 363.056 440.711 362.786 440.922 362.664C441.133 362.542 441.403 362.615 441.525 362.825C442.045 363.666 442.671 364.372 443.277 364.969L443.478 365.163C443.895 364.473 444.243 363.783 444.378 363.271C444.454 362.992 444.743 362.825 445.022 362.899C445.305 362.976 445.471 363.263 445.394 363.542Z" fill="#00160A"/>
<path fill-rule="evenodd" clip-rule="evenodd" d="M159.659 183.811C158.975 182.625 157.704 180.837 156.292 179.559C155.083 178.467 140.418 185.697 141.538 190.917C142.275 196.294 146.803 200.338 154.353 195.866C154.512 195.774 154.893 195.421 155.329 195.017C155.969 194.424 156.727 193.721 157.083 193.565C158.346 193.021 159.226 192.185 159.456 191.008C160.954 189.125 161.323 186.701 159.659 183.811ZM145.505 189.963C146.083 186.852 154.048 183.024 155.857 185.357C155.412 187.584 154.346 189.941 151.139 192.14C148.964 192.521 147.285 191.889 145.817 191.336C145.659 191.277 145.505 191.219 145.352 191.163C145.374 190.788 145.429 190.386 145.505 189.963Z" fill="white"/>
<path fill-rule="evenodd" clip-rule="evenodd" d="M148.765 184.925C149.896 184.111 151.346 183.571 153.125 183.464C153.93 183.416 154.839 183.887 155.66 184.632C156.619 185.503 157.483 186.72 157.949 187.527C159.081 189.494 158.836 191.141 157.825 192.417C157.67 193.216 157.076 193.783 156.221 194.151C155.817 194.327 154.641 195.556 154.377 195.709C149.27 198.733 146.196 195.978 145.687 192.323C144.491 191.428 143.823 190.326 144.04 189.142C144.232 188.081 145.151 186.887 147.223 185.695C147.757 185.387 148.271 185.13 148.765 184.925ZM155.008 188.774C153.765 187.146 148.524 189.636 148.191 191.757C148.147 192.046 148.117 192.321 148.109 192.577C149.17 193 150.004 193.294 151.298 193.056C152.591 192.819 154.748 190.292 155.008 188.774Z" fill="#FFB61D"/>
<path fill-rule="evenodd" clip-rule="evenodd" d="M79.4455 372.026C79.5487 371.312 79.0537 370.65 78.3399 370.546C77.626 370.443 76.9637 370.938 76.8604 371.652C76.747 372.436 76.6309 373.137 76.5111 373.764C75.8768 373.465 75.1859 373.195 74.4233 372.936L72.8604 372.418C72.1764 372.189 71.4364 372.558 71.2075 373.242C70.9786 373.926 71.3475 374.666 72.0315 374.895L73.9006 375.519C74.6425 375.782 75.2882 376.053 75.8656 376.361C75.338 377.937 74.727 378.64 73.9702 379.034L73.7739 379.131L73.6571 379.196C73.096 379.547 72.881 380.273 73.18 380.88C73.499 381.527 74.282 381.793 74.9289 381.474L75.1591 381.36C76.3416 380.75 77.2689 379.769 78.0069 377.996C78.5992 378.635 79.1401 379.417 79.6981 380.414C80.0503 381.044 80.8461 381.268 81.4755 380.916C82.1049 380.564 82.3296 379.768 81.9773 379.139C81.0086 377.408 80.0319 376.173 78.8628 375.22C79.0295 374.5 79.1832 373.701 79.3255 372.814L79.4455 372.026Z" fill="#00160A"/>
<path fill-rule="evenodd" clip-rule="evenodd" d="M79.4455 372.026C79.5487 371.312 79.0537 370.65 78.3399 370.546C77.626 370.443 76.9637 370.938 76.8604 371.652C76.747 372.436 76.6309 373.137 76.5111 373.764C75.8768 373.465 75.1859 373.195 74.4233 372.936L72.8604 372.418C72.1764 372.189 71.4364 372.558 71.2075 373.242C70.9786 373.926 71.3475 374.666 72.0315 374.895L73.9006 375.519C74.6425 375.782 75.2882 376.053 75.8656 376.361C75.338 377.937 74.727 378.64 73.9702 379.034L73.7739 379.131L73.6571 379.196C73.096 379.547 72.881 380.273 73.18 380.88C73.499 381.527 74.282 381.793 74.9289 381.474L75.1591 381.36C76.3416 380.75 77.2689 379.769 78.0069 377.996C78.5992 378.635 79.1401 379.417 79.6981 380.414C80.0503 381.044 80.8461 381.268 81.4755 380.916C82.1049 380.564 82.3296 379.768 81.9773 379.139C81.0086 377.408 80.0319 376.173 78.8628 375.22C79.0295 374.5 79.1832 373.701 79.3255 372.814L79.4455 372.026Z" fill="#00160A"/>
<path fill-rule="evenodd" clip-rule="evenodd" d="M131.273 396.238L129.877 397.929L130.256 400.03C130.277 400.143 130.201 400.252 130.088 400.272C130.053 400.279 130.016 400.276 129.983 400.264L127.902 399.553L125.938 400.618C125.836 400.673 125.709 400.636 125.654 400.534C125.636 400.5 125.627 400.461 125.629 400.422L125.75 398.395C125.754 398.332 125.729 398.27 125.682 398.228L124.175 396.866C124.089 396.789 124.083 396.657 124.16 396.571C124.186 396.542 124.22 396.521 124.257 396.51L126.406 395.894L127.391 393.928C127.443 393.825 127.569 393.783 127.672 393.835C127.704 393.851 127.731 393.875 127.751 393.904L128.952 395.668L131.133 395.897C131.248 395.909 131.331 396.012 131.319 396.126C131.315 396.167 131.299 396.206 131.273 396.238Z" fill="#00160A"/>
<path fill-rule="evenodd" clip-rule="evenodd" d="M93.5325 288.612L92.7994 290.679L93.874 292.523C93.9321 292.623 93.8984 292.751 93.7986 292.809C93.7679 292.827 93.7331 292.837 93.6975 292.837L91.4986 292.88L90.0173 294.553C89.9408 294.64 89.8087 294.648 89.7223 294.571C89.6931 294.545 89.6717 294.512 89.6605 294.474L89.081 292.528C89.0629 292.467 89.0181 292.418 88.9593 292.394L87.0778 291.63C86.9708 291.587 86.9193 291.465 86.9627 291.358C86.9774 291.322 87.0019 291.291 87.0335 291.268L88.8414 289.954L89.0952 287.769C89.1085 287.655 89.2122 287.573 89.3269 287.586C89.3622 287.59 89.3959 287.603 89.4248 287.624L91.1572 288.871L93.2849 288.34C93.3969 288.312 93.5103 288.38 93.5383 288.492C93.5482 288.532 93.5462 288.573 93.5325 288.612Z" fill="#00160A"/>
<path fill-rule="evenodd" clip-rule="evenodd" d="M211.422 203.858L210.026 205.549L210.405 207.65C210.426 207.763 210.35 207.872 210.237 207.893C210.202 207.899 210.166 207.896 210.132 207.885L208.051 207.173L206.087 208.239C205.985 208.294 205.859 208.256 205.804 208.155C205.785 208.12 205.776 208.081 205.779 208.042L205.9 206.015C205.904 205.952 205.878 205.89 205.831 205.848L204.324 204.487C204.239 204.409 204.232 204.277 204.309 204.192C204.336 204.163 204.369 204.141 204.407 204.131L206.555 203.515L207.541 201.548C207.592 201.445 207.718 201.404 207.821 201.455C207.853 201.471 207.88 201.495 207.9 201.524L209.102 203.289L211.283 203.517C211.398 203.529 211.481 203.632 211.469 203.747C211.465 203.788 211.448 203.826 211.422 203.858Z" fill="#00160A"/>
<path fill-rule="evenodd" clip-rule="evenodd" d="M209.543 204.551L208.95 205.27L209.111 206.162C209.12 206.21 209.088 206.256 209.04 206.265C209.025 206.268 209.009 206.266 208.995 206.262L208.111 205.959L207.277 206.412C207.234 206.435 207.18 206.419 207.157 206.376C207.149 206.362 207.145 206.345 207.146 206.329L207.197 205.468C207.199 205.441 207.188 205.414 207.168 205.396L206.528 204.818C206.492 204.785 206.489 204.729 206.522 204.693C206.533 204.68 206.547 204.672 206.563 204.667L207.476 204.405L207.894 203.57C207.916 203.526 207.97 203.509 208.014 203.531C208.027 203.537 208.039 203.547 208.047 203.56L208.557 204.309L209.484 204.406C209.533 204.411 209.568 204.455 209.563 204.504C209.561 204.521 209.554 204.538 209.543 204.551Z" fill="white"/>
<path fill-rule="evenodd" clip-rule="evenodd" d="M85.4145 146.701L84.0187 148.393L84.3978 150.493C84.4183 150.607 84.3428 150.715 84.2293 150.736C84.1942 150.742 84.1582 150.74 84.1245 150.728L82.0435 150.016L80.0793 151.082C79.9778 151.137 79.851 151.099 79.796 150.998C79.7774 150.964 79.7687 150.925 79.771 150.886L79.8921 148.859C79.8959 148.795 79.8707 148.734 79.8236 148.691L78.3167 147.33C78.2311 147.253 78.2244 147.12 78.3017 147.035C78.3279 147.006 78.3617 146.985 78.3992 146.974L80.5473 146.358L81.5331 144.392C81.5848 144.289 81.7103 144.247 81.8135 144.299C81.8453 144.315 81.8725 144.338 81.8925 144.368L83.094 146.132L85.2751 146.36C85.3899 146.372 85.4732 146.475 85.4612 146.59C85.4569 146.631 85.4407 146.67 85.4145 146.701Z" fill="#00160A"/>
<path fill-rule="evenodd" clip-rule="evenodd" d="M286.465 148.393L286.346 149.181C286.203 150.069 285.099 153.667 284.932 154.388C286.102 155.338 287.078 156.573 288.047 158.304C288.399 158.933 288.175 159.729 287.545 160.081C286.916 160.434 286.12 160.209 285.768 159.579C285.21 158.582 284.669 157.8 284.076 157.161C283.338 158.935 282.411 159.915 281.229 160.525L280.999 160.639C280.352 160.958 279.569 160.692 279.25 160.045C278.951 159.439 279.166 158.713 279.727 158.361L279.844 158.296L280.04 158.2C280.797 157.805 281.408 157.103 281.935 155.526C281.358 155.218 280.712 154.947 279.97 154.684L278.101 154.061C277.417 153.832 277.048 153.092 277.277 152.408C277.506 151.724 278.246 151.355 278.93 151.584L280.493 152.101C281.256 152.36 281.947 152.63 282.581 152.929C284.128 151.092 284.646 146.81 285.36 146.914C286.074 147.017 286.569 147.679 286.465 148.393Z" fill="#00160A"/>
<path fill-rule="evenodd" clip-rule="evenodd" d="M262.798 440.996L262.435 443.159L263.813 444.788C263.888 444.876 263.877 445.008 263.788 445.083C263.761 445.106 263.729 445.121 263.694 445.128L261.536 445.552L260.367 447.457C260.307 447.556 260.178 447.587 260.08 447.526C260.047 447.506 260.02 447.477 260.002 447.442L259.094 445.626C259.065 445.569 259.013 445.528 258.951 445.515L256.965 445.089C256.852 445.065 256.78 444.954 256.804 444.841C256.813 444.803 256.831 444.768 256.858 444.74L258.411 443.132L258.281 440.937C258.275 440.821 258.362 440.723 258.478 440.716C258.513 440.714 258.549 440.721 258.581 440.736L260.503 441.663L262.506 440.771C262.612 440.724 262.735 440.771 262.782 440.876C262.799 440.914 262.804 440.956 262.798 440.996Z" fill="#00160A"/>
<path fill-rule="evenodd" clip-rule="evenodd" d="M345.249 423.134L343.58 424.558L343.589 426.692C343.589 426.807 343.496 426.901 343.381 426.902C343.345 426.902 343.31 426.893 343.279 426.876L341.353 425.813L339.234 426.522C339.124 426.558 339.006 426.499 338.969 426.39C338.957 426.353 338.955 426.313 338.964 426.275L339.436 424.3C339.45 424.238 339.436 424.173 339.397 424.123L338.15 422.521C338.079 422.43 338.095 422.298 338.186 422.227C338.217 422.204 338.254 422.189 338.293 422.185L340.515 421.951L341.827 420.186C341.896 420.093 342.027 420.074 342.12 420.143C342.148 420.164 342.171 420.192 342.185 420.225L343.062 422.17L345.171 422.774C345.282 422.806 345.346 422.922 345.314 423.033C345.303 423.072 345.28 423.107 345.249 423.134Z" fill="#00160A"/>
<path fill-rule="evenodd" clip-rule="evenodd" d="M401.402 343.555L399.734 344.979L399.742 347.113C399.743 347.228 399.649 347.322 399.534 347.323C399.498 347.323 399.463 347.314 399.432 347.297L397.507 346.234L395.387 346.943C395.278 346.98 395.159 346.921 395.123 346.811C395.11 346.774 395.109 346.734 395.118 346.696L395.589 344.721C395.604 344.659 395.589 344.594 395.55 344.544L394.303 342.942C394.232 342.851 394.248 342.72 394.339 342.649C394.37 342.625 394.407 342.61 394.446 342.606L396.668 342.372L397.98 340.607C398.049 340.514 398.18 340.495 398.273 340.564C398.301 340.585 398.324 340.613 398.339 340.646L399.216 342.592L401.324 343.195C401.435 343.227 401.499 343.343 401.467 343.454C401.456 343.493 401.433 343.529 401.402 343.555Z" fill="#00160A"/>
<path fill-rule="evenodd" clip-rule="evenodd" d="M443.525 476.098L443.939 476.778C444.401 477.55 444.797 478.262 445.133 478.921C446.639 478.898 448.181 479.215 450.036 479.919C450.711 480.174 451.05 480.928 450.794 481.603C450.539 482.277 449.785 482.617 449.11 482.361C448.041 481.956 447.124 481.704 446.259 481.596C446.835 483.429 446.755 484.776 446.241 486.003L446.138 486.238C445.847 486.898 445.077 487.198 444.416 486.908C443.797 486.635 443.495 485.941 443.7 485.311L443.747 485.186L443.835 484.986C444.161 484.197 444.178 483.266 443.569 481.72C442.929 481.855 442.26 482.062 441.522 482.338L439.69 483.061C439.019 483.326 438.26 482.996 437.996 482.325C437.732 481.654 438.062 480.895 438.733 480.631L440.262 480.023C441.013 479.731 441.716 479.494 442.394 479.315C442.083 478.759 441.722 478.147 441.304 477.473C440.924 476.86 441.114 476.055 441.727 475.675C442.34 475.295 443.145 475.484 443.525 476.098Z" fill="#00160A"/>
<path fill-rule="evenodd" clip-rule="evenodd" d="M316.033 421.375C315.393 421.428 314.423 421.329 313.456 421.136L313.203 421.838L312.895 422.659L312.839 422.835C312.819 422.91 312.811 422.965 312.818 422.999C312.879 423.185 312.778 423.386 312.591 423.449C312.407 423.508 312.205 423.409 312.144 423.223C312.07 423.063 312.011 422.381 312.229 421.425C312.268 421.252 312.324 421.072 312.389 420.884C311.756 420.707 311.183 420.495 310.779 420.267C310.181 419.934 309.937 419.51 309.975 419.231C310.011 418.958 310.376 418.533 311.475 418.407C311.67 418.376 311.848 418.512 311.877 418.705C311.907 418.898 311.774 419.078 311.579 419.108C311.381 419.143 311.219 419.214 311.092 419.276L311.32 419.404C311.403 419.449 311.493 419.492 311.59 419.524C311.936 419.645 312.345 419.768 312.778 419.881C313.057 419.227 313.416 418.522 313.903 417.855C314.14 417.53 314.413 417.23 314.708 416.927C314.864 416.741 315.143 416.716 315.329 416.873C315.516 417.029 315.54 417.308 315.384 417.494C314.772 418.271 314.322 419.1 313.969 419.873L313.855 420.129C314.646 420.285 315.414 420.375 315.941 420.328C316.229 420.304 316.484 420.518 316.511 420.806C316.535 421.097 316.321 421.352 316.033 421.375Z" fill="white"/>
<path fill-rule="evenodd" clip-rule="evenodd" d="M530.598 339.12C531.006 339.817 530.772 340.713 530.074 341.121C529.377 341.529 528.481 341.294 528.073 340.597C523.426 332.651 514.518 328.067 505.207 329.086C502.447 329.388 500.368 330.216 499.505 331.02L499.411 331.113L499.523 331.13C499.817 331.167 500.218 331.174 500.711 331.132L500.929 331.111C510.763 330.035 520.23 334.514 525.69 342.551C526.144 343.219 525.97 344.129 525.302 344.582C524.634 345.036 523.724 344.863 523.27 344.195C518.494 337.164 510.274 333.195 501.684 333.975L501.247 334.019C497.6 334.418 495.064 332.643 496.665 329.92C497.762 328.054 500.861 326.618 504.889 326.178C515.357 325.032 525.373 330.187 530.598 339.12Z" fill="#FFF7CB" fill-opacity="0.5"/>
<path d="M319.509 341.627C345.934 362.788 364.066 382.433 372.373 396.135C374.916 400.331 373.48 403.511 369.001 404.339C365.675 404.954 360.431 404.418 353.789 402.909C342.211 400.278 330.774 394.922 319.848 389.359C339.802 397.038 347.015 397.95 354.516 399.654L355.705 399.917C361.368 401.131 365.799 401.535 368.387 401.057L368.777 400.978C370.614 400.569 370.773 399.915 369.528 397.861C361.41 384.47 343.307 364.919 316.95 343.85C290.549 322.747 293.127 320.5 319.509 341.627Z" fill="white"/>
<path d="M299.11 195.319L298.73 195.756C296.113 198.778 293.556 201.839 290.797 205.242L289.728 206.563C289.484 206.423 289.199 206.222 288.917 205.984C288.513 205.643 288.162 205.267 287.953 204.957L287.891 204.856L288.003 204.602C288.92 202.606 290.807 199.884 292.877 197.569C293.98 196.336 295.047 195.318 295.929 194.662C296.288 194.395 296.603 194.198 296.856 194.077L297.026 194.002C297.068 193.985 297.089 193.975 297.087 193.963L297.133 193.99C297.395 194.136 298.006 194.539 298.878 195.155L299.11 195.319Z" fill="white"/>
<path fill-rule="evenodd" clip-rule="evenodd" d="M328.22 224.187C329.698 224.529 330.091 225.723 329.93 227.559L329.88 228.035L329.708 229.384C329.666 229.758 329.664 229.912 329.679 230.111C329.716 230.571 329.372 230.973 328.912 231.01C328.452 231.046 328.049 230.703 328.013 230.243L328.002 230.078C327.985 229.763 328.004 229.51 328.094 228.811L328.22 227.842C328.239 227.683 328.254 227.547 328.265 227.414C328.361 226.315 328.226 225.905 327.843 225.816C327.602 225.76 327.253 225.976 326.639 226.625L326.002 227.319C324.688 228.723 323.968 229.082 322.818 228.303C321.828 227.632 321.84 227.032 322.492 225.046L322.654 224.562C323.088 223.282 323.164 222.686 322.96 222.426C322.892 222.34 322.769 222.262 322.555 222.197C322.305 222.12 321.734 222.345 320.811 222.922L319.617 223.699C318.153 224.64 317.716 224.767 316.972 224.338C315.947 223.747 316.035 222.245 316.916 219.107C317.041 218.663 317.502 218.404 317.947 218.529C318.391 218.653 318.65 219.115 318.526 219.559C318.149 220.901 317.951 221.871 317.914 222.498L317.909 222.638L317.908 222.752L318.003 222.708L318.225 222.591C318.404 222.491 318.615 222.358 318.97 222.126L319.702 221.647C321.191 220.686 322.097 220.31 323.042 220.597C323.566 220.757 323.982 221.021 324.274 221.393C324.952 222.255 324.878 223.142 324.328 224.826L324.046 225.677C323.757 226.589 323.718 226.893 323.756 226.919C323.905 227.02 324.143 226.876 324.931 226.016L325.271 225.641C326.372 224.44 327.137 223.937 328.22 224.187Z" fill="#00160A"/>
<path fill-rule="evenodd" clip-rule="evenodd" d="M490.59 245.871L490.175 245.19C489.795 244.577 488.99 244.388 488.377 244.767C488.006 244.997 487.791 245.382 487.762 245.786L487.613 245.706C486.979 245.362 486.186 245.596 485.842 246.23C485.498 246.864 485.733 247.657 486.366 248.001L487.812 248.785C487.519 248.885 487.22 248.996 486.912 249.115L485.383 249.724C484.712 249.988 484.382 250.746 484.646 251.417C484.911 252.088 485.669 252.418 486.34 252.154L488.172 251.43C488.568 251.282 488.944 251.154 489.306 251.046C488.729 251.842 488.168 252.221 487.557 252.414L487.347 252.475L487.22 252.519C486.607 252.767 486.269 253.445 486.458 254.094C486.66 254.787 487.385 255.185 488.077 254.983L488.324 254.911C489.176 254.646 489.944 254.196 490.669 253.441C490.631 253.668 490.568 253.878 490.485 254.078L490.397 254.279L490.35 254.404C490.146 255.033 490.448 255.728 491.067 256C491.727 256.291 492.497 255.991 492.788 255.331L492.891 255.096C492.926 255.013 492.958 254.93 492.989 254.847C493.255 255.476 493.967 255.799 494.621 255.57C495.302 255.333 495.662 254.588 495.424 253.907C495.016 252.736 494.57 251.755 494.052 250.906C494.584 251.039 495.147 251.221 495.76 251.454C496.435 251.709 497.189 251.37 497.444 250.695C497.7 250.021 497.361 249.267 496.686 249.011C495.555 248.582 494.54 248.297 493.579 248.145C493.689 247.848 493.8 247.539 493.911 247.218L494.166 246.463C494.392 245.778 494.019 245.039 493.334 244.814C492.649 244.588 491.911 244.961 491.685 245.646C491.528 246.121 491.377 246.564 491.229 246.976C491.031 246.622 490.819 246.254 490.59 245.871Z" fill="#00160A"/>
<path fill-rule="evenodd" clip-rule="evenodd" d="M460.217 204.73C460.367 204.307 460.135 203.855 459.698 203.722C459.262 203.588 458.786 203.823 458.637 204.247C458.495 204.648 458.359 205.012 458.228 205.341C457.815 204.984 457.345 204.654 456.801 204.32L455.967 203.818C455.603 203.597 455.157 203.729 454.972 204.114C454.786 204.498 454.932 204.989 455.296 205.21L456.292 205.814C456.801 206.135 457.218 206.444 457.574 206.788C457.005 207.855 456.506 208.266 455.943 208.443L455.808 208.482L455.727 208.51C455.333 208.668 455.111 209.087 455.227 209.485C455.351 209.91 455.811 210.149 456.256 210.019L456.414 209.973C457.233 209.719 457.934 209.213 458.61 208.204C458.798 208.57 458.969 208.986 459.135 209.47C459.28 209.893 459.708 210.125 460.09 209.989C460.472 209.854 460.665 209.401 460.52 208.979C460.202 208.053 459.854 207.317 459.435 206.694C459.637 206.252 459.841 205.755 460.048 205.197L460.217 204.73Z" fill="white"/>
<path fill-rule="evenodd" clip-rule="evenodd" d="M190.518 150.053L189.122 151.745L189.501 153.845C189.522 153.959 189.446 154.067 189.333 154.088C189.298 154.094 189.262 154.091 189.228 154.08L187.147 153.368L185.183 154.434C185.081 154.489 184.954 154.451 184.899 154.35C184.881 154.316 184.872 154.277 184.874 154.238L184.996 152.211C184.999 152.147 184.974 152.086 184.927 152.043L183.42 150.682C183.335 150.605 183.328 150.472 183.405 150.387C183.431 150.358 183.465 150.337 183.503 150.326L185.651 149.71L186.637 147.744C186.688 147.641 186.814 147.599 186.917 147.651C186.949 147.667 186.976 147.69 186.996 147.72L188.197 149.484L190.379 149.712C190.493 149.724 190.577 149.827 190.565 149.942C190.56 149.983 190.544 150.022 190.518 150.053Z" fill="#00160A"/>
<path fill-rule="evenodd" clip-rule="evenodd" d="M295.382 111.732L293.987 113.424L294.366 115.524C294.386 115.638 294.311 115.746 294.197 115.767C294.162 115.773 294.126 115.771 294.092 115.759L292.011 115.047L290.047 116.113C289.946 116.168 289.819 116.13 289.764 116.029C289.745 115.995 289.737 115.956 289.739 115.917L289.86 113.89C289.864 113.826 289.839 113.765 289.791 113.722L288.285 112.361C288.199 112.284 288.192 112.151 288.27 112.066C288.296 112.037 288.33 112.016 288.367 112.005L290.515 111.389L291.501 109.423C291.553 109.32 291.678 109.278 291.781 109.33C291.813 109.346 291.84 109.369 291.86 109.399L293.062 111.163L295.243 111.391C295.358 111.403 295.441 111.506 295.429 111.621C295.425 111.662 295.408 111.701 295.382 111.732Z" fill="#00160A"/>
<path d="M148.894 214.259C149.627 214.645 149.909 215.553 149.523 216.286C149.137 217.019 124.25 205.628 113.504 201.747L112.249 201.299C106.043 199.116 100.937 197.769 97.2477 197.409C93.3388 197.027 91.6543 197.71 91.5809 199.236C91.3027 205.028 93.2989 212.175 99.4693 220.778L100.108 221.66C102.491 224.917 121.565 248.857 121.201 248.509L121.07 248.368C120.429 247.633 111.267 238.573 108.449 235.277L108.109 234.878C103.818 229.829 100.601 225.81 97.9284 222.084C91.3988 212.98 88.266 205.721 88.5844 199.092C88.7682 195.267 92.1508 193.897 97.5391 194.423C101.777 194.836 107.534 196.401 114.524 198.926C125.412 202.858 139.189 209.149 148.894 214.259Z" fill="white"/>
</svg>
