<svg width="1129" height="776" viewBox="0 0 1129 776" fill="none" xmlns="http://www.w3.org/2000/svg">
<path fill-rule="evenodd" clip-rule="evenodd" d="M977.165 156.963C893.655 141.904 813.813 197 798.841 280.034C783.868 363.067 839.437 442.58 922.947 457.639C1006.46 472.697 1086.3 417.601 1101.27 334.567C1116.24 251.534 1060.67 172.021 977.165 156.963ZM976.115 162.786C1056.42 177.266 1109.84 253.708 1095.45 333.518C1081.06 413.327 1004.3 466.296 923.998 451.816C843.696 437.336 790.273 360.894 804.664 281.084C819.055 201.274 895.813 148.306 976.115 162.786Z" fill="#B0DCFF" fill-opacity="0.22"/>
<path fill-rule="evenodd" clip-rule="evenodd" d="M93.5825 467.12C55.5421 460.261 19.1707 485.36 12.3496 523.187C5.52863 561.015 30.8428 597.237 68.8832 604.096C106.924 610.956 143.295 585.857 150.116 548.029C156.937 510.202 131.623 473.98 93.5825 467.12ZM92.8283 471.306C128.563 477.75 152.334 511.764 145.931 547.275C139.528 582.786 105.373 606.355 69.6383 599.911C33.9039 593.468 10.1321 559.453 16.5353 523.942C22.9385 488.432 57.0938 464.862 92.8283 471.306Z" fill="#B0DCFF" fill-opacity="0.22"/>
<path fill-rule="evenodd" clip-rule="evenodd" d="M1042.4 189.209L1044.75 194.64L1044.55 194.732C1044.38 194.809 1044.15 194.917 1043.86 195.058L1043.63 195.17C1042.68 195.639 1041.61 196.207 1040.44 196.877C1037.09 198.798 1033.65 201.13 1030.35 203.875C1022.1 210.743 1016.08 218.974 1013.41 228.578L1012.95 230.272C1009.79 241.927 1008.58 249.421 1008.68 253.571L1008.68 253.862C1008.7 254.267 1008.73 254.586 1008.77 254.827L1008.81 255.06L1010.05 257.16L1006.39 259.731L1003.95 261.475C1003.52 261.787 1003.08 262.108 1002.62 262.438C998.717 265.27 994.798 268.191 991.123 271.039C990.469 271.546 989.828 272.047 989.201 272.54L987.267 274.077C979.848 280.037 974.844 284.848 974.641 285.973L974.414 287.151L974.184 288.291C973.602 291.189 973.553 292.588 973.919 293.194C974.044 293.402 974.303 293.575 974.953 293.726C976.05 293.98 977.738 293.966 980.043 293.607C983.679 293.039 987.043 291.903 991.529 289.893L992.937 289.25C994.2 288.662 996.761 287.465 997.58 287.095C999.614 286.177 1001.24 285.519 1002.83 285.009C1005.61 284.112 1008.13 283.724 1010.6 283.92L1011.06 283.964L1017.75 284.271L1018.02 284.075C1018.91 283.405 1019.93 282.661 1021.03 281.864C1024.2 279.587 1027.49 277.332 1030.76 275.257C1032.73 274.008 1034.63 272.86 1036.45 271.832C1043.39 267.908 1048.66 265.893 1052.43 266.393L1052.79 266.449L1053.97 266.661L1054.67 267.631C1054.86 267.897 1055.48 268.513 1056.63 269.279C1061.89 272.796 1070.55 274.3 1083.54 271.936L1084.37 271.779L1085.49 277.59C1070.57 280.455 1060.07 278.697 1053.34 274.198C1052.39 273.566 1051.63 272.951 1051.04 272.39L1050.88 272.24C1048.81 272.385 1045.13 273.825 1040.51 276.344L1039.36 276.983C1037.64 277.958 1035.82 279.054 1033.94 280.252C1030.77 282.26 1027.57 284.452 1024.49 286.667L1023.24 287.571L1021.15 289.119L1020.49 289.621L1019.63 290.281L1010.74 289.874L1010.52 289.856C1008.79 289.65 1006.91 289.91 1004.64 290.641C1003.45 291.024 1002.18 291.526 1000.62 292.219L999.581 292.686C998.272 293.288 995.437 294.616 994.794 294.91C989.449 297.355 985.448 298.752 980.955 299.453C974.807 300.411 970.803 299.484 968.852 296.25C967.53 294.059 967.493 291.915 968.186 288.147L968.818 284.923C969.418 281.597 974.511 276.682 983.969 269.138L984.592 268.642C985.53 267.897 986.5 267.137 987.498 266.363C990.607 263.953 993.88 261.498 997.17 259.089L1000.49 256.675L1002.83 254.999L1002.8 254.537L1002.77 254.099C1002.57 249.097 1003.98 240.451 1007.71 226.996C1010.74 216.099 1017.46 206.906 1026.57 199.326C1030.15 196.348 1033.86 193.825 1037.5 191.743L1038.41 191.229C1040.02 190.333 1041.31 189.695 1042.18 189.309L1042.4 189.209Z" fill="#B0DCFF" fill-opacity="0.22"/>
<path fill-rule="evenodd" clip-rule="evenodd" d="M1060.32 294.879C1065.44 292.478 1070.6 294.141 1072.11 299.948L1072.95 303.674L1073.01 303.883L1073.49 303.832C1074.61 303.729 1075.76 303.723 1077.07 303.845L1077.74 303.916C1082.62 304.504 1086.42 308.135 1090.43 314.413L1090.81 315.01C1091.51 316.141 1094.68 321.618 1095.27 322.442C1095.97 323.414 1096.54 324.37 1097.06 325.421L1097.36 326.064C1097.5 326.351 1098.01 327.54 1098.28 328.14L1098.6 328.82L1098.62 328.824L1097.71 334.671C1095.52 334.33 1094.16 333.108 1093.15 331.114L1092.92 330.627C1092.57 329.88 1092.07 328.706 1091.99 328.545C1091.63 327.751 1091.26 327.066 1090.82 326.4L1090.48 325.902C1089.67 324.794 1086.35 319.05 1085.79 318.144C1082.54 312.946 1079.67 310.109 1077.03 309.791C1075.15 309.564 1071.3 310.026 1070.56 309.825C1068.98 309.396 1068.2 308.368 1067.67 306.766L1067.56 306.438C1067.43 306.011 1067.31 305.52 1067.15 304.819L1066.44 301.641C1065.98 299.605 1064.93 299.25 1062.83 300.238C1060.46 301.344 1058.75 303.681 1058.96 305.111L1059.05 305.797C1059.46 309.123 1058.85 310.993 1055.18 318.555L1053.84 321.296C1051.86 325.307 1050.65 328.167 1049.71 331.266C1048.07 336.656 1044.16 340.552 1038.85 343.204C1036.82 344.215 1034.73 344.976 1032.67 345.526C1031.42 345.86 1030.45 346.052 1029.82 346.142L1029.13 346.242C1028.54 346.33 1027.86 346.439 1027.09 346.569C1024.87 346.943 1022.39 347.412 1019.7 347.985C1012.65 349.483 1005.53 351.396 998.724 353.76L996.874 354.416C991.02 356.538 986.728 355.797 985.055 351.747C983.942 349.051 984.422 345.552 985.932 341.195C986.504 339.543 987.214 337.824 988.02 336.082L988.435 335.201L988.571 334.917L987.537 335.242C983.693 336.494 977.962 338.853 970.124 342.495L966.569 344.165C951.814 351.174 947.857 354.106 947.526 356.458L947.491 356.846C947.487 356.94 947.485 357.043 947.486 357.186L947.52 358.48C947.577 360.337 947.501 361.652 947.129 363.312C946.009 368.303 940.221 372.78 931.133 377.225C925.034 380.208 917.394 383.051 913.655 383.962C911.651 384.45 910.138 385.518 909.982 386.22C909.927 386.473 910.047 386.871 910.625 387.572C911.524 388.66 913.178 389.899 915.634 391.215L916.173 391.498C921.414 394.201 924.067 396.703 924.602 399.908C925.01 402.356 924.748 403.107 922.407 407.48L922.157 407.945C921.019 410.065 920.415 411.534 920.087 413.256C919.688 415.347 919.937 416.443 920.61 417.321L920.818 417.561C921.197 417.978 921.909 418.714 922.106 418.966C924.313 421.787 922.94 423.963 919.276 426.189L910.859 431.166L900.97 437.046L903.868 446.181L898.228 447.969L893.915 434.367L904.63 427.983L916.124 421.179L916.018 421.052L915.913 420.919C914.203 418.688 913.563 415.876 914.275 412.147C914.7 409.917 915.414 408.08 916.607 405.784L917.773 403.586C918.724 401.765 918.843 401.349 918.766 400.882C918.629 400.064 917.301 398.784 913.881 396.976L913.461 396.757C906.523 393.178 903.259 389.224 904.205 384.943C904.932 381.654 908.06 379.347 911.832 378.322L912.254 378.213C922.595 375.694 940.221 367.073 941.356 362.018C941.568 361.067 941.633 360.286 941.617 359.164L941.572 357.421C941.566 356.9 941.58 356.448 941.624 355.997C942.151 350.509 947.091 346.797 965.336 338.203L966.825 337.505C977.589 332.475 984.718 329.681 988.917 328.7C990.957 328.223 992.446 328.128 993.658 328.507C995.621 329.123 996.569 330.917 996.21 332.727C996.11 333.229 995.931 333.664 995.702 334.07L995.572 334.288L995.5 334.395L995.153 335.031L994.917 335.477C994.414 336.431 993.895 337.474 993.39 338.566C992.661 340.142 992.025 341.683 991.523 343.132C990.514 346.043 990.172 348.315 990.471 349.337L990.524 349.488C990.573 349.606 990.554 349.592 990.803 349.634C991.514 349.757 992.741 349.58 994.454 348.996L994.858 348.854C1002.5 346.083 1010.53 343.885 1018.46 342.197C1021.24 341.607 1023.81 341.122 1026.1 340.735L1027.86 340.45L1029.01 340.281C1029.39 340.227 1030.14 340.079 1031.14 339.81C1032.84 339.357 1034.57 338.73 1036.21 337.911C1040.18 335.924 1042.95 333.174 1044.05 329.551C1045.03 326.313 1046.25 323.379 1048.12 319.526L1050.4 314.837C1052.98 309.454 1053.38 308.018 1053.13 306.127L1053.11 305.981C1052.45 301.573 1055.82 296.986 1060.32 294.879Z" fill="#B0DCFF" fill-opacity="0.22"/>
<path fill-rule="evenodd" clip-rule="evenodd" d="M86.8103 473.285L92.8618 472.339L87.4197 475.726C87.2675 475.817 87.0698 475.933 86.8288 476.071L85.9855 476.544C85.54 476.789 85.0592 477.046 84.5452 477.311C82.1022 478.573 79.4021 479.788 76.5183 480.857C69.4307 483.485 62.4298 484.81 55.8956 484.289L55.046 484.211C51.3615 483.824 48.6574 484.177 46.7782 485.035C45.6062 485.569 45.013 486.141 44.8012 486.501L44.7561 486.586L42.4919 485.535C42.8945 484.668 43.9045 483.602 45.7422 482.763C47.9261 481.767 50.8553 481.345 54.6316 481.664L55.3068 481.728C61.6452 482.394 68.5848 481.136 75.6506 478.517C76.8432 478.075 78.0039 477.606 79.1265 477.12L79.9085 476.772L79.3159 476.845C65.9994 478.429 57.9597 477.898 53.8526 476.157L53.6061 476.049C53.072 475.807 52.7017 475.577 52.4673 475.382L52.3614 475.287L54.0954 473.492L54.1955 473.554C54.2814 473.604 54.425 473.68 54.6369 473.776C58.6393 475.591 67.8257 476.052 84.1286 473.69L86.8103 473.285Z" fill="#B0DCFF" fill-opacity="0.22"/>
<path fill-rule="evenodd" clip-rule="evenodd" d="M135.505 495.781L136.545 498.05L132.663 499.854L131.949 500.189C129.072 501.541 126.191 502.916 123.439 504.258L120.407 505.75L118.193 506.858C115.589 508.173 113.36 509.344 111.582 510.337L111.109 510.603C110.397 511.006 109.773 511.374 109.241 511.704L108.616 512.1L108.857 512.122L109.627 512.169C109.9 512.181 110.189 512.191 110.493 512.198L110.959 512.206C113.969 512.243 117.955 512.009 121.909 511.546L123.178 511.39C131.748 510.28 138.254 508.316 139.716 506.195L139.814 506.04L141.982 507.277C140.135 510.512 132.864 512.718 122.884 513.944L122.199 514.026C118.143 514.5 114.051 514.74 110.929 514.702C109.374 514.683 108.108 514.596 107.207 514.439C105.622 514.162 104.717 513.714 104.961 512.363C105.225 510.896 109.045 508.649 117.502 504.409L120.702 502.819C123.41 501.486 126.272 500.11 129.155 498.746L133.615 496.655L135.505 495.781Z" fill="#B0DCFF" fill-opacity="0.22"/>
<path fill-rule="evenodd" clip-rule="evenodd" d="M110.755 581.183C110.765 581.176 110.814 581.245 110.933 581.359C111.6 581.997 113.021 582.429 115.509 582.342C119.016 582.219 123.97 581.043 130.568 578.567L131.337 578.276L132.23 580.607L130.846 581.128C118.825 585.568 112.198 585.781 109.364 583.306L109.207 583.163L109.035 582.985L108.937 583.022C103.774 584.812 98.8183 585.735 94.1778 585.968L93.2539 586.005C91.3455 586.064 89.5992 586 88.0341 585.846C87.1236 585.756 86.3747 585.647 85.7994 585.538L85.3732 585.451L82.2412 584.71L85.0538 583.145C85.5559 582.866 85.9505 582.307 86.2261 581.498C86.3236 581.211 86.4018 580.908 86.4625 580.596L86.4924 580.41L86.032 580.553C82.6131 581.566 78.0165 582.164 72.4874 582.425L71.6511 582.462C67.4486 582.633 62.9909 582.605 58.5594 582.438L56.7559 582.362C56.1744 582.335 55.6133 582.306 55.075 582.276L52.8014 582.132L50.1765 581.928L51.8154 580.055C52.8825 578.835 52.77 577.88 51.8602 576.851C51.5517 576.502 51.2226 576.231 50.9834 576.067L50.8515 575.982L47.3025 573.855L69.9347 572.813L69.9299 572.57C69.9455 570.963 70.795 569.51 72.1629 568.237L72.4433 567.984C73.0687 567.44 73.6683 567.03 74.129 566.763L74.3473 566.642L74.5394 566.539L74.7549 566.508C81.3818 565.544 90.2492 562.339 100.817 557.305C105.113 555.258 109.631 552.937 114.316 550.386C121.777 546.325 129.299 541.885 136.504 537.388L139.245 535.664C140.127 535.105 140.975 534.564 141.786 534.041L144.904 532.013L145.89 531.36L147.28 533.433L145.143 534.842L143.138 536.14C141.504 537.191 139.727 538.319 137.826 539.506C130.582 544.027 123.019 548.491 115.51 552.579C110.787 555.15 106.23 557.491 101.89 559.558C91.463 564.525 82.6306 567.757 75.7914 568.874L75.3525 568.94L75.1037 569.098C74.7623 569.321 74.4135 569.579 74.0818 569.868C72.8093 570.975 72.2135 572.125 72.5125 573.242L72.556 573.387L72.6095 573.534L73.2546 575.161L54.3527 576.028L54.4225 576.138C55.0484 577.19 55.2591 578.34 54.9333 579.516L54.8564 579.761L56.8732 579.868L58.6535 579.944C63.0247 580.108 67.4198 580.135 71.55 579.968L73.1426 579.893C79.1424 579.567 83.9178 578.817 86.9849 577.589L87.3752 577.426L89.0338 576.704L89.1201 578.511C89.1275 578.666 89.13 578.921 89.1175 579.251C89.0789 580.276 88.9221 581.325 88.5889 582.303C88.5056 582.547 88.4128 582.782 88.31 583.007L88.1408 583.347L88.2785 583.362C89.5304 583.485 90.9137 583.546 92.4161 583.527L93.1773 583.51C97.8371 583.367 102.86 582.487 108.123 580.663L109.112 580.31L110.424 579.828L110.755 581.183Z" fill="#B0DCFF" fill-opacity="0.22"/>
<path fill-rule="evenodd" clip-rule="evenodd" d="M95.7635 593.093C102.591 591.715 107.82 591.435 111.876 592.571L112.358 592.714L111.607 595.095C108.131 593.998 103.359 594.168 97.0249 595.388L96.2572 595.54C94.6667 595.861 93.0178 596.235 91.1133 596.7L82.5352 598.879C81.9382 599.028 81.4395 599.152 81.1178 599.228L79.9137 599.508C77.5981 600.029 75.8252 600.328 74.3558 600.422L71.6831 600.585C69.3969 600.717 67.3488 600.814 65.5379 600.882L63.3538 600.953L61.7015 600.985L61.6887 598.489L62.4513 598.477C62.8386 598.47 63.2733 598.459 63.7555 598.445L64.7832 598.412C67.3863 598.321 70.5229 598.166 74.1965 597.931C75.5157 597.847 77.1817 597.565 79.3897 597.067L80.9125 596.71C83.0424 596.188 88.9446 594.667 88.8028 594.703L90.5263 594.274C92.4589 593.801 94.1375 593.421 95.7635 593.093Z" fill="#B0DCFF" fill-opacity="0.22"/>
<path fill-rule="evenodd" clip-rule="evenodd" d="M841.783 355.398C841.783 355.398 843.525 358.314 846.465 362.947C847.831 365.104 849.421 367.65 851.288 370.396C853.024 372.94 854.97 375.661 857.057 378.483C862.31 385.583 868.477 393.25 873.994 400.584C876.502 403.916 878.954 407.114 881.087 410.174C883.888 414.198 886.209 417.914 888.092 420.862C890.926 425.308 892.587 428.103 892.587 428.103C893.407 429.275 895.024 429.561 896.203 428.742C897.368 427.921 897.659 426.305 896.839 425.132C896.839 425.132 894.785 422.609 891.584 418.414C889.466 415.635 886.776 412.179 883.959 408.164C881.817 405.111 879.658 401.711 877.392 398.21C872.396 390.504 867.316 382.08 862.456 374.71C860.519 371.779 858.634 369.011 856.839 366.511C854.904 363.813 853.063 361.446 851.504 359.42C848.163 355.069 846.028 352.427 846.028 352.427C845.208 351.255 843.592 350.969 842.42 351.789C841.248 352.609 840.963 354.226 841.783 355.398Z" fill="#B0DCFF" fill-opacity="0.22"/>
<path fill-rule="evenodd" clip-rule="evenodd" d="M847.953 352.555C847.953 352.555 849.633 355.37 852.455 359.839C853.769 361.921 855.295 364.377 857.1 367.025C858.764 369.477 860.647 372.099 862.659 374.816C867.725 381.653 873.688 389.027 879.013 396.088C881.434 399.296 883.805 402.374 885.856 405.323C888.558 409.201 890.787 412.786 892.593 415.629C895.323 419.921 896.922 422.618 896.922 422.618C897.742 423.791 899.358 424.077 900.53 423.257C901.702 422.437 901.986 420.819 901.166 419.647C901.166 419.647 899.182 417.222 896.092 413.184C894.044 410.507 891.446 407.183 888.728 403.313C886.669 400.371 884.59 397.091 882.411 393.715C877.607 386.28 872.731 378.15 868.058 371.043C866.197 368.217 864.381 365.548 862.65 363.14C860.785 360.542 859.001 358.263 857.495 356.312C854.271 352.124 852.205 349.584 852.205 349.584C851.385 348.412 849.768 348.126 848.596 348.946C847.424 349.766 847.133 351.382 847.953 352.555V352.555Z" fill="#B0DCFF" fill-opacity="0.22"/>
<path fill-rule="evenodd" clip-rule="evenodd" d="M855 349.496C855 349.496 856.591 352.193 859.285 356.479C860.542 358.475 861.998 360.829 863.721 363.365C865.309 365.712 867.117 368.221 869.048 370.82C873.904 377.36 879.628 384.398 884.746 391.15C887.067 394.218 889.339 397.159 891.302 399.981C893.888 403.693 896.012 407.13 897.737 409.856C900.345 413.97 901.862 416.556 901.862 416.556C902.681 417.729 904.298 418.014 905.47 417.195C906.642 416.375 906.926 414.757 906.113 413.586C906.113 413.586 904.205 411.271 901.236 407.409C899.269 404.851 896.776 401.675 894.174 397.971C892.202 395.155 890.216 392.011 888.136 388.776C883.554 381.653 878.91 373.856 874.439 367.045C872.66 364.338 870.926 361.783 869.271 359.48C867.481 356.993 865.774 354.816 864.325 352.952C861.229 348.948 859.244 346.524 859.244 346.524C858.424 345.351 856.808 345.066 855.636 345.885C854.464 346.706 854.18 348.323 855 349.496V349.496Z" fill="#B0DCFF" fill-opacity="0.22"/>
<path fill-rule="evenodd" clip-rule="evenodd" d="M871.639 343.838C871.639 343.838 872.452 345.415 873.896 347.917C874.564 349.077 875.334 350.445 876.294 351.896C877.186 353.238 878.227 354.65 879.355 356.1C882.199 359.762 885.661 363.562 888.685 367.321C890.053 369.024 891.4 370.643 892.515 372.248C893.985 374.36 895.102 376.36 896.031 377.941C897.435 380.339 898.208 381.853 898.208 381.853C899.021 383.024 900.637 383.311 901.816 382.491C902.981 381.67 903.273 380.054 902.453 378.881C902.453 378.881 901.294 377.638 899.523 375.494C898.359 374.08 896.866 372.341 895.386 370.238C894.263 368.64 893.209 366.819 892.076 364.947C889.588 360.815 887.205 356.26 884.747 352.325C883.776 350.769 882.803 349.309 881.852 348.013C880.818 346.609 879.796 345.418 878.936 344.389C877.083 342.169 875.884 340.866 875.884 340.866C875.064 339.694 873.448 339.407 872.276 340.227C871.104 341.047 870.819 342.665 871.639 343.838Z" fill="#B0DCFF" fill-opacity="0.22"/>
<path fill-rule="evenodd" clip-rule="evenodd" d="M877.877 338.529C877.877 338.529 878.655 340.054 880.04 342.474C880.686 343.596 881.421 344.918 882.353 346.321C883.21 347.615 884.208 348.976 885.302 350.372C888.053 353.901 891.411 357.551 894.335 361.171C895.664 362.811 896.97 364.37 898.044 365.918C899.455 367.955 900.532 369.888 901.42 371.416C902.772 373.735 903.503 375.199 903.503 375.199C904.323 376.371 905.939 376.657 907.111 375.837C908.283 375.017 908.575 373.401 907.755 372.228C907.755 372.228 906.631 371.035 904.919 368.97C903.789 367.609 902.342 365.936 900.916 363.908C899.833 362.367 898.819 360.606 897.733 358.798C895.337 354.804 893.059 350.399 890.694 346.598C889.758 345.094 888.827 343.685 887.904 342.435C886.904 341.082 885.918 339.937 885.087 338.948C883.293 336.81 882.128 335.559 882.128 335.559C881.308 334.387 879.692 334.1 878.52 334.92C877.348 335.74 877.057 337.357 877.877 338.529V338.529Z" fill="#B0DCFF" fill-opacity="0.22"/>
<path fill-rule="evenodd" clip-rule="evenodd" d="M883.94 332.459C883.94 332.459 884.811 334.12 886.354 336.756C887.063 337.977 887.886 339.418 888.904 340.95C889.849 342.366 890.94 343.86 892.127 345.394C895.122 349.269 898.753 353.31 901.935 357.292C903.372 359.095 904.789 360.813 905.968 362.509C907.512 364.737 908.705 366.844 909.692 368.509C911.19 371.036 912.015 372.629 912.015 372.629C912.835 373.801 914.451 374.087 915.623 373.268C916.795 372.448 917.079 370.83 916.259 369.658C916.259 369.658 915.049 368.335 913.191 366.064C911.969 364.566 910.4 362.719 908.84 360.498C907.652 358.81 906.521 356.889 905.325 354.917C902.679 350.564 900.128 345.766 897.525 341.62C896.49 339.978 895.466 338.437 894.455 337.066C893.369 335.583 892.295 334.318 891.394 333.228C889.448 330.876 888.191 329.489 888.191 329.489C887.371 328.316 885.755 328.03 884.583 328.85C883.411 329.67 883.12 331.287 883.94 332.459V332.459Z" fill="#B0DCFF" fill-opacity="0.22"/>
<path fill-rule="evenodd" clip-rule="evenodd" d="M892.003 329.847C892.003 329.847 892.881 331.514 894.423 334.156C895.145 335.383 895.967 336.829 896.985 338.366C897.936 339.787 899.033 341.286 900.219 342.825C903.227 346.715 906.87 350.772 910.055 354.767C911.5 356.576 912.922 358.302 914.101 360.002C915.658 362.24 916.856 364.353 917.85 366.026C919.346 368.559 920.177 370.158 920.177 370.158C920.997 371.33 922.614 371.616 923.786 370.796C924.958 369.976 925.242 368.358 924.422 367.186C924.422 367.186 923.205 365.858 921.342 363.578C920.113 362.074 918.545 360.221 916.979 357.993C915.785 356.299 914.655 354.372 913.454 352.393C910.796 348.026 908.233 343.213 905.618 339.052C904.576 337.404 903.546 335.857 902.543 334.482C901.45 332.994 900.37 331.723 899.47 330.629C897.518 328.269 896.255 326.877 896.255 326.877C895.435 325.704 893.819 325.418 892.647 326.238C891.475 327.058 891.183 328.675 892.003 329.847V329.847Z" fill="#B0DCFF" fill-opacity="0.22"/>
<path fill-rule="evenodd" clip-rule="evenodd" d="M901.138 327.498C901.138 327.498 901.95 329.076 903.4 331.582C904.069 332.742 904.839 334.112 905.806 335.565C906.698 336.907 907.73 338.32 908.859 339.77C911.716 343.438 915.178 347.241 918.201 351.003C919.569 352.707 920.923 354.33 922.038 355.935C923.5 358.047 924.624 360.05 925.553 361.632C926.957 364.032 927.73 365.547 927.73 365.547C928.55 366.72 930.166 367.005 931.338 366.186C932.51 365.366 932.794 363.748 931.974 362.576C931.974 362.576 930.823 361.333 929.052 359.186C927.881 357.77 926.388 356.029 924.909 353.926C923.786 352.326 922.725 350.502 921.592 348.629C919.105 344.494 916.722 339.936 914.257 335.998C913.28 334.439 912.315 332.979 911.356 331.681C910.322 330.276 909.301 329.083 908.44 328.054C906.588 325.833 905.389 324.528 905.389 324.528C904.569 323.356 902.953 323.069 901.781 323.889C900.609 324.709 900.317 326.326 901.138 327.498V327.498Z" fill="#B0DCFF" fill-opacity="0.22"/>
<path fill-rule="evenodd" clip-rule="evenodd" d="M916.777 311.493C916.777 311.493 917.433 312.847 918.633 314.998C919.185 315.992 919.822 317.166 920.63 318.403C921.382 319.544 922.271 320.741 923.236 321.962C925.692 325.058 928.7 328.213 931.311 331.382C932.487 332.813 933.654 334.172 934.6 335.536C935.842 337.33 936.769 339.046 937.534 340.401C938.706 342.462 939.327 343.761 939.327 343.761C940.148 344.934 941.764 345.22 942.936 344.4C944.108 343.581 944.392 341.963 943.572 340.79C943.572 340.79 942.565 339.761 941.033 337.955C940.026 336.767 938.73 335.312 937.472 333.526C936.517 332.169 935.642 330.609 934.702 329.007C932.627 325.466 930.698 321.556 928.628 318.187C927.814 316.858 926.999 315.616 926.188 314.519C925.305 313.33 924.416 312.334 923.673 311.47C922.063 309.602 921.022 308.522 921.022 308.522C920.202 307.349 918.586 307.063 917.414 307.883C916.242 308.703 915.957 310.32 916.777 311.493V311.493Z" fill="#B0DCFF" fill-opacity="0.22"/>
<path fill-rule="evenodd" clip-rule="evenodd" d="M920.836 303.876C920.836 303.876 921.649 305.45 923.093 307.948C923.762 309.105 924.526 310.47 925.486 311.918C926.372 313.255 927.405 314.664 928.534 316.111C931.379 319.765 934.829 323.554 937.847 327.305C939.209 329.002 940.556 330.618 941.665 332.219C943.129 334.325 944.246 336.32 945.176 337.899C946.574 340.292 947.34 341.802 947.34 341.802C948.16 342.974 949.777 343.26 950.949 342.44C952.12 341.621 952.412 340.003 951.592 338.831C951.592 338.831 950.433 337.591 948.668 335.452C947.503 334.041 946.016 332.307 944.544 330.209C943.419 328.615 942.365 326.797 941.238 324.929C938.756 320.807 936.385 316.263 933.926 312.336C932.955 310.783 931.989 309.327 931.037 308.033C930.009 306.634 928.987 305.445 928.133 304.42C926.287 302.206 925.087 300.906 925.087 300.906C924.267 299.733 922.651 299.447 921.479 300.267C920.307 301.087 920.015 302.704 920.836 303.876V303.876Z" fill="#B0DCFF" fill-opacity="0.22"/>
<path fill-rule="evenodd" clip-rule="evenodd" d="M927.487 298.783C927.487 298.783 928.312 300.38 929.779 302.913C930.46 304.087 931.241 305.472 932.212 306.942C933.116 308.3 934.168 309.731 935.307 311.2C938.186 314.911 941.69 318.766 944.748 322.576C946.134 324.302 947.499 325.944 948.625 327.569C950.112 329.708 951.246 331.732 952.187 333.333C953.614 335.761 954.399 337.292 954.399 337.292C955.219 338.465 956.835 338.752 958.007 337.931C959.179 337.112 959.463 335.494 958.644 334.322C958.644 334.322 957.474 333.061 955.686 330.887C954.503 329.453 952.992 327.689 951.496 325.559C950.362 323.942 949.283 322.096 948.139 320.202C945.616 316.02 943.199 311.409 940.699 307.425C939.718 305.849 938.733 304.371 937.763 303.056C936.725 301.636 935.691 300.429 934.819 299.385C932.949 297.136 931.732 295.812 931.732 295.812C930.912 294.64 929.296 294.354 928.124 295.173C926.952 295.993 926.667 297.611 927.487 298.783V298.783Z" fill="#B0DCFF" fill-opacity="0.22"/>
<path fill-rule="evenodd" clip-rule="evenodd" d="M934.676 292.071C934.676 292.071 935.517 293.694 937.02 296.27C937.712 297.464 938.512 298.874 939.507 300.37C940.421 301.752 941.49 303.209 942.654 304.707C945.586 308.488 949.134 312.42 952.245 316.303C953.654 318.061 955.042 319.736 956.192 321.391C957.702 323.568 958.867 325.628 959.824 327.256C961.281 329.725 962.083 331.282 962.083 331.282C962.896 332.453 964.512 332.74 965.684 331.92C966.856 331.1 967.147 329.484 966.327 328.311C966.327 328.311 965.14 327.025 963.323 324.809C962.123 323.348 960.589 321.549 959.064 319.381C957.905 317.733 956.81 315.856 955.643 313.929C953.06 309.674 950.592 304.986 948.045 300.932C947.04 299.328 946.038 297.823 945.058 296.486C943.994 295.038 942.944 293.806 942.06 292.743C940.155 290.45 938.92 289.1 938.92 289.1C938.1 287.927 936.484 287.641 935.312 288.461C934.14 289.28 933.856 290.898 934.676 292.071V292.071Z" fill="#B0DCFF" fill-opacity="0.22"/>
<path fill-rule="evenodd" clip-rule="evenodd" d="M939.495 275.92C939.495 275.92 940.617 277.936 942.549 281.135C943.452 282.622 944.482 284.374 945.745 286.25C946.91 287.985 948.246 289.825 949.689 291.724C953.318 296.509 957.664 301.576 961.508 306.505C963.248 308.74 964.955 310.877 966.402 312.957C968.307 315.694 969.82 318.256 971.057 320.284C972.932 323.351 973.996 325.285 973.996 325.285C974.816 326.458 976.432 326.744 977.604 325.924C978.776 325.104 979.061 323.486 978.24 322.313C978.24 322.313 976.792 320.652 974.556 317.837C973.077 315.977 971.188 313.674 969.273 310.947C967.818 308.873 966.404 306.535 964.899 304.13C961.59 298.83 958.324 293.006 955.081 287.949C953.796 285.943 952.527 284.055 951.296 282.365C949.972 280.54 948.676 278.962 947.589 277.607C945.255 274.692 943.74 272.948 943.74 272.948C942.927 271.777 941.304 271.489 940.139 272.31C938.959 273.13 938.675 274.748 939.495 275.92V275.92Z" fill="#B0DCFF" fill-opacity="0.22"/>
<path fill-rule="evenodd" clip-rule="evenodd" d="M958.679 264.389C958.679 264.389 958.79 265.603 959.66 267.187C959.903 267.623 960.26 268.038 960.655 268.444C961.723 269.536 963.056 270.34 964.223 271.416C964.731 271.885 965.234 272.299 965.581 272.808C966.045 273.481 966.243 274.167 966.452 274.713C966.783 275.596 966.86 276.1 966.86 276.1C967.68 277.272 969.297 277.558 970.469 276.738C971.641 275.918 971.925 274.3 971.105 273.128C971.105 273.128 970.66 272.879 969.951 272.267C969.507 271.888 968.933 271.463 968.46 270.799C968.097 270.296 967.886 269.679 967.621 269.043C967.007 267.578 966.713 266.045 966.054 264.67C965.802 264.157 965.537 263.678 965.21 263.303C964.023 261.937 962.924 261.418 962.924 261.418C962.104 260.245 960.488 259.959 959.316 260.779C958.144 261.599 957.859 263.216 958.679 264.389V264.389Z" fill="#B0DCFF" fill-opacity="0.22"/>
<path fill-rule="evenodd" clip-rule="evenodd" d="M984.914 305.953C984.914 305.953 985.669 307.443 987.021 309.808C987.643 310.902 988.361 312.195 989.263 313.561C990.096 314.824 991.078 316.152 992.142 317.512C994.836 320.951 998.118 324.498 1000.98 328.025C1002.27 329.62 1003.55 331.138 1004.59 332.647C1005.98 334.634 1007.02 336.523 1007.88 338.015C1009.19 340.28 1009.91 341.71 1009.91 341.71C1010.73 342.883 1012.34 343.168 1013.52 342.348C1014.69 341.529 1014.97 339.911 1014.15 338.738C1014.15 338.738 1013.05 337.579 1011.38 335.568C1010.27 334.243 1008.86 332.616 1007.47 330.638C1006.41 329.134 1005.43 327.415 1004.37 325.65C1002.04 321.751 999.842 317.449 997.534 313.737C996.621 312.269 995.713 310.895 994.813 309.677C993.844 308.359 992.875 307.244 992.061 306.28C990.307 304.199 989.166 302.983 989.166 302.983C988.346 301.81 986.729 301.525 985.557 302.345C984.386 303.164 984.094 304.781 984.914 305.953Z" fill="#B0DCFF" fill-opacity="0.22"/>
<path fill-rule="evenodd" clip-rule="evenodd" d="M965.802 258.599C965.802 258.599 965.929 259.84 966.83 261.458C967.078 261.904 967.441 262.33 967.848 262.748C968.934 263.869 970.296 264.709 971.479 265.815C972 266.297 972.508 266.725 972.867 267.247C973.343 267.937 973.553 268.637 973.767 269.195C974.11 270.094 974.192 270.609 974.192 270.609C975.012 271.781 976.629 272.068 977.801 271.248C978.972 270.428 979.264 268.812 978.444 267.639C978.444 267.639 977.986 267.377 977.258 266.748C976.81 266.357 976.224 265.917 975.739 265.237C975.378 264.723 975.148 264.091 974.87 263.44C974.24 261.947 973.923 260.377 973.24 258.974C972.991 258.45 972.713 257.959 972.38 257.574C971.169 256.175 970.046 255.628 970.046 255.628C969.226 254.455 967.61 254.169 966.438 254.989C965.266 255.809 964.982 257.427 965.802 258.599V258.599Z" fill="#B0DCFF" fill-opacity="0.22"/>
<path fill-rule="evenodd" clip-rule="evenodd" d="M973.069 253.675C973.069 253.675 973.121 254.803 973.922 256.287C974.142 256.691 974.475 257.071 974.848 257.441C975.852 258.444 977.102 259.138 978.212 260.122C978.684 260.546 979.159 260.917 979.484 261.388C979.905 262.012 980.075 262.65 980.254 263.159C980.55 263.993 980.605 264.457 980.605 264.457C981.425 265.63 983.042 265.915 984.214 265.095C985.386 264.275 985.67 262.658 984.85 261.485C984.85 261.485 984.435 261.273 983.753 260.713C983.332 260.369 982.793 259.993 982.355 259.378C982.022 258.914 981.84 258.341 981.603 257.747C981.061 256.373 980.833 254.955 980.239 253.665C980.018 253.19 979.776 252.746 979.472 252.403C978.354 251.139 977.313 250.703 977.313 250.703C976.493 249.531 974.877 249.244 973.705 250.064C972.533 250.884 972.249 252.502 973.069 253.675V253.675Z" fill="#B0DCFF" fill-opacity="0.22"/>
<path fill-rule="evenodd" clip-rule="evenodd" d="M978.798 247.788C978.798 247.788 978.891 248.977 979.744 250.533C979.982 250.959 980.333 251.364 980.723 251.759C981.767 252.825 983.083 253.598 984.226 254.645C984.729 255.101 985.22 255.502 985.561 256C986.013 256.659 986.207 257.332 986.403 257.866C986.722 258.734 986.794 259.226 986.794 259.226C987.614 260.398 989.23 260.685 990.402 259.865C991.574 259.045 991.859 257.427 991.039 256.255C991.039 256.255 990.606 256.017 989.895 255.419C989.464 255.052 988.901 254.641 988.433 253.99C988.083 253.499 987.877 252.895 987.624 252.272C987.034 250.835 986.756 249.335 986.115 247.985C985.876 247.484 985.616 247.014 985.302 246.649C984.131 245.313 983.05 244.818 983.05 244.818C982.23 243.646 980.613 243.36 979.441 244.18C978.269 245 977.978 246.616 978.798 247.788V247.788Z" fill="#B0DCFF" fill-opacity="0.22"/>
<path fill-rule="evenodd" clip-rule="evenodd" d="M1001 300.04C1001 300.04 1001.78 301.565 1003.17 303.987C1003.81 305.108 1004.55 306.431 1005.47 307.833C1006.33 309.126 1007.34 310.489 1008.42 311.885C1011.18 315.415 1014.54 319.065 1017.46 322.687C1018.78 324.326 1020.09 325.885 1021.16 327.433C1022.58 329.47 1023.66 331.405 1024.55 332.933C1025.9 335.253 1026.63 336.716 1026.63 336.716C1027.45 337.888 1029.07 338.174 1030.24 337.355C1031.41 336.535 1031.69 334.917 1030.88 333.746C1030.88 333.746 1029.76 332.553 1028.05 330.487C1026.92 329.126 1025.47 327.453 1024.04 325.424C1022.95 323.881 1021.94 322.12 1020.85 320.312C1018.46 316.318 1016.19 311.913 1013.82 308.111C1012.88 306.606 1011.95 305.198 1011.02 303.948C1010.03 302.595 1009.04 301.449 1008.21 300.459C1006.41 298.322 1005.25 297.07 1005.25 297.07C1004.43 295.898 1002.81 295.611 1001.64 296.431C1000.47 297.251 1000.18 298.868 1001 300.04V300.04Z" fill="#B0DCFF" fill-opacity="0.22"/>
<path fill-rule="evenodd" clip-rule="evenodd" d="M1009.12 296.663C1009.12 296.663 1009.89 298.176 1011.27 300.581C1011.9 301.694 1012.63 303.007 1013.55 304.4C1014.41 305.685 1015.4 307.036 1016.48 308.421C1019.22 311.925 1022.55 315.543 1025.46 319.138C1026.77 320.763 1028.07 322.31 1029.14 323.847C1030.54 325.869 1031.6 327.789 1032.49 329.307C1033.83 331.61 1034.56 333.064 1034.56 333.064C1035.37 334.235 1036.99 334.522 1038.16 333.702C1039.33 332.882 1039.62 331.265 1038.8 330.093C1038.8 330.093 1037.69 328.91 1035.99 326.86C1034.86 325.509 1033.43 323.85 1032.01 321.837C1030.93 320.307 1029.93 318.557 1028.85 316.763C1026.48 312.797 1024.23 308.423 1021.88 304.648C1020.95 303.154 1020.02 301.756 1019.1 300.515C1018.12 299.172 1017.13 298.036 1016.31 297.053C1014.52 294.933 1013.36 293.691 1013.36 293.691C1012.54 292.519 1010.93 292.233 1009.76 293.052C1008.58 293.872 1008.3 295.491 1009.12 296.663V296.663Z" fill="#B0DCFF" fill-opacity="0.22"/>
<path fill-rule="evenodd" clip-rule="evenodd" d="M1019.7 296.473C1019.7 296.473 1020.23 297.634 1021.22 299.488C1021.68 300.343 1022.19 301.348 1022.88 302.405C1023.51 303.376 1024.26 304.387 1025.1 305.416C1027.21 308.028 1029.83 310.633 1032.1 313.3C1033.12 314.503 1034.13 315.638 1034.93 316.797C1035.98 318.323 1036.73 319.795 1037.37 320.958C1038.34 322.732 1038.83 323.848 1038.83 323.848C1039.65 325.021 1041.27 325.307 1042.44 324.487C1043.61 323.667 1043.9 322.049 1043.08 320.877C1043.08 320.877 1042.2 320.03 1040.87 318.511C1040 317.517 1038.87 316.304 1037.81 314.788C1036.99 313.635 1036.27 312.298 1035.49 310.925C1033.76 307.884 1032.22 304.527 1030.49 301.641C1029.81 300.505 1029.12 299.447 1028.43 298.52C1027.67 297.512 1026.91 296.684 1026.26 295.961C1024.86 294.392 1023.95 293.501 1023.95 293.501C1023.13 292.329 1021.51 292.043 1020.34 292.863C1019.17 293.682 1018.88 295.3 1019.7 296.473Z" fill="#B0DCFF" fill-opacity="0.22"/>
<path fill-rule="evenodd" clip-rule="evenodd" d="M1040.19 283.527C1040.19 283.527 1040.45 284.96 1041.51 286.812C1041.81 287.33 1042.23 287.836 1042.69 288.338C1043.92 289.662 1045.46 290.752 1046.8 292.072C1047.38 292.653 1047.96 293.181 1048.38 293.789C1048.93 294.593 1049.22 295.403 1049.49 296.043C1049.92 297.058 1050.07 297.663 1050.07 297.663C1050.89 298.836 1052.5 299.121 1053.68 298.301C1054.85 297.482 1055.13 295.864 1054.31 294.691C1054.31 294.691 1053.8 294.347 1052.99 293.597C1052.48 293.123 1051.82 292.575 1051.25 291.779C1050.83 291.178 1050.53 290.448 1050.19 289.698C1049.4 287.996 1048.91 286.167 1048.09 284.565C1047.78 283.956 1047.45 283.386 1047.06 282.927C1045.69 281.292 1044.43 280.556 1044.43 280.556C1043.61 279.384 1042 279.097 1040.82 279.917C1039.65 280.737 1039.37 282.355 1040.19 283.527V283.527Z" fill="#B0DCFF" fill-opacity="0.22"/>
<path fill-rule="evenodd" clip-rule="evenodd" d="M1052.34 281.246C1052.34 281.246 1052.33 282.288 1053.06 283.676C1053.26 284.047 1053.57 284.393 1053.91 284.725C1054.87 285.644 1056.04 286.227 1057.08 287.12C1057.52 287.501 1057.97 287.83 1058.27 288.264C1058.66 288.84 1058.79 289.43 1058.95 289.904C1059.2 290.689 1059.24 291.113 1059.24 291.113C1060.06 292.286 1061.67 292.572 1062.84 291.752C1064.02 290.932 1064.3 289.314 1063.48 288.141C1063.48 288.141 1063.1 287.966 1062.45 287.458C1062.06 287.151 1061.55 286.821 1061.14 286.255C1060.83 285.827 1060.68 285.297 1060.47 284.745C1059.99 283.458 1059.85 282.16 1059.31 280.952C1059.11 280.513 1058.9 280.104 1058.62 279.792C1057.57 278.626 1056.58 278.274 1056.58 278.274C1055.76 277.101 1054.15 276.816 1052.98 277.635C1051.8 278.455 1051.52 280.073 1052.34 281.246V281.246Z" fill="#B0DCFF" fill-opacity="0.22"/>
<path fill-rule="evenodd" clip-rule="evenodd" d="M988.054 170.436C988.054 170.436 988.779 171.891 990.096 174.203C990.701 175.273 991.395 176.534 992.28 177.87C993.09 179.101 994.049 180.396 995.09 181.722C997.719 185.073 1000.93 188.522 1003.73 191.96C1005 193.515 1006.25 194.992 1007.27 196.465C1008.61 198.404 1009.63 200.249 1010.47 201.707C1011.75 203.921 1012.43 205.317 1012.43 205.317C1013.25 206.489 1014.87 206.775 1016.04 205.956C1017.21 205.136 1017.49 203.518 1016.67 202.346C1016.67 202.346 1015.6 201.22 1013.96 199.26C1012.88 197.969 1011.5 196.386 1010.14 194.455C1009.11 192.989 1008.15 191.309 1007.13 189.585C1004.86 185.775 1002.72 181.572 1000.48 177.947C999.592 176.514 998.707 175.173 997.831 173.986C996.878 172.698 995.932 171.614 995.136 170.675C993.417 168.648 992.306 167.466 992.306 167.466C991.486 166.294 989.869 166.008 988.69 166.826C987.525 167.648 987.234 169.264 988.054 170.436V170.436Z" fill="#B0DCFF" fill-opacity="0.22"/>
<path fill-rule="evenodd" clip-rule="evenodd" d="M1001.09 173.626C1001.09 173.626 1001.53 174.678 1002.41 176.364C1002.81 177.139 1003.26 178.05 1003.87 179.002C1004.44 179.878 1005.12 180.786 1005.88 181.703C1007.8 184.044 1010.21 186.335 1012.27 188.718C1013.2 189.79 1014.12 190.799 1014.84 191.842C1015.79 193.216 1016.45 194.551 1017.01 195.604C1017.86 197.216 1018.28 198.228 1018.28 198.228C1019.1 199.4 1020.72 199.686 1021.89 198.866C1023.06 198.046 1023.35 196.429 1022.53 195.256C1022.53 195.256 1021.72 194.514 1020.5 193.156C1019.71 192.272 1018.68 191.198 1017.72 189.833C1016.98 188.796 1016.35 187.586 1015.66 186.343C1014.13 183.586 1012.81 180.544 1011.28 177.93C1010.67 176.905 1010.05 175.949 1009.43 175.119C1008.74 174.214 1008.04 173.48 1007.45 172.837C1006.17 171.437 1005.34 170.655 1005.34 170.655C1004.52 169.483 1002.89 169.196 1001.73 170.017C1000.55 170.836 1000.27 172.453 1001.09 173.626V173.626Z" fill="#B0DCFF" fill-opacity="0.22"/>
<path fill-rule="evenodd" clip-rule="evenodd" d="M1015.89 180.668C1015.89 180.668 1016.11 182.047 1017.12 183.833C1017.41 184.333 1017.82 184.816 1018.26 185.295C1019.45 186.561 1020.95 187.583 1022.23 188.842C1022.8 189.395 1023.37 189.896 1023.77 190.48C1024.29 191.251 1024.56 192.03 1024.82 192.648C1025.22 193.629 1025.35 194.209 1025.35 194.209C1026.17 195.382 1027.78 195.669 1028.96 194.848C1030.13 194.029 1030.42 192.412 1029.6 191.239C1029.6 191.239 1029.09 190.917 1028.32 190.202C1027.82 189.75 1027.18 189.232 1026.64 188.47C1026.23 187.893 1025.96 187.19 1025.62 186.467C1024.89 184.825 1024.45 183.068 1023.66 181.521C1023.37 180.936 1023.05 180.388 1022.68 179.95C1021.35 178.381 1020.13 177.697 1020.13 177.697C1019.31 176.525 1017.7 176.238 1016.52 177.058C1015.35 177.878 1015.07 179.496 1015.89 180.668V180.668Z" fill="#B0DCFF" fill-opacity="0.22"/>
<path fill-rule="evenodd" clip-rule="evenodd" d="M969.503 168.46C969.503 168.46 970.618 170.471 972.545 173.66C973.441 175.142 974.478 176.892 975.729 178.761C976.894 180.491 978.224 182.326 979.661 184.218C983.285 188.99 987.619 194.042 991.451 198.955C993.185 201.184 994.893 203.314 996.333 205.388C998.234 208.117 999.741 210.672 1000.98 212.695C1002.85 215.754 1003.9 217.683 1003.9 217.683C1004.72 218.855 1006.34 219.141 1007.51 218.321C1008.69 217.501 1008.97 215.884 1008.15 214.711C1008.15 214.711 1006.7 213.053 1004.47 210.248C1003 208.393 1001.11 206.098 999.205 203.378C997.756 201.311 996.341 198.979 994.842 196.581C991.545 191.295 988.291 185.487 985.059 180.446C983.774 178.444 982.512 176.562 981.286 174.878C979.962 173.056 978.672 171.484 977.592 170.134C975.255 167.226 973.747 165.489 973.747 165.489C972.934 164.318 971.318 164.031 970.146 164.851C968.967 165.67 968.683 167.288 969.503 168.46Z" fill="#B0DCFF" fill-opacity="0.22"/>
</svg>
