<svg width="119" height="116" viewBox="0 0 119 116" fill="none" xmlns="http://www.w3.org/2000/svg">
<path fill-rule="evenodd" clip-rule="evenodd" d="M75.3242 67.0536C74.2978 67.5246 74.8672 69.2826 75.9593 69.5701C77.0058 69.8457 78.0633 69.3072 79.0358 68.8121L79.1624 68.7477C89.3915 63.5557 103.113 66.6588 110.112 75.747C109.473 76.9122 108.423 77.7764 107.378 78.6371C106.212 79.597 105.051 80.5525 104.471 81.9163C103.964 83.1088 103.981 84.4495 104.007 85.7451L104.235 97.2973C104.262 98.7025 104.457 100.386 105.716 101.01C108.462 102.369 109.716 106.289 107.937 108.783C106.158 111.276 101.616 111.078 100.364 108.282C100.271 108.075 100.195 107.858 100.119 107.641C99.9519 107.167 99.7858 106.695 99.4508 106.33C99.0125 105.851 98.3614 105.64 97.7412 105.449L85.1317 101.557C84.3396 101.312 83.525 101.065 82.6982 101.124C81.0132 101.244 79.6863 102.583 78.6809 103.941C78.5213 104.156 78.3639 104.376 78.206 104.596C77.369 105.763 76.5193 106.948 75.2716 107.629C73.7886 108.438 71.5213 108.111 70.958 106.518C68.0028 98.164 65.9321 88.713 69.573 80.6337C69.6747 80.4079 69.7812 80.182 69.8879 79.9554C70.4349 78.7942 70.9903 77.6155 70.9661 76.3466C70.9372 74.8301 69.619 73.2137 68.1423 73.56C67.1985 73.7813 66.5369 74.6704 65.9029 75.5224C65.1411 76.5462 64.419 77.5165 63.2951 77.2112C62.8509 77.0905 62.494 76.7683 62.1553 76.4565L51.7583 66.8822C49.8651 66.6236 48.9683 69.4009 49.7945 71.1239C50.2036 71.9772 50.8262 72.6993 51.4485 73.4212C52.0829 74.1571 52.7171 74.8927 53.1249 75.7667C54.7587 79.268 52.228 83.2189 49.7332 86.1693C40.8041 96.7295 30.5911 106.203 19.391 114.315C18.8771 114.687 18.3109 115.073 17.6765 115.057C16.8616 115.037 16.228 114.372 15.6933 113.757L1.72174 97.6817C0.596778 96.3873 -0.516267 94.3309 0.738897 93.1624L35.602 60.7053C36.1562 60.1893 36.7433 59.6549 37.4771 59.4683C38.9854 59.0846 40.4223 60.29 41.3558 61.5353C41.5012 61.7292 41.6447 61.9286 41.789 62.129C42.5712 63.2156 43.3752 64.3326 44.6133 64.7728C46.0797 65.2942 48.1401 63.9095 47.4829 62.4988C41.8457 55.3833 36.0482 47.941 34.0576 39.0841C33.6809 37.4082 33.464 35.5775 34.2191 34.0347C35.8992 30.6015 40.8498 30.8404 44.5096 31.9428C51.1873 33.9543 57.5205 37.1044 63.1535 41.2162C64.2755 42.0353 65.6205 42.9407 66.9413 42.5103C68.8085 41.9018 68.9174 39.2641 68.2682 37.4107C68.1654 37.1172 68.0527 36.8197 67.9391 36.5196C67.3352 34.9247 66.7043 33.2582 67.3813 31.7504C67.737 30.9582 68.4083 30.3597 69.0606 29.7865L102.132 0.72344C107.4 6.80958 112.529 13.0158 117.514 19.3357C118.007 19.96 118.523 20.6585 118.495 21.4531C118.461 22.3943 117.686 23.1183 116.969 23.7287L84.1599 51.6524C82.7608 52.8432 80.54 51.8884 79.3407 50.4966C78.9071 49.9933 78.5301 49.4361 78.1541 48.8804C77.4901 47.899 76.8291 46.9221 75.8648 46.2544C74.3542 45.2086 71.649 45.6326 71.459 47.46C71.3508 48.4993 72.113 49.4133 72.8786 50.1245C73.4769 50.6803 74.1141 51.2061 74.7513 51.7318L74.7514 51.7318C76.3914 53.0849 78.0309 54.4375 79.0037 56.3007C80.9649 60.0572 79.1756 65.2861 75.3242 67.0536ZM98.2156 102.931C98.3493 102.976 98.4872 103.021 98.6278 103.012C99.0295 102.987 99.2777 102.514 99.2176 102.116C99.1574 101.718 98.887 101.388 98.6271 101.081L91.6944 92.8873C91.3333 92.4605 90.888 91.9951 90.3297 92.0241C89.894 92.0467 89.5405 92.3689 89.2273 92.6727L85.1707 96.608C84.9591 96.8132 84.7385 97.0335 84.6651 97.319C84.4644 98.0991 85.4027 98.6489 86.1667 98.9042L98.2156 102.931ZM93.4988 89.4116C93.5834 89.1621 93.7824 88.9714 93.9745 88.7912L99.6813 83.4372C100.154 83.2874 100.427 83.9617 100.46 84.4568L101.36 97.9914C101.405 98.6546 101.442 99.3534 101.149 99.9498C97.8733 97.5442 95.26 94.246 93.6671 90.5072C93.5188 90.1591 93.3775 89.7698 93.4988 89.4116Z" fill="white" fill-opacity="0.4"/>
</svg>
